ISO-10303-21;
HEADER;
/* Generated by software containing ST-Developer
 * from STEP Tools, Inc. (www.steptools.com) 
 */
/* OPTION: using custom renumber hook */

FILE_DESCRIPTION(
/* description */ ('STEP AP242 Edition 2',
'CAx-IF Rec.Pracs.---Representation and Presentation of Product Manufa
cturing Information (PMI)---4.0---2014-10-13',
'CAx-IF Rec.Pracs.---3D Tessellated Geometry---0.4---2014-09-14','2;1',
'CAx-IF Rec.Pracs.---User Defined Attributes---1.5---2016-08-15'),
/* implementation_level */ '2;1');

FILE_NAME(
/* name */ 'ESP8266 - Part 1',
/* time_stamp */ '2026-09-15T17:56:29Z',
/* author */ (''),
/* organization */ (''),
/* preprocessor_version */ 'ST-DEVELOPER v20',
/* originating_system */ 'ONSHAPE BY PTC INC, 1.220',
/* authorisation */ '  ');

FILE_SCHEMA (('AP242_MANAGED_MODEL_BASED_3D_ENGINEERING_MIM_LF { 1 0 10303 442 3 1 4 }'));
ENDSEC;

DATA;
#10=SHAPE_REPRESENTATION_RELATIONSHIP('','',#1256,#11);
#11=ADVANCED_BREP_SHAPE_REPRESENTATION('',(#1254),#2188);
#12=ELLIPSE('',#1384,0.298074962249949,0.0385227567703322);
#13=ELLIPSE('',#1386,0.298074962249949,0.0385227567703322);
#14=ELLIPSE('',#1390,0.206373412608904,0.0266713873509765);
#15=ELLIPSE('',#1392,0.206373412608901,0.0266713873509763);
#16=ELLIPSE('',#1396,0.0314127819655164,0.010103411189807);
#17=ELLIPSE('',#1398,0.0314127819655163,0.010103411189807);
#18=ELLIPSE('',#1400,0.0314134613749512,0.0101036297108184);
#19=ELLIPSE('',#1402,0.0314134613749512,0.0101036297108184);
#20=ELLIPSE('',#1408,0.00707106781186547,0.005);
#21=ELLIPSE('',#1409,0.00707106781186547,0.005);
#22=ELLIPSE('',#1411,0.00707106781186547,0.005);
#23=ELLIPSE('',#1413,0.00707106781186547,0.005);
#24=CONICAL_SURFACE('',#1383,0.0045,0.358770670270573);
#25=CONICAL_SURFACE('',#1385,0.0045,0.358770670270573);
#26=CONICAL_SURFACE('',#1387,0.0045,0.358770670270572);
#27=CONICAL_SURFACE('',#1388,0.0045,0.358770670270572);
#28=CONICAL_SURFACE('',#1389,0.0045,0.358770670270572);
#29=CONICAL_SURFACE('',#1391,0.0045,0.358770670270572);
#30=CONICAL_SURFACE('',#1393,0.0045,0.358770670270572);
#31=CONICAL_SURFACE('',#1394,0.0045,0.358770670270572);
#32=CONICAL_SURFACE('',#1395,0.0045,0.197395559849881);
#33=CONICAL_SURFACE('',#1397,0.0045,0.197395559849881);
#34=CONICAL_SURFACE('',#1399,0.0045,0.197395559849881);
#35=CONICAL_SURFACE('',#1401,0.0045,0.197395559849881);
#36=CYLINDRICAL_SURFACE('',#1287,0.0025);
#37=CYLINDRICAL_SURFACE('',#1290,0.0045);
#38=CYLINDRICAL_SURFACE('',#1295,0.0025);
#39=CYLINDRICAL_SURFACE('',#1298,0.0045);
#40=CYLINDRICAL_SURFACE('',#1303,0.0025);
#41=CYLINDRICAL_SURFACE('',#1306,0.0045);
#42=CYLINDRICAL_SURFACE('',#1311,0.0025);
#43=CYLINDRICAL_SURFACE('',#1314,0.0045);
#44=CYLINDRICAL_SURFACE('',#1319,0.0025);
#45=CYLINDRICAL_SURFACE('',#1322,0.0045);
#46=CYLINDRICAL_SURFACE('',#1327,0.0025);
#47=CYLINDRICAL_SURFACE('',#1330,0.0045);
#48=CYLINDRICAL_SURFACE('',#1335,0.0025);
#49=CYLINDRICAL_SURFACE('',#1338,0.0045);
#50=CYLINDRICAL_SURFACE('',#1343,0.0025);
#51=CYLINDRICAL_SURFACE('',#1346,0.0045);
#52=CYLINDRICAL_SURFACE('',#1351,0.0025);
#53=CYLINDRICAL_SURFACE('',#1354,0.0045);
#54=CYLINDRICAL_SURFACE('',#1359,0.0025);
#55=CYLINDRICAL_SURFACE('',#1362,0.0045);
#56=CYLINDRICAL_SURFACE('',#1367,0.0025);
#57=CYLINDRICAL_SURFACE('',#1370,0.0045);
#58=CYLINDRICAL_SURFACE('',#1375,0.0025);
#59=CYLINDRICAL_SURFACE('',#1378,0.0045);
#60=CYLINDRICAL_SURFACE('',#1407,0.005);
#61=CYLINDRICAL_SURFACE('',#1410,0.005);
#62=CYLINDRICAL_SURFACE('',#1412,0.005);
#63=CYLINDRICAL_SURFACE('',#1414,0.005);
#64=CYLINDRICAL_SURFACE('',#1415,0.00225);
#65=CYLINDRICAL_SURFACE('',#1418,0.00225);
#66=CYLINDRICAL_SURFACE('',#1421,0.00225);
#67=CYLINDRICAL_SURFACE('',#1424,0.00225);
#68=CYLINDRICAL_SURFACE('',#1431,0.016);
#69=CIRCLE('',#1267,0.00225);
#70=CIRCLE('',#1268,0.00225);
#71=CIRCLE('',#1269,0.00225);
#72=CIRCLE('',#1270,0.00225);
#73=CIRCLE('',#1272,0.016);
#74=CIRCLE('',#1273,0.0075);
#75=CIRCLE('',#1274,0.0075);
#76=CIRCLE('',#1275,0.0075);
#77=CIRCLE('',#1276,0.0075);
#78=CIRCLE('',#1277,0.0075);
#79=CIRCLE('',#1278,0.0075);
#80=CIRCLE('',#1279,0.0075);
#81=CIRCLE('',#1280,0.0075);
#82=CIRCLE('',#1281,0.0075);
#83=CIRCLE('',#1282,0.0075);
#84=CIRCLE('',#1283,0.0075);
#85=CIRCLE('',#1284,0.0075);
#86=CIRCLE('',#1286,0.016);
#87=CIRCLE('',#1288,0.0025);
#88=CIRCLE('',#1289,0.0025);
#89=CIRCLE('',#1291,0.0045);
#90=CIRCLE('',#1292,0.0045);
#91=CIRCLE('',#1296,0.0025);
#92=CIRCLE('',#1297,0.0025);
#93=CIRCLE('',#1299,0.0045);
#94=CIRCLE('',#1300,0.0045);
#95=CIRCLE('',#1304,0.0025);
#96=CIRCLE('',#1305,0.0025);
#97=CIRCLE('',#1307,0.0045);
#98=CIRCLE('',#1308,0.0045);
#99=CIRCLE('',#1312,0.0025);
#100=CIRCLE('',#1313,0.0025);
#101=CIRCLE('',#1315,0.0045);
#102=CIRCLE('',#1316,0.0045);
#103=CIRCLE('',#1320,0.0025);
#104=CIRCLE('',#1321,0.0025);
#105=CIRCLE('',#1323,0.0045);
#106=CIRCLE('',#1324,0.0045);
#107=CIRCLE('',#1328,0.0025);
#108=CIRCLE('',#1329,0.0025);
#109=CIRCLE('',#1331,0.0045);
#110=CIRCLE('',#1332,0.0045);
#111=CIRCLE('',#1336,0.0025);
#112=CIRCLE('',#1337,0.0025);
#113=CIRCLE('',#1339,0.0045);
#114=CIRCLE('',#1340,0.0045);
#115=CIRCLE('',#1344,0.0025);
#116=CIRCLE('',#1345,0.0025);
#117=CIRCLE('',#1347,0.0045);
#118=CIRCLE('',#1348,0.0045);
#119=CIRCLE('',#1352,0.0025);
#120=CIRCLE('',#1353,0.0025);
#121=CIRCLE('',#1355,0.0045);
#122=CIRCLE('',#1356,0.0045);
#123=CIRCLE('',#1360,0.0025);
#124=CIRCLE('',#1361,0.0025);
#125=CIRCLE('',#1363,0.0045);
#126=CIRCLE('',#1364,0.0045);
#127=CIRCLE('',#1368,0.0025);
#128=CIRCLE('',#1369,0.0025);
#129=CIRCLE('',#1371,0.0045);
#130=CIRCLE('',#1372,0.0045);
#131=CIRCLE('',#1376,0.0025);
#132=CIRCLE('',#1377,0.0025);
#133=CIRCLE('',#1379,0.0045);
#134=CIRCLE('',#1380,0.0045);
#135=CIRCLE('',#1416,0.00225);
#136=CIRCLE('',#1419,0.00225);
#137=CIRCLE('',#1422,0.00225);
#138=CIRCLE('',#1425,0.00225);
#139=ORIENTED_EDGE('',*,*,#421,.T.);
#140=ORIENTED_EDGE('',*,*,#422,.T.);
#141=ORIENTED_EDGE('',*,*,#423,.F.);
#142=ORIENTED_EDGE('',*,*,#424,.T.);
#143=ORIENTED_EDGE('',*,*,#425,.F.);
#144=ORIENTED_EDGE('',*,*,#426,.T.);
#145=ORIENTED_EDGE('',*,*,#427,.T.);
#146=ORIENTED_EDGE('',*,*,#428,.F.);
#147=ORIENTED_EDGE('',*,*,#429,.T.);
#148=ORIENTED_EDGE('',*,*,#430,.T.);
#149=ORIENTED_EDGE('',*,*,#431,.F.);
#150=ORIENTED_EDGE('',*,*,#432,.T.);
#151=ORIENTED_EDGE('',*,*,#433,.T.);
#152=ORIENTED_EDGE('',*,*,#434,.F.);
#153=ORIENTED_EDGE('',*,*,#435,.F.);
#154=ORIENTED_EDGE('',*,*,#431,.T.);
#155=ORIENTED_EDGE('',*,*,#436,.T.);
#156=ORIENTED_EDGE('',*,*,#437,.F.);
#157=ORIENTED_EDGE('',*,*,#438,.F.);
#158=ORIENTED_EDGE('',*,*,#434,.T.);
#159=ORIENTED_EDGE('',*,*,#423,.T.);
#160=ORIENTED_EDGE('',*,*,#439,.T.);
#161=ORIENTED_EDGE('',*,*,#440,.F.);
#162=ORIENTED_EDGE('',*,*,#441,.T.);
#163=ORIENTED_EDGE('',*,*,#440,.T.);
#164=ORIENTED_EDGE('',*,*,#442,.T.);
#165=ORIENTED_EDGE('',*,*,#443,.F.);
#166=ORIENTED_EDGE('',*,*,#444,.F.);
#167=ORIENTED_EDGE('',*,*,#443,.T.);
#168=ORIENTED_EDGE('',*,*,#445,.T.);
#169=ORIENTED_EDGE('',*,*,#421,.F.);
#170=ORIENTED_EDGE('',*,*,#446,.F.);
#171=ORIENTED_EDGE('',*,*,#447,.F.);
#172=ORIENTED_EDGE('',*,*,#448,.T.);
#173=ORIENTED_EDGE('',*,*,#429,.F.);
#174=ORIENTED_EDGE('',*,*,#449,.T.);
#175=ORIENTED_EDGE('',*,*,#437,.T.);
#176=ORIENTED_EDGE('',*,*,#450,.T.);
#177=ORIENTED_EDGE('',*,*,#451,.T.);
#178=ORIENTED_EDGE('',*,*,#452,.T.);
#179=ORIENTED_EDGE('',*,*,#453,.F.);
#180=ORIENTED_EDGE('',*,*,#454,.F.);
#181=ORIENTED_EDGE('',*,*,#455,.F.);
#182=ORIENTED_EDGE('',*,*,#456,.F.);
#183=ORIENTED_EDGE('',*,*,#441,.F.);
#184=ORIENTED_EDGE('',*,*,#444,.T.);
#185=ORIENTED_EDGE('',*,*,#446,.T.);
#186=ORIENTED_EDGE('',*,*,#424,.F.);
#187=ORIENTED_EDGE('',*,*,#432,.F.);
#188=ORIENTED_EDGE('',*,*,#435,.T.);
#189=ORIENTED_EDGE('',*,*,#438,.T.);
#190=ORIENTED_EDGE('',*,*,#449,.F.);
#191=ORIENTED_EDGE('',*,*,#457,.F.);
#192=ORIENTED_EDGE('',*,*,#458,.T.);
#193=ORIENTED_EDGE('',*,*,#459,.T.);
#194=ORIENTED_EDGE('',*,*,#460,.T.);
#195=ORIENTED_EDGE('',*,*,#461,.T.);
#196=ORIENTED_EDGE('',*,*,#462,.T.);
#197=ORIENTED_EDGE('',*,*,#463,.T.);
#198=ORIENTED_EDGE('',*,*,#464,.T.);
#199=ORIENTED_EDGE('',*,*,#465,.T.);
#200=ORIENTED_EDGE('',*,*,#466,.T.);
#201=ORIENTED_EDGE('',*,*,#467,.T.);
#202=ORIENTED_EDGE('',*,*,#468,.T.);
#203=ORIENTED_EDGE('',*,*,#469,.T.);
#204=ORIENTED_EDGE('',*,*,#470,.T.);
#205=ORIENTED_EDGE('',*,*,#471,.T.);
#206=ORIENTED_EDGE('',*,*,#472,.T.);
#207=ORIENTED_EDGE('',*,*,#473,.T.);
#208=ORIENTED_EDGE('',*,*,#474,.T.);
#209=ORIENTED_EDGE('',*,*,#475,.T.);
#210=ORIENTED_EDGE('',*,*,#476,.T.);
#211=ORIENTED_EDGE('',*,*,#477,.T.);
#212=ORIENTED_EDGE('',*,*,#478,.T.);
#213=ORIENTED_EDGE('',*,*,#479,.T.);
#214=ORIENTED_EDGE('',*,*,#480,.T.);
#215=ORIENTED_EDGE('',*,*,#481,.T.);
#216=ORIENTED_EDGE('',*,*,#482,.F.);
#217=ORIENTED_EDGE('',*,*,#483,.T.);
#218=ORIENTED_EDGE('',*,*,#484,.T.);
#219=ORIENTED_EDGE('',*,*,#485,.T.);
#220=ORIENTED_EDGE('',*,*,#486,.T.);
#221=ORIENTED_EDGE('',*,*,#487,.T.);
#222=ORIENTED_EDGE('',*,*,#488,.T.);
#223=ORIENTED_EDGE('',*,*,#489,.T.);
#224=ORIENTED_EDGE('',*,*,#490,.F.);
#225=ORIENTED_EDGE('',*,*,#487,.F.);
#226=ORIENTED_EDGE('',*,*,#490,.T.);
#227=ORIENTED_EDGE('',*,*,#488,.F.);
#228=ORIENTED_EDGE('',*,*,#491,.T.);
#229=ORIENTED_EDGE('',*,*,#492,.T.);
#230=ORIENTED_EDGE('',*,*,#493,.T.);
#231=ORIENTED_EDGE('',*,*,#494,.F.);
#232=ORIENTED_EDGE('',*,*,#491,.F.);
#233=ORIENTED_EDGE('',*,*,#494,.T.);
#234=ORIENTED_EDGE('',*,*,#492,.F.);
#235=ORIENTED_EDGE('',*,*,#495,.T.);
#236=ORIENTED_EDGE('',*,*,#496,.T.);
#237=ORIENTED_EDGE('',*,*,#497,.T.);
#238=ORIENTED_EDGE('',*,*,#498,.F.);
#239=ORIENTED_EDGE('',*,*,#495,.F.);
#240=ORIENTED_EDGE('',*,*,#498,.T.);
#241=ORIENTED_EDGE('',*,*,#496,.F.);
#242=ORIENTED_EDGE('',*,*,#499,.T.);
#243=ORIENTED_EDGE('',*,*,#500,.T.);
#244=ORIENTED_EDGE('',*,*,#501,.T.);
#245=ORIENTED_EDGE('',*,*,#502,.F.);
#246=ORIENTED_EDGE('',*,*,#499,.F.);
#247=ORIENTED_EDGE('',*,*,#502,.T.);
#248=ORIENTED_EDGE('',*,*,#500,.F.);
#249=ORIENTED_EDGE('',*,*,#503,.T.);
#250=ORIENTED_EDGE('',*,*,#504,.T.);
#251=ORIENTED_EDGE('',*,*,#505,.T.);
#252=ORIENTED_EDGE('',*,*,#506,.F.);
#253=ORIENTED_EDGE('',*,*,#503,.F.);
#254=ORIENTED_EDGE('',*,*,#506,.T.);
#255=ORIENTED_EDGE('',*,*,#504,.F.);
#256=ORIENTED_EDGE('',*,*,#507,.T.);
#257=ORIENTED_EDGE('',*,*,#508,.T.);
#258=ORIENTED_EDGE('',*,*,#509,.T.);
#259=ORIENTED_EDGE('',*,*,#510,.F.);
#260=ORIENTED_EDGE('',*,*,#507,.F.);
#261=ORIENTED_EDGE('',*,*,#510,.T.);
#262=ORIENTED_EDGE('',*,*,#508,.F.);
#263=ORIENTED_EDGE('',*,*,#511,.T.);
#264=ORIENTED_EDGE('',*,*,#512,.T.);
#265=ORIENTED_EDGE('',*,*,#513,.T.);
#266=ORIENTED_EDGE('',*,*,#514,.F.);
#267=ORIENTED_EDGE('',*,*,#511,.F.);
#268=ORIENTED_EDGE('',*,*,#514,.T.);
#269=ORIENTED_EDGE('',*,*,#512,.F.);
#270=ORIENTED_EDGE('',*,*,#515,.T.);
#271=ORIENTED_EDGE('',*,*,#516,.T.);
#272=ORIENTED_EDGE('',*,*,#517,.T.);
#273=ORIENTED_EDGE('',*,*,#518,.F.);
#274=ORIENTED_EDGE('',*,*,#515,.F.);
#275=ORIENTED_EDGE('',*,*,#518,.T.);
#276=ORIENTED_EDGE('',*,*,#516,.F.);
#277=ORIENTED_EDGE('',*,*,#519,.T.);
#278=ORIENTED_EDGE('',*,*,#520,.T.);
#279=ORIENTED_EDGE('',*,*,#521,.T.);
#280=ORIENTED_EDGE('',*,*,#522,.F.);
#281=ORIENTED_EDGE('',*,*,#519,.F.);
#282=ORIENTED_EDGE('',*,*,#522,.T.);
#283=ORIENTED_EDGE('',*,*,#520,.F.);
#284=ORIENTED_EDGE('',*,*,#523,.T.);
#285=ORIENTED_EDGE('',*,*,#524,.T.);
#286=ORIENTED_EDGE('',*,*,#525,.T.);
#287=ORIENTED_EDGE('',*,*,#526,.F.);
#288=ORIENTED_EDGE('',*,*,#523,.F.);
#289=ORIENTED_EDGE('',*,*,#526,.T.);
#290=ORIENTED_EDGE('',*,*,#524,.F.);
#291=ORIENTED_EDGE('',*,*,#527,.T.);
#292=ORIENTED_EDGE('',*,*,#528,.T.);
#293=ORIENTED_EDGE('',*,*,#529,.T.);
#294=ORIENTED_EDGE('',*,*,#530,.F.);
#295=ORIENTED_EDGE('',*,*,#527,.F.);
#296=ORIENTED_EDGE('',*,*,#530,.T.);
#297=ORIENTED_EDGE('',*,*,#528,.F.);
#298=ORIENTED_EDGE('',*,*,#531,.T.);
#299=ORIENTED_EDGE('',*,*,#532,.T.);
#300=ORIENTED_EDGE('',*,*,#533,.T.);
#301=ORIENTED_EDGE('',*,*,#534,.F.);
#302=ORIENTED_EDGE('',*,*,#531,.F.);
#303=ORIENTED_EDGE('',*,*,#534,.T.);
#304=ORIENTED_EDGE('',*,*,#532,.F.);
#305=ORIENTED_EDGE('',*,*,#473,.F.);
#306=ORIENTED_EDGE('',*,*,#535,.T.);
#307=ORIENTED_EDGE('',*,*,#533,.F.);
#308=ORIENTED_EDGE('',*,*,#475,.F.);
#309=ORIENTED_EDGE('',*,*,#536,.T.);
#310=ORIENTED_EDGE('',*,*,#509,.F.);
#311=ORIENTED_EDGE('',*,*,#478,.F.);
#312=ORIENTED_EDGE('',*,*,#513,.F.);
#313=ORIENTED_EDGE('',*,*,#479,.F.);
#314=ORIENTED_EDGE('',*,*,#529,.F.);
#315=ORIENTED_EDGE('',*,*,#465,.F.);
#316=ORIENTED_EDGE('',*,*,#537,.T.);
#317=ORIENTED_EDGE('',*,*,#525,.F.);
#318=ORIENTED_EDGE('',*,*,#538,.T.);
#319=ORIENTED_EDGE('',*,*,#463,.F.);
#320=ORIENTED_EDGE('',*,*,#521,.F.);
#321=ORIENTED_EDGE('',*,*,#480,.F.);
#322=ORIENTED_EDGE('',*,*,#517,.F.);
#323=ORIENTED_EDGE('',*,*,#481,.F.);
#324=ORIENTED_EDGE('',*,*,#505,.F.);
#325=ORIENTED_EDGE('',*,*,#460,.F.);
#326=ORIENTED_EDGE('',*,*,#539,.T.);
#327=ORIENTED_EDGE('',*,*,#501,.F.);
#328=ORIENTED_EDGE('',*,*,#540,.T.);
#329=ORIENTED_EDGE('',*,*,#458,.F.);
#330=ORIENTED_EDGE('',*,*,#497,.F.);
#331=ORIENTED_EDGE('',*,*,#470,.F.);
#332=ORIENTED_EDGE('',*,*,#541,.T.);
#333=ORIENTED_EDGE('',*,*,#493,.F.);
#334=ORIENTED_EDGE('',*,*,#542,.T.);
#335=ORIENTED_EDGE('',*,*,#468,.F.);
#336=ORIENTED_EDGE('',*,*,#489,.F.);
#337=ORIENTED_EDGE('',*,*,#543,.F.);
#338=ORIENTED_EDGE('',*,*,#433,.F.);
#339=ORIENTED_EDGE('',*,*,#544,.F.);
#340=ORIENTED_EDGE('',*,*,#471,.F.);
#341=ORIENTED_EDGE('',*,*,#541,.F.);
#342=ORIENTED_EDGE('',*,*,#469,.F.);
#343=ORIENTED_EDGE('',*,*,#542,.F.);
#344=ORIENTED_EDGE('',*,*,#467,.F.);
#345=ORIENTED_EDGE('',*,*,#466,.F.);
#346=ORIENTED_EDGE('',*,*,#537,.F.);
#347=ORIENTED_EDGE('',*,*,#464,.F.);
#348=ORIENTED_EDGE('',*,*,#538,.F.);
#349=ORIENTED_EDGE('',*,*,#462,.F.);
#350=ORIENTED_EDGE('',*,*,#545,.F.);
#351=ORIENTED_EDGE('',*,*,#436,.F.);
#352=ORIENTED_EDGE('',*,*,#543,.T.);
#353=ORIENTED_EDGE('',*,*,#544,.T.);
#354=ORIENTED_EDGE('',*,*,#430,.F.);
#355=ORIENTED_EDGE('',*,*,#546,.F.);
#356=ORIENTED_EDGE('',*,*,#476,.F.);
#357=ORIENTED_EDGE('',*,*,#536,.F.);
#358=ORIENTED_EDGE('',*,*,#474,.F.);
#359=ORIENTED_EDGE('',*,*,#535,.F.);
#360=ORIENTED_EDGE('',*,*,#472,.F.);
#361=ORIENTED_EDGE('',*,*,#448,.F.);
#362=ORIENTED_EDGE('',*,*,#547,.T.);
#363=ORIENTED_EDGE('',*,*,#548,.T.);
#364=ORIENTED_EDGE('',*,*,#549,.F.);
#365=ORIENTED_EDGE('',*,*,#450,.F.);
#366=ORIENTED_EDGE('',*,*,#545,.T.);
#367=ORIENTED_EDGE('',*,*,#461,.F.);
#368=ORIENTED_EDGE('',*,*,#539,.F.);
#369=ORIENTED_EDGE('',*,*,#459,.F.);
#370=ORIENTED_EDGE('',*,*,#540,.F.);
#371=ORIENTED_EDGE('',*,*,#477,.F.);
#372=ORIENTED_EDGE('',*,*,#546,.T.);
#373=ORIENTED_EDGE('',*,*,#550,.F.);
#374=ORIENTED_EDGE('',*,*,#445,.F.);
#375=ORIENTED_EDGE('',*,*,#551,.F.);
#376=ORIENTED_EDGE('',*,*,#486,.F.);
#377=ORIENTED_EDGE('',*,*,#551,.T.);
#378=ORIENTED_EDGE('',*,*,#442,.F.);
#379=ORIENTED_EDGE('',*,*,#552,.F.);
#380=ORIENTED_EDGE('',*,*,#483,.F.);
#381=ORIENTED_EDGE('',*,*,#550,.T.);
#382=ORIENTED_EDGE('',*,*,#485,.F.);
#383=ORIENTED_EDGE('',*,*,#553,.F.);
#384=ORIENTED_EDGE('',*,*,#422,.F.);
#385=ORIENTED_EDGE('',*,*,#552,.T.);
#386=ORIENTED_EDGE('',*,*,#439,.F.);
#387=ORIENTED_EDGE('',*,*,#553,.T.);
#388=ORIENTED_EDGE('',*,*,#484,.F.);
#389=ORIENTED_EDGE('',*,*,#456,.T.);
#390=ORIENTED_EDGE('',*,*,#554,.F.);
#391=ORIENTED_EDGE('',*,*,#554,.T.);
#392=ORIENTED_EDGE('',*,*,#455,.T.);
#393=ORIENTED_EDGE('',*,*,#555,.F.);
#394=ORIENTED_EDGE('',*,*,#555,.T.);
#395=ORIENTED_EDGE('',*,*,#454,.T.);
#396=ORIENTED_EDGE('',*,*,#556,.F.);
#397=ORIENTED_EDGE('',*,*,#556,.T.);
#398=ORIENTED_EDGE('',*,*,#453,.T.);
#399=ORIENTED_EDGE('',*,*,#557,.F.);
#400=ORIENTED_EDGE('',*,*,#557,.T.);
#401=ORIENTED_EDGE('',*,*,#558,.T.);
#402=ORIENTED_EDGE('',*,*,#428,.T.);
#403=ORIENTED_EDGE('',*,*,#559,.F.);
#404=ORIENTED_EDGE('',*,*,#548,.F.);
#405=ORIENTED_EDGE('',*,*,#560,.T.);
#406=ORIENTED_EDGE('',*,*,#426,.F.);
#407=ORIENTED_EDGE('',*,*,#561,.F.);
#408=ORIENTED_EDGE('',*,*,#452,.F.);
#409=ORIENTED_EDGE('',*,*,#447,.T.);
#410=ORIENTED_EDGE('',*,*,#561,.T.);
#411=ORIENTED_EDGE('',*,*,#425,.T.);
#412=ORIENTED_EDGE('',*,*,#558,.F.);
#413=ORIENTED_EDGE('',*,*,#547,.F.);
#414=ORIENTED_EDGE('',*,*,#549,.T.);
#415=ORIENTED_EDGE('',*,*,#559,.T.);
#416=ORIENTED_EDGE('',*,*,#427,.F.);
#417=ORIENTED_EDGE('',*,*,#560,.F.);
#418=ORIENTED_EDGE('',*,*,#451,.F.);
#419=ORIENTED_EDGE('',*,*,#457,.T.);
#420=ORIENTED_EDGE('',*,*,#482,.T.);
#421=EDGE_CURVE('',#562,#563,#674,.T.);
#422=EDGE_CURVE('',#563,#564,#675,.F.);
#423=EDGE_CURVE('',#565,#564,#676,.T.);
#424=EDGE_CURVE('',#565,#562,#677,.T.);
#425=EDGE_CURVE('',#566,#567,#678,.T.);
#426=EDGE_CURVE('',#566,#568,#679,.T.);
#427=EDGE_CURVE('',#568,#569,#680,.T.);
#428=EDGE_CURVE('',#567,#569,#681,.T.);
#429=EDGE_CURVE('',#570,#571,#682,.T.);
#430=EDGE_CURVE('',#571,#572,#683,.T.);
#431=EDGE_CURVE('',#573,#572,#684,.T.);
#432=EDGE_CURVE('',#573,#570,#685,.T.);
#433=EDGE_CURVE('',#572,#574,#686,.T.);
#434=EDGE_CURVE('',#575,#574,#687,.T.);
#435=EDGE_CURVE('',#573,#575,#688,.T.);
#436=EDGE_CURVE('',#574,#576,#689,.T.);
#437=EDGE_CURVE('',#577,#576,#690,.T.);
#438=EDGE_CURVE('',#575,#577,#691,.T.);
#439=EDGE_CURVE('',#564,#578,#692,.F.);
#440=EDGE_CURVE('',#579,#578,#693,.T.);
#441=EDGE_CURVE('',#579,#565,#694,.T.);
#442=EDGE_CURVE('',#578,#580,#695,.T.);
#443=EDGE_CURVE('',#581,#580,#696,.T.);
#444=EDGE_CURVE('',#579,#581,#697,.T.);
#445=EDGE_CURVE('',#580,#563,#698,.T.);
#446=EDGE_CURVE('',#581,#562,#699,.T.);
#447=EDGE_CURVE('',#582,#583,#700,.T.);
#448=EDGE_CURVE('',#582,#571,#701,.T.);
#449=EDGE_CURVE('',#570,#577,#702,.T.);
#450=EDGE_CURVE('',#576,#584,#703,.T.);
#451=EDGE_CURVE('',#584,#585,#704,.T.);
#452=EDGE_CURVE('',#585,#583,#705,.T.);
#453=EDGE_CURVE('',#586,#586,#69,.T.);
#454=EDGE_CURVE('',#587,#587,#70,.T.);
#455=EDGE_CURVE('',#588,#588,#71,.T.);
#456=EDGE_CURVE('',#589,#589,#72,.T.);
#457=EDGE_CURVE('',#590,#590,#73,.T.);
#458=EDGE_CURVE('',#591,#592,#74,.F.);
#459=EDGE_CURVE('',#592,#593,#706,.T.);
#460=EDGE_CURVE('',#593,#594,#75,.F.);
#461=EDGE_CURVE('',#594,#595,#707,.T.);
#462=EDGE_CURVE('',#595,#596,#708,.T.);
#463=EDGE_CURVE('',#596,#597,#76,.F.);
#464=EDGE_CURVE('',#597,#598,#709,.T.);
#465=EDGE_CURVE('',#598,#599,#77,.F.);
#466=EDGE_CURVE('',#599,#600,#710,.T.);
#467=EDGE_CURVE('',#600,#601,#711,.T.);
#468=EDGE_CURVE('',#601,#602,#78,.F.);
#469=EDGE_CURVE('',#602,#603,#712,.T.);
#470=EDGE_CURVE('',#603,#604,#79,.F.);
#471=EDGE_CURVE('',#604,#605,#713,.T.);
#472=EDGE_CURVE('',#605,#606,#714,.T.);
#473=EDGE_CURVE('',#606,#607,#80,.F.);
#474=EDGE_CURVE('',#607,#608,#715,.T.);
#475=EDGE_CURVE('',#608,#609,#81,.F.);
#476=EDGE_CURVE('',#609,#610,#716,.T.);
#477=EDGE_CURVE('',#610,#591,#717,.T.);
#478=EDGE_CURVE('',#611,#611,#82,.F.);
#479=EDGE_CURVE('',#612,#612,#83,.F.);
#480=EDGE_CURVE('',#613,#613,#84,.F.);
#481=EDGE_CURVE('',#614,#614,#85,.F.);
#482=EDGE_CURVE('',#615,#615,#86,.T.);
#483=EDGE_CURVE('',#616,#617,#718,.F.);
#484=EDGE_CURVE('',#617,#618,#719,.T.);
#485=EDGE_CURVE('',#618,#619,#720,.T.);
#486=EDGE_CURVE('',#619,#616,#721,.F.);
#487=EDGE_CURVE('',#620,#620,#87,.T.);
#488=EDGE_CURVE('',#621,#621,#88,.F.);
#489=EDGE_CURVE('',#622,#622,#89,.T.);
#490=EDGE_CURVE('',#623,#623,#90,.T.);
#491=EDGE_CURVE('',#624,#624,#91,.T.);
#492=EDGE_CURVE('',#625,#625,#92,.F.);
#493=EDGE_CURVE('',#626,#626,#93,.T.);
#494=EDGE_CURVE('',#627,#627,#94,.T.);
#495=EDGE_CURVE('',#628,#628,#95,.T.);
#496=EDGE_CURVE('',#629,#629,#96,.F.);
#497=EDGE_CURVE('',#630,#630,#97,.T.);
#498=EDGE_CURVE('',#631,#631,#98,.T.);
#499=EDGE_CURVE('',#632,#632,#99,.T.);
#500=EDGE_CURVE('',#633,#633,#100,.F.);
#501=EDGE_CURVE('',#634,#634,#101,.T.);
#502=EDGE_CURVE('',#635,#635,#102,.T.);
#503=EDGE_CURVE('',#636,#636,#103,.T.);
#504=EDGE_CURVE('',#637,#637,#104,.F.);
#505=EDGE_CURVE('',#638,#638,#105,.T.);
#506=EDGE_CURVE('',#639,#639,#106,.T.);
#507=EDGE_CURVE('',#640,#640,#107,.T.);
#508=EDGE_CURVE('',#641,#641,#108,.F.);
#509=EDGE_CURVE('',#642,#642,#109,.T.);
#510=EDGE_CURVE('',#643,#643,#110,.T.);
#511=EDGE_CURVE('',#644,#644,#111,.T.);
#512=EDGE_CURVE('',#645,#645,#112,.F.);
#513=EDGE_CURVE('',#646,#646,#113,.T.);
#514=EDGE_CURVE('',#647,#647,#114,.T.);
#515=EDGE_CURVE('',#648,#648,#115,.T.);
#516=EDGE_CURVE('',#649,#649,#116,.F.);
#517=EDGE_CURVE('',#650,#650,#117,.T.);
#518=EDGE_CURVE('',#651,#651,#118,.T.);
#519=EDGE_CURVE('',#652,#652,#119,.T.);
#520=EDGE_CURVE('',#653,#653,#120,.F.);
#521=EDGE_CURVE('',#654,#654,#121,.T.);
#522=EDGE_CURVE('',#655,#655,#122,.T.);
#523=EDGE_CURVE('',#656,#656,#123,.T.);
#524=EDGE_CURVE('',#657,#657,#124,.F.);
#525=EDGE_CURVE('',#658,#658,#125,.T.);
#526=EDGE_CURVE('',#659,#659,#126,.T.);
#527=EDGE_CURVE('',#660,#660,#127,.T.);
#528=EDGE_CURVE('',#661,#661,#128,.F.);
#529=EDGE_CURVE('',#662,#662,#129,.T.);
#530=EDGE_CURVE('',#663,#663,#130,.T.);
#531=EDGE_CURVE('',#664,#664,#131,.T.);
#532=EDGE_CURVE('',#665,#665,#132,.F.);
#533=EDGE_CURVE('',#666,#666,#133,.T.);
#534=EDGE_CURVE('',#667,#667,#134,.T.);
#535=EDGE_CURVE('',#606,#607,#12,.T.);
#536=EDGE_CURVE('',#608,#609,#13,.T.);
#537=EDGE_CURVE('',#598,#599,#14,.F.);
#538=EDGE_CURVE('',#596,#597,#15,.F.);
#539=EDGE_CURVE('',#593,#594,#16,.T.);
#540=EDGE_CURVE('',#591,#592,#17,.T.);
#541=EDGE_CURVE('',#603,#604,#18,.F.);
#542=EDGE_CURVE('',#601,#602,#19,.F.);
#543=EDGE_CURVE('',#574,#600,#722,.F.);
#544=EDGE_CURVE('',#605,#572,#723,.T.);
#545=EDGE_CURVE('',#576,#595,#724,.T.);
#546=EDGE_CURVE('',#610,#571,#725,.F.);
#547=EDGE_CURVE('',#582,#668,#726,.F.);
#548=EDGE_CURVE('',#668,#669,#727,.F.);
#549=EDGE_CURVE('',#584,#669,#728,.F.);
#550=EDGE_CURVE('',#563,#619,#20,.T.);
#551=EDGE_CURVE('',#616,#580,#21,.F.);
#552=EDGE_CURVE('',#617,#578,#22,.F.);
#553=EDGE_CURVE('',#564,#618,#23,.T.);
#554=EDGE_CURVE('',#670,#670,#135,.T.);
#555=EDGE_CURVE('',#671,#671,#136,.T.);
#556=EDGE_CURVE('',#672,#672,#137,.T.);
#557=EDGE_CURVE('',#673,#673,#138,.T.);
#558=EDGE_CURVE('',#668,#567,#729,.T.);
#559=EDGE_CURVE('',#669,#569,#730,.T.);
#560=EDGE_CURVE('',#585,#568,#731,.T.);
#561=EDGE_CURVE('',#583,#566,#732,.T.);
#562=VERTEX_POINT('',#1844);
#563=VERTEX_POINT('',#1845);
#564=VERTEX_POINT('',#1847);
#565=VERTEX_POINT('',#1849);
#566=VERTEX_POINT('',#1852);
#567=VERTEX_POINT('',#1853);
#568=VERTEX_POINT('',#1855);
#569=VERTEX_POINT('',#1857);
#570=VERTEX_POINT('',#1861);
#571=VERTEX_POINT('',#1862);
#572=VERTEX_POINT('',#1864);
#573=VERTEX_POINT('',#1866);
#574=VERTEX_POINT('',#1870);
#575=VERTEX_POINT('',#1872);
#576=VERTEX_POINT('',#1876);
#577=VERTEX_POINT('',#1878);
#578=VERTEX_POINT('',#1882);
#579=VERTEX_POINT('',#1884);
#580=VERTEX_POINT('',#1888);
#581=VERTEX_POINT('',#1890);
#582=VERTEX_POINT('',#1897);
#583=VERTEX_POINT('',#1898);
#584=VERTEX_POINT('',#1902);
#585=VERTEX_POINT('',#1904);
#586=VERTEX_POINT('',#1908);
#587=VERTEX_POINT('',#1910);
#588=VERTEX_POINT('',#1912);
#589=VERTEX_POINT('',#1914);
#590=VERTEX_POINT('',#1917);
#591=VERTEX_POINT('',#1919);
#592=VERTEX_POINT('',#1920);
#593=VERTEX_POINT('',#1922);
#594=VERTEX_POINT('',#1924);
#595=VERTEX_POINT('',#1926);
#596=VERTEX_POINT('',#1928);
#597=VERTEX_POINT('',#1930);
#598=VERTEX_POINT('',#1932);
#599=VERTEX_POINT('',#1934);
#600=VERTEX_POINT('',#1936);
#601=VERTEX_POINT('',#1938);
#602=VERTEX_POINT('',#1940);
#603=VERTEX_POINT('',#1942);
#604=VERTEX_POINT('',#1944);
#605=VERTEX_POINT('',#1946);
#606=VERTEX_POINT('',#1948);
#607=VERTEX_POINT('',#1950);
#608=VERTEX_POINT('',#1952);
#609=VERTEX_POINT('',#1954);
#610=VERTEX_POINT('',#1956);
#611=VERTEX_POINT('',#1959);
#612=VERTEX_POINT('',#1961);
#613=VERTEX_POINT('',#1963);
#614=VERTEX_POINT('',#1965);
#615=VERTEX_POINT('',#1968);
#616=VERTEX_POINT('',#1970);
#617=VERTEX_POINT('',#1971);
#618=VERTEX_POINT('',#1973);
#619=VERTEX_POINT('',#1975);
#620=VERTEX_POINT('',#1979);
#621=VERTEX_POINT('',#1981);
#622=VERTEX_POINT('',#1984);
#623=VERTEX_POINT('',#1986);
#624=VERTEX_POINT('',#1991);
#625=VERTEX_POINT('',#1993);
#626=VERTEX_POINT('',#1996);
#627=VERTEX_POINT('',#1998);
#628=VERTEX_POINT('',#2003);
#629=VERTEX_POINT('',#2005);
#630=VERTEX_POINT('',#2008);
#631=VERTEX_POINT('',#2010);
#632=VERTEX_POINT('',#2015);
#633=VERTEX_POINT('',#2017);
#634=VERTEX_POINT('',#2020);
#635=VERTEX_POINT('',#2022);
#636=VERTEX_POINT('',#2027);
#637=VERTEX_POINT('',#2029);
#638=VERTEX_POINT('',#2032);
#639=VERTEX_POINT('',#2034);
#640=VERTEX_POINT('',#2039);
#641=VERTEX_POINT('',#2041);
#642=VERTEX_POINT('',#2044);
#643=VERTEX_POINT('',#2046);
#644=VERTEX_POINT('',#2051);
#645=VERTEX_POINT('',#2053);
#646=VERTEX_POINT('',#2056);
#647=VERTEX_POINT('',#2058);
#648=VERTEX_POINT('',#2063);
#649=VERTEX_POINT('',#2065);
#650=VERTEX_POINT('',#2068);
#651=VERTEX_POINT('',#2070);
#652=VERTEX_POINT('',#2075);
#653=VERTEX_POINT('',#2077);
#654=VERTEX_POINT('',#2080);
#655=VERTEX_POINT('',#2082);
#656=VERTEX_POINT('',#2087);
#657=VERTEX_POINT('',#2089);
#658=VERTEX_POINT('',#2092);
#659=VERTEX_POINT('',#2094);
#660=VERTEX_POINT('',#2099);
#661=VERTEX_POINT('',#2101);
#662=VERTEX_POINT('',#2104);
#663=VERTEX_POINT('',#2106);
#664=VERTEX_POINT('',#2111);
#665=VERTEX_POINT('',#2113);
#666=VERTEX_POINT('',#2116);
#667=VERTEX_POINT('',#2118);
#668=VERTEX_POINT('',#2150);
#669=VERTEX_POINT('',#2152);
#670=VERTEX_POINT('',#2164);
#671=VERTEX_POINT('',#2168);
#672=VERTEX_POINT('',#2172);
#673=VERTEX_POINT('',#2176);
#674=LINE('',#1843,#733);
#675=LINE('',#1846,#734);
#676=LINE('',#1848,#735);
#677=LINE('',#1850,#736);
#678=LINE('',#1851,#737);
#679=LINE('',#1854,#738);
#680=LINE('',#1856,#739);
#681=LINE('',#1858,#740);
#682=LINE('',#1860,#741);
#683=LINE('',#1863,#742);
#684=LINE('',#1865,#743);
#685=LINE('',#1867,#744);
#686=LINE('',#1869,#745);
#687=LINE('',#1871,#746);
#688=LINE('',#1873,#747);
#689=LINE('',#1875,#748);
#690=LINE('',#1877,#749);
#691=LINE('',#1879,#750);
#692=LINE('',#1881,#751);
#693=LINE('',#1883,#752);
#694=LINE('',#1885,#753);
#695=LINE('',#1887,#754);
#696=LINE('',#1889,#755);
#697=LINE('',#1891,#756);
#698=LINE('',#1893,#757);
#699=LINE('',#1894,#758);
#700=LINE('',#1896,#759);
#701=LINE('',#1899,#760);
#702=LINE('',#1900,#761);
#703=LINE('',#1901,#762);
#704=LINE('',#1903,#763);
#705=LINE('',#1905,#764);
#706=LINE('',#1921,#765);
#707=LINE('',#1925,#766);
#708=LINE('',#1927,#767);
#709=LINE('',#1931,#768);
#710=LINE('',#1935,#769);
#711=LINE('',#1937,#770);
#712=LINE('',#1941,#771);
#713=LINE('',#1945,#772);
#714=LINE('',#1947,#773);
#715=LINE('',#1951,#774);
#716=LINE('',#1955,#775);
#717=LINE('',#1957,#776);
#718=LINE('',#1969,#777);
#719=LINE('',#1972,#778);
#720=LINE('',#1974,#779);
#721=LINE('',#1976,#780);
#722=LINE('',#2142,#781);
#723=LINE('',#2143,#782);
#724=LINE('',#2145,#783);
#725=LINE('',#2147,#784);
#726=LINE('',#2149,#785);
#727=LINE('',#2151,#786);
#728=LINE('',#2153,#787);
#729=LINE('',#2179,#788);
#730=LINE('',#2180,#789);
#731=LINE('',#2182,#790);
#732=LINE('',#2183,#791);
#733=VECTOR('',#1436,1.);
#734=VECTOR('',#1437,1.);
#735=VECTOR('',#1438,1.);
#736=VECTOR('',#1439,1.);
#737=VECTOR('',#1440,1.);
#738=VECTOR('',#1441,1.);
#739=VECTOR('',#1442,1.);
#740=VECTOR('',#1443,1.);
#741=VECTOR('',#1446,1.);
#742=VECTOR('',#1447,1.);
#743=VECTOR('',#1448,1.);
#744=VECTOR('',#1449,1.);
#745=VECTOR('',#1452,1.);
#746=VECTOR('',#1453,1.);
#747=VECTOR('',#1454,1.);
#748=VECTOR('',#1457,1.);
#749=VECTOR('',#1458,1.);
#750=VECTOR('',#1459,1.);
#751=VECTOR('',#1462,1.);
#752=VECTOR('',#1463,1.);
#753=VECTOR('',#1464,1.);
#754=VECTOR('',#1467,1.);
#755=VECTOR('',#1468,1.);
#756=VECTOR('',#1469,1.);
#757=VECTOR('',#1472,1.);
#758=VECTOR('',#1473,1.);
#759=VECTOR('',#1476,1.);
#760=VECTOR('',#1477,1.);
#761=VECTOR('',#1478,1.);
#762=VECTOR('',#1479,1.);
#763=VECTOR('',#1480,1.);
#764=VECTOR('',#1481,1.);
#765=VECTOR('',#1498,1.);
#766=VECTOR('',#1501,1.);
#767=VECTOR('',#1502,1.);
#768=VECTOR('',#1505,1.);
#769=VECTOR('',#1508,1.);
#770=VECTOR('',#1509,1.);
#771=VECTOR('',#1512,1.);
#772=VECTOR('',#1515,1.);
#773=VECTOR('',#1516,1.);
#774=VECTOR('',#1519,1.);
#775=VECTOR('',#1522,1.);
#776=VECTOR('',#1523,1.);
#777=VECTOR('',#1536,1.);
#778=VECTOR('',#1537,1.);
#779=VECTOR('',#1538,1.);
#780=VECTOR('',#1539,1.);
#781=VECTOR('',#1774,1.);
#782=VECTOR('',#1775,1.);
#783=VECTOR('',#1778,1.);
#784=VECTOR('',#1781,1.);
#785=VECTOR('',#1784,1.);
#786=VECTOR('',#1785,1.);
#787=VECTOR('',#1786,1.);
#788=VECTOR('',#1829,1.);
#789=VECTOR('',#1830,1.);
#790=VECTOR('',#1833,1.);
#791=VECTOR('',#1834,1.);
#792=EDGE_LOOP('',(#139,#140,#141,#142));
#793=EDGE_LOOP('',(#143,#144,#145,#146));
#794=EDGE_LOOP('',(#147,#148,#149,#150));
#795=EDGE_LOOP('',(#151,#152,#153,#154));
#796=EDGE_LOOP('',(#155,#156,#157,#158));
#797=EDGE_LOOP('',(#159,#160,#161,#162));
#798=EDGE_LOOP('',(#163,#164,#165,#166));
#799=EDGE_LOOP('',(#167,#168,#169,#170));
#800=EDGE_LOOP('',(#171,#172,#173,#174,#175,#176,#177,#178));
#801=EDGE_LOOP('',(#179));
#802=EDGE_LOOP('',(#180));
#803=EDGE_LOOP('',(#181));
#804=EDGE_LOOP('',(#182));
#805=EDGE_LOOP('',(#183,#184,#185,#186));
#806=EDGE_LOOP('',(#187,#188,#189,#190));
#807=EDGE_LOOP('',(#191));
#808=EDGE_LOOP('',(#192,#193,#194,#195,#196,#197,#198,#199,#200,#201,#202,
#203,#204,#205,#206,#207,#208,#209,#210,#211));
#809=EDGE_LOOP('',(#212));
#810=EDGE_LOOP('',(#213));
#811=EDGE_LOOP('',(#214));
#812=EDGE_LOOP('',(#215));
#813=EDGE_LOOP('',(#216));
#814=EDGE_LOOP('',(#217,#218,#219,#220));
#815=EDGE_LOOP('',(#221));
#816=EDGE_LOOP('',(#222));
#817=EDGE_LOOP('',(#223));
#818=EDGE_LOOP('',(#224));
#819=EDGE_LOOP('',(#225));
#820=EDGE_LOOP('',(#226));
#821=EDGE_LOOP('',(#227));
#822=EDGE_LOOP('',(#228));
#823=EDGE_LOOP('',(#229));
#824=EDGE_LOOP('',(#230));
#825=EDGE_LOOP('',(#231));
#826=EDGE_LOOP('',(#232));
#827=EDGE_LOOP('',(#233));
#828=EDGE_LOOP('',(#234));
#829=EDGE_LOOP('',(#235));
#830=EDGE_LOOP('',(#236));
#831=EDGE_LOOP('',(#237));
#832=EDGE_LOOP('',(#238));
#833=EDGE_LOOP('',(#239));
#834=EDGE_LOOP('',(#240));
#835=EDGE_LOOP('',(#241));
#836=EDGE_LOOP('',(#242));
#837=EDGE_LOOP('',(#243));
#838=EDGE_LOOP('',(#244));
#839=EDGE_LOOP('',(#245));
#840=EDGE_LOOP('',(#246));
#841=EDGE_LOOP('',(#247));
#842=EDGE_LOOP('',(#248));
#843=EDGE_LOOP('',(#249));
#844=EDGE_LOOP('',(#250));
#845=EDGE_LOOP('',(#251));
#846=EDGE_LOOP('',(#252));
#847=EDGE_LOOP('',(#253));
#848=EDGE_LOOP('',(#254));
#849=EDGE_LOOP('',(#255));
#850=EDGE_LOOP('',(#256));
#851=EDGE_LOOP('',(#257));
#852=EDGE_LOOP('',(#258));
#853=EDGE_LOOP('',(#259));
#854=EDGE_LOOP('',(#260));
#855=EDGE_LOOP('',(#261));
#856=EDGE_LOOP('',(#262));
#857=EDGE_LOOP('',(#263));
#858=EDGE_LOOP('',(#264));
#859=EDGE_LOOP('',(#265));
#860=EDGE_LOOP('',(#266));
#861=EDGE_LOOP('',(#267));
#862=EDGE_LOOP('',(#268));
#863=EDGE_LOOP('',(#269));
#864=EDGE_LOOP('',(#270));
#865=EDGE_LOOP('',(#271));
#866=EDGE_LOOP('',(#272));
#867=EDGE_LOOP('',(#273));
#868=EDGE_LOOP('',(#274));
#869=EDGE_LOOP('',(#275));
#870=EDGE_LOOP('',(#276));
#871=EDGE_LOOP('',(#277));
#872=EDGE_LOOP('',(#278));
#873=EDGE_LOOP('',(#279));
#874=EDGE_LOOP('',(#280));
#875=EDGE_LOOP('',(#281));
#876=EDGE_LOOP('',(#282));
#877=EDGE_LOOP('',(#283));
#878=EDGE_LOOP('',(#284));
#879=EDGE_LOOP('',(#285));
#880=EDGE_LOOP('',(#286));
#881=EDGE_LOOP('',(#287));
#882=EDGE_LOOP('',(#288));
#883=EDGE_LOOP('',(#289));
#884=EDGE_LOOP('',(#290));
#885=EDGE_LOOP('',(#291));
#886=EDGE_LOOP('',(#292));
#887=EDGE_LOOP('',(#293));
#888=EDGE_LOOP('',(#294));
#889=EDGE_LOOP('',(#295));
#890=EDGE_LOOP('',(#296));
#891=EDGE_LOOP('',(#297));
#892=EDGE_LOOP('',(#298));
#893=EDGE_LOOP('',(#299));
#894=EDGE_LOOP('',(#300));
#895=EDGE_LOOP('',(#301));
#896=EDGE_LOOP('',(#302));
#897=EDGE_LOOP('',(#303));
#898=EDGE_LOOP('',(#304));
#899=EDGE_LOOP('',(#305,#306));
#900=EDGE_LOOP('',(#307));
#901=EDGE_LOOP('',(#308,#309));
#902=EDGE_LOOP('',(#310));
#903=EDGE_LOOP('',(#311));
#904=EDGE_LOOP('',(#312));
#905=EDGE_LOOP('',(#313));
#906=EDGE_LOOP('',(#314));
#907=EDGE_LOOP('',(#315,#316));
#908=EDGE_LOOP('',(#317));
#909=EDGE_LOOP('',(#318,#319));
#910=EDGE_LOOP('',(#320));
#911=EDGE_LOOP('',(#321));
#912=EDGE_LOOP('',(#322));
#913=EDGE_LOOP('',(#323));
#914=EDGE_LOOP('',(#324));
#915=EDGE_LOOP('',(#325,#326));
#916=EDGE_LOOP('',(#327));
#917=EDGE_LOOP('',(#328,#329));
#918=EDGE_LOOP('',(#330));
#919=EDGE_LOOP('',(#331,#332));
#920=EDGE_LOOP('',(#333));
#921=EDGE_LOOP('',(#334,#335));
#922=EDGE_LOOP('',(#336));
#923=EDGE_LOOP('',(#337,#338,#339,#340,#341,#342,#343,#344));
#924=EDGE_LOOP('',(#345,#346,#347,#348,#349,#350,#351,#352));
#925=EDGE_LOOP('',(#353,#354,#355,#356,#357,#358,#359,#360));
#926=EDGE_LOOP('',(#361,#362,#363,#364,#365,#366,#367,#368,#369,#370,#371,
#372));
#927=EDGE_LOOP('',(#373,#374,#375,#376));
#928=EDGE_LOOP('',(#377,#378,#379,#380));
#929=EDGE_LOOP('',(#381,#382,#383,#384));
#930=EDGE_LOOP('',(#385,#386,#387,#388));
#931=EDGE_LOOP('',(#389));
#932=EDGE_LOOP('',(#390));
#933=EDGE_LOOP('',(#391));
#934=EDGE_LOOP('',(#392));
#935=EDGE_LOOP('',(#393));
#936=EDGE_LOOP('',(#394));
#937=EDGE_LOOP('',(#395));
#938=EDGE_LOOP('',(#396));
#939=EDGE_LOOP('',(#397));
#940=EDGE_LOOP('',(#398));
#941=EDGE_LOOP('',(#399));
#942=EDGE_LOOP('',(#400));
#943=EDGE_LOOP('',(#401,#402,#403,#404));
#944=EDGE_LOOP('',(#405,#406,#407,#408));
#945=EDGE_LOOP('',(#409,#410,#411,#412,#413));
#946=EDGE_LOOP('',(#414,#415,#416,#417,#418));
#947=EDGE_LOOP('',(#419));
#948=EDGE_LOOP('',(#420));
#949=FACE_BOUND('',#792,.T.);
#950=FACE_BOUND('',#793,.T.);
#951=FACE_BOUND('',#794,.T.);
#952=FACE_BOUND('',#795,.T.);
#953=FACE_BOUND('',#796,.T.);
#954=FACE_BOUND('',#797,.T.);
#955=FACE_BOUND('',#798,.T.);
#956=FACE_BOUND('',#799,.T.);
#957=FACE_BOUND('',#800,.T.);
#958=FACE_BOUND('',#801,.T.);
#959=FACE_BOUND('',#802,.T.);
#960=FACE_BOUND('',#803,.T.);
#961=FACE_BOUND('',#804,.T.);
#962=FACE_BOUND('',#805,.T.);
#963=FACE_BOUND('',#806,.T.);
#964=FACE_BOUND('',#807,.T.);
#965=FACE_BOUND('',#808,.T.);
#966=FACE_BOUND('',#809,.T.);
#967=FACE_BOUND('',#810,.T.);
#968=FACE_BOUND('',#811,.T.);
#969=FACE_BOUND('',#812,.T.);
#970=FACE_BOUND('',#813,.T.);
#971=FACE_BOUND('',#814,.T.);
#972=FACE_BOUND('',#815,.T.);
#973=FACE_BOUND('',#816,.T.);
#974=FACE_BOUND('',#817,.T.);
#975=FACE_BOUND('',#818,.T.);
#976=FACE_BOUND('',#819,.T.);
#977=FACE_BOUND('',#820,.T.);
#978=FACE_BOUND('',#821,.T.);
#979=FACE_BOUND('',#822,.T.);
#980=FACE_BOUND('',#823,.T.);
#981=FACE_BOUND('',#824,.T.);
#982=FACE_BOUND('',#825,.T.);
#983=FACE_BOUND('',#826,.T.);
#984=FACE_BOUND('',#827,.T.);
#985=FACE_BOUND('',#828,.T.);
#986=FACE_BOUND('',#829,.T.);
#987=FACE_BOUND('',#830,.T.);
#988=FACE_BOUND('',#831,.T.);
#989=FACE_BOUND('',#832,.T.);
#990=FACE_BOUND('',#833,.T.);
#991=FACE_BOUND('',#834,.T.);
#992=FACE_BOUND('',#835,.T.);
#993=FACE_BOUND('',#836,.T.);
#994=FACE_BOUND('',#837,.T.);
#995=FACE_BOUND('',#838,.T.);
#996=FACE_BOUND('',#839,.T.);
#997=FACE_BOUND('',#840,.T.);
#998=FACE_BOUND('',#841,.T.);
#999=FACE_BOUND('',#842,.T.);
#1000=FACE_BOUND('',#843,.T.);
#1001=FACE_BOUND('',#844,.T.);
#1002=FACE_BOUND('',#845,.T.);
#1003=FACE_BOUND('',#846,.T.);
#1004=FACE_BOUND('',#847,.T.);
#1005=FACE_BOUND('',#848,.T.);
#1006=FACE_BOUND('',#849,.T.);
#1007=FACE_BOUND('',#850,.T.);
#1008=FACE_BOUND('',#851,.T.);
#1009=FACE_BOUND('',#852,.T.);
#1010=FACE_BOUND('',#853,.T.);
#1011=FACE_BOUND('',#854,.T.);
#1012=FACE_BOUND('',#855,.T.);
#1013=FACE_BOUND('',#856,.T.);
#1014=FACE_BOUND('',#857,.T.);
#1015=FACE_BOUND('',#858,.T.);
#1016=FACE_BOUND('',#859,.T.);
#1017=FACE_BOUND('',#860,.T.);
#1018=FACE_BOUND('',#861,.T.);
#1019=FACE_BOUND('',#862,.T.);
#1020=FACE_BOUND('',#863,.T.);
#1021=FACE_BOUND('',#864,.T.);
#1022=FACE_BOUND('',#865,.T.);
#1023=FACE_BOUND('',#866,.T.);
#1024=FACE_BOUND('',#867,.T.);
#1025=FACE_BOUND('',#868,.T.);
#1026=FACE_BOUND('',#869,.T.);
#1027=FACE_BOUND('',#870,.T.);
#1028=FACE_BOUND('',#871,.T.);
#1029=FACE_BOUND('',#872,.T.);
#1030=FACE_BOUND('',#873,.T.);
#1031=FACE_BOUND('',#874,.T.);
#1032=FACE_BOUND('',#875,.T.);
#1033=FACE_BOUND('',#876,.T.);
#1034=FACE_BOUND('',#877,.T.);
#1035=FACE_BOUND('',#878,.T.);
#1036=FACE_BOUND('',#879,.T.);
#1037=FACE_BOUND('',#880,.T.);
#1038=FACE_BOUND('',#881,.T.);
#1039=FACE_BOUND('',#882,.T.);
#1040=FACE_BOUND('',#883,.T.);
#1041=FACE_BOUND('',#884,.T.);
#1042=FACE_BOUND('',#885,.T.);
#1043=FACE_BOUND('',#886,.T.);
#1044=FACE_BOUND('',#887,.T.);
#1045=FACE_BOUND('',#888,.T.);
#1046=FACE_BOUND('',#889,.T.);
#1047=FACE_BOUND('',#890,.T.);
#1048=FACE_BOUND('',#891,.T.);
#1049=FACE_BOUND('',#892,.T.);
#1050=FACE_BOUND('',#893,.T.);
#1051=FACE_BOUND('',#894,.T.);
#1052=FACE_BOUND('',#895,.T.);
#1053=FACE_BOUND('',#896,.T.);
#1054=FACE_BOUND('',#897,.T.);
#1055=FACE_BOUND('',#898,.T.);
#1056=FACE_BOUND('',#899,.T.);
#1057=FACE_BOUND('',#900,.T.);
#1058=FACE_BOUND('',#901,.T.);
#1059=FACE_BOUND('',#902,.T.);
#1060=FACE_BOUND('',#903,.T.);
#1061=FACE_BOUND('',#904,.T.);
#1062=FACE_BOUND('',#905,.T.);
#1063=FACE_BOUND('',#906,.T.);
#1064=FACE_BOUND('',#907,.T.);
#1065=FACE_BOUND('',#908,.T.);
#1066=FACE_BOUND('',#909,.T.);
#1067=FACE_BOUND('',#910,.T.);
#1068=FACE_BOUND('',#911,.T.);
#1069=FACE_BOUND('',#912,.T.);
#1070=FACE_BOUND('',#913,.T.);
#1071=FACE_BOUND('',#914,.T.);
#1072=FACE_BOUND('',#915,.T.);
#1073=FACE_BOUND('',#916,.T.);
#1074=FACE_BOUND('',#917,.T.);
#1075=FACE_BOUND('',#918,.T.);
#1076=FACE_BOUND('',#919,.T.);
#1077=FACE_BOUND('',#920,.T.);
#1078=FACE_BOUND('',#921,.T.);
#1079=FACE_BOUND('',#922,.T.);
#1080=FACE_BOUND('',#923,.T.);
#1081=FACE_BOUND('',#924,.T.);
#1082=FACE_BOUND('',#925,.T.);
#1083=FACE_BOUND('',#926,.T.);
#1084=FACE_BOUND('',#927,.T.);
#1085=FACE_BOUND('',#928,.T.);
#1086=FACE_BOUND('',#929,.T.);
#1087=FACE_BOUND('',#930,.T.);
#1088=FACE_BOUND('',#931,.T.);
#1089=FACE_BOUND('',#932,.T.);
#1090=FACE_BOUND('',#933,.T.);
#1091=FACE_BOUND('',#934,.T.);
#1092=FACE_BOUND('',#935,.T.);
#1093=FACE_BOUND('',#936,.T.);
#1094=FACE_BOUND('',#937,.T.);
#1095=FACE_BOUND('',#938,.T.);
#1096=FACE_BOUND('',#939,.T.);
#1097=FACE_BOUND('',#940,.T.);
#1098=FACE_BOUND('',#941,.T.);
#1099=FACE_BOUND('',#942,.T.);
#1100=FACE_BOUND('',#943,.T.);
#1101=FACE_BOUND('',#944,.T.);
#1102=FACE_BOUND('',#945,.T.);
#1103=FACE_BOUND('',#946,.T.);
#1104=FACE_BOUND('',#947,.T.);
#1105=FACE_BOUND('',#948,.T.);
#1106=PLANE('',#1258);
#1107=PLANE('',#1259);
#1108=PLANE('',#1260);
#1109=PLANE('',#1261);
#1110=PLANE('',#1262);
#1111=PLANE('',#1263);
#1112=PLANE('',#1264);
#1113=PLANE('',#1265);
#1114=PLANE('',#1266);
#1115=PLANE('',#1271);
#1116=PLANE('',#1285);
#1117=PLANE('',#1293);
#1118=PLANE('',#1294);
#1119=PLANE('',#1301);
#1120=PLANE('',#1302);
#1121=PLANE('',#1309);
#1122=PLANE('',#1310);
#1123=PLANE('',#1317);
#1124=PLANE('',#1318);
#1125=PLANE('',#1325);
#1126=PLANE('',#1326);
#1127=PLANE('',#1333);
#1128=PLANE('',#1334);
#1129=PLANE('',#1341);
#1130=PLANE('',#1342);
#1131=PLANE('',#1349);
#1132=PLANE('',#1350);
#1133=PLANE('',#1357);
#1134=PLANE('',#1358);
#1135=PLANE('',#1365);
#1136=PLANE('',#1366);
#1137=PLANE('',#1373);
#1138=PLANE('',#1374);
#1139=PLANE('',#1381);
#1140=PLANE('',#1382);
#1141=PLANE('',#1403);
#1142=PLANE('',#1404);
#1143=PLANE('',#1405);
#1144=PLANE('',#1406);
#1145=PLANE('',#1417);
#1146=PLANE('',#1420);
#1147=PLANE('',#1423);
#1148=PLANE('',#1426);
#1149=PLANE('',#1427);
#1150=PLANE('',#1428);
#1151=PLANE('',#1429);
#1152=PLANE('',#1430);
#1153=ADVANCED_FACE('',(#949,#950),#1106,.T.);
#1154=ADVANCED_FACE('',(#951),#1107,.T.);
#1155=ADVANCED_FACE('',(#952),#1108,.F.);
#1156=ADVANCED_FACE('',(#953),#1109,.F.);
#1157=ADVANCED_FACE('',(#954),#1110,.T.);
#1158=ADVANCED_FACE('',(#955),#1111,.F.);
#1159=ADVANCED_FACE('',(#956),#1112,.F.);
#1160=ADVANCED_FACE('',(#957),#1113,.T.);
#1161=ADVANCED_FACE('',(#958,#959,#960,#961,#962,#963),#1114,.T.);
#1162=ADVANCED_FACE('',(#964,#965,#966,#967,#968,#969),#1115,.T.);
#1163=ADVANCED_FACE('',(#970,#971),#1116,.F.);
#1164=ADVANCED_FACE('',(#972,#973),#36,.F.);
#1165=ADVANCED_FACE('',(#974,#975),#37,.T.);
#1166=ADVANCED_FACE('',(#976,#977),#1117,.T.);
#1167=ADVANCED_FACE('',(#978),#1118,.T.);
#1168=ADVANCED_FACE('',(#979,#980),#38,.F.);
#1169=ADVANCED_FACE('',(#981,#982),#39,.T.);
#1170=ADVANCED_FACE('',(#983,#984),#1119,.T.);
#1171=ADVANCED_FACE('',(#985),#1120,.T.);
#1172=ADVANCED_FACE('',(#986,#987),#40,.F.);
#1173=ADVANCED_FACE('',(#988,#989),#41,.T.);
#1174=ADVANCED_FACE('',(#990,#991),#1121,.T.);
#1175=ADVANCED_FACE('',(#992),#1122,.T.);
#1176=ADVANCED_FACE('',(#993,#994),#42,.F.);
#1177=ADVANCED_FACE('',(#995,#996),#43,.T.);
#1178=ADVANCED_FACE('',(#997,#998),#1123,.T.);
#1179=ADVANCED_FACE('',(#999),#1124,.T.);
#1180=ADVANCED_FACE('',(#1000,#1001),#44,.F.);
#1181=ADVANCED_FACE('',(#1002,#1003),#45,.T.);
#1182=ADVANCED_FACE('',(#1004,#1005),#1125,.T.);
#1183=ADVANCED_FACE('',(#1006),#1126,.T.);
#1184=ADVANCED_FACE('',(#1007,#1008),#46,.F.);
#1185=ADVANCED_FACE('',(#1009,#1010),#47,.T.);
#1186=ADVANCED_FACE('',(#1011,#1012),#1127,.T.);
#1187=ADVANCED_FACE('',(#1013),#1128,.T.);
#1188=ADVANCED_FACE('',(#1014,#1015),#48,.F.);
#1189=ADVANCED_FACE('',(#1016,#1017),#49,.T.);
#1190=ADVANCED_FACE('',(#1018,#1019),#1129,.T.);
#1191=ADVANCED_FACE('',(#1020),#1130,.T.);
#1192=ADVANCED_FACE('',(#1021,#1022),#50,.F.);
#1193=ADVANCED_FACE('',(#1023,#1024),#51,.T.);
#1194=ADVANCED_FACE('',(#1025,#1026),#1131,.T.);
#1195=ADVANCED_FACE('',(#1027),#1132,.T.);
#1196=ADVANCED_FACE('',(#1028,#1029),#52,.F.);
#1197=ADVANCED_FACE('',(#1030,#1031),#53,.T.);
#1198=ADVANCED_FACE('',(#1032,#1033),#1133,.T.);
#1199=ADVANCED_FACE('',(#1034),#1134,.T.);
#1200=ADVANCED_FACE('',(#1035,#1036),#54,.F.);
#1201=ADVANCED_FACE('',(#1037,#1038),#55,.T.);
#1202=ADVANCED_FACE('',(#1039,#1040),#1135,.T.);
#1203=ADVANCED_FACE('',(#1041),#1136,.T.);
#1204=ADVANCED_FACE('',(#1042,#1043),#56,.F.);
#1205=ADVANCED_FACE('',(#1044,#1045),#57,.T.);
#1206=ADVANCED_FACE('',(#1046,#1047),#1137,.T.);
#1207=ADVANCED_FACE('',(#1048),#1138,.T.);
#1208=ADVANCED_FACE('',(#1049,#1050),#58,.F.);
#1209=ADVANCED_FACE('',(#1051,#1052),#59,.T.);
#1210=ADVANCED_FACE('',(#1053,#1054),#1139,.T.);
#1211=ADVANCED_FACE('',(#1055),#1140,.T.);
#1212=ADVANCED_FACE('',(#1056,#1057),#24,.T.);
#1213=ADVANCED_FACE('',(#1058,#1059),#25,.T.);
#1214=ADVANCED_FACE('',(#1060,#1061),#26,.T.);
#1215=ADVANCED_FACE('',(#1062,#1063),#27,.T.);
#1216=ADVANCED_FACE('',(#1064,#1065),#28,.T.);
#1217=ADVANCED_FACE('',(#1066,#1067),#29,.T.);
#1218=ADVANCED_FACE('',(#1068,#1069),#30,.T.);
#1219=ADVANCED_FACE('',(#1070,#1071),#31,.T.);
#1220=ADVANCED_FACE('',(#1072,#1073),#32,.T.);
#1221=ADVANCED_FACE('',(#1074,#1075),#33,.T.);
#1222=ADVANCED_FACE('',(#1076,#1077),#34,.T.);
#1223=ADVANCED_FACE('',(#1078,#1079),#35,.T.);
#1224=ADVANCED_FACE('',(#1080),#1141,.F.);
#1225=ADVANCED_FACE('',(#1081),#1142,.F.);
#1226=ADVANCED_FACE('',(#1082),#1143,.T.);
#1227=ADVANCED_FACE('',(#1083),#1144,.T.);
#1228=ADVANCED_FACE('',(#1084),#60,.T.);
#1229=ADVANCED_FACE('',(#1085),#61,.T.);
#1230=ADVANCED_FACE('',(#1086),#62,.T.);
#1231=ADVANCED_FACE('',(#1087),#63,.T.);
#1232=ADVANCED_FACE('',(#1088,#1089),#64,.F.);
#1233=ADVANCED_FACE('',(#1090),#1145,.T.);
#1234=ADVANCED_FACE('',(#1091,#1092),#65,.F.);
#1235=ADVANCED_FACE('',(#1093),#1146,.T.);
#1236=ADVANCED_FACE('',(#1094,#1095),#66,.F.);
#1237=ADVANCED_FACE('',(#1096),#1147,.T.);
#1238=ADVANCED_FACE('',(#1097,#1098),#67,.F.);
#1239=ADVANCED_FACE('',(#1099),#1148,.T.);
#1240=ADVANCED_FACE('',(#1100),#1149,.F.);
#1241=ADVANCED_FACE('',(#1101),#1150,.T.);
#1242=ADVANCED_FACE('',(#1102),#1151,.F.);
#1243=ADVANCED_FACE('',(#1103),#1152,.T.);
#1244=ADVANCED_FACE('',(#1104,#1105),#68,.F.);
#1245=CLOSED_SHELL('',(#1153,#1154,#1155,#1156,#1157,#1158,#1159,#1160,
#1161,#1162,#1163,#1164,#1165,#1166,#1167,#1168,#1169,#1170,#1171,#1172,
#1173,#1174,#1175,#1176,#1177,#1178,#1179,#1180,#1181,#1182,#1183,#1184,
#1185,#1186,#1187,#1188,#1189,#1190,#1191,#1192,#1193,#1194,#1195,#1196,
#1197,#1198,#1199,#1200,#1201,#1202,#1203,#1204,#1205,#1206,#1207,#1208,
#1209,#1210,#1211,#1212,#1213,#1214,#1215,#1216,#1217,#1218,#1219,#1220,
#1221,#1222,#1223,#1224,#1225,#1226,#1227,#1228,#1229,#1230,#1231,#1232,
#1233,#1234,#1235,#1236,#1237,#1238,#1239,#1240,#1241,#1242,#1243,#1244));
#1246=STYLED_ITEM('',(#1247),#1254);
#1247=PRESENTATION_STYLE_ASSIGNMENT((#1248));
#1248=SURFACE_STYLE_USAGE(.BOTH.,#1249);
#1249=SURFACE_SIDE_STYLE('',(#1250));
#1250=SURFACE_STYLE_FILL_AREA(#1251);
#1251=FILL_AREA_STYLE('',(#1252));
#1252=FILL_AREA_STYLE_COLOUR('',#1253);
#1253=COLOUR_RGB('',0.615686274509804,0.811764705882353,0.929411764705882);
#1254=MANIFOLD_SOLID_BREP('Part 1',#1245);
#1255=SHAPE_DEFINITION_REPRESENTATION(#2193,#1256);
#1256=SHAPE_REPRESENTATION('Part 1',(#1257),#2188);
#1257=AXIS2_PLACEMENT_3D('',#1841,#1432,#1433);
#1258=AXIS2_PLACEMENT_3D('',#1842,#1434,#1435);
#1259=AXIS2_PLACEMENT_3D('',#1859,#1444,#1445);
#1260=AXIS2_PLACEMENT_3D('',#1868,#1450,#1451);
#1261=AXIS2_PLACEMENT_3D('',#1874,#1455,#1456);
#1262=AXIS2_PLACEMENT_3D('',#1880,#1460,#1461);
#1263=AXIS2_PLACEMENT_3D('',#1886,#1465,#1466);
#1264=AXIS2_PLACEMENT_3D('',#1892,#1470,#1471);
#1265=AXIS2_PLACEMENT_3D('',#1895,#1474,#1475);
#1266=AXIS2_PLACEMENT_3D('',#1906,#1482,#1483);
#1267=AXIS2_PLACEMENT_3D('',#1907,#1484,#1485);
#1268=AXIS2_PLACEMENT_3D('',#1909,#1486,#1487);
#1269=AXIS2_PLACEMENT_3D('',#1911,#1488,#1489);
#1270=AXIS2_PLACEMENT_3D('',#1913,#1490,#1491);
#1271=AXIS2_PLACEMENT_3D('',#1915,#1492,#1493);
#1272=AXIS2_PLACEMENT_3D('',#1916,#1494,#1495);
#1273=AXIS2_PLACEMENT_3D('',#1918,#1496,#1497);
#1274=AXIS2_PLACEMENT_3D('',#1923,#1499,#1500);
#1275=AXIS2_PLACEMENT_3D('',#1929,#1503,#1504);
#1276=AXIS2_PLACEMENT_3D('',#1933,#1506,#1507);
#1277=AXIS2_PLACEMENT_3D('',#1939,#1510,#1511);
#1278=AXIS2_PLACEMENT_3D('',#1943,#1513,#1514);
#1279=AXIS2_PLACEMENT_3D('',#1949,#1517,#1518);
#1280=AXIS2_PLACEMENT_3D('',#1953,#1520,#1521);
#1281=AXIS2_PLACEMENT_3D('',#1958,#1524,#1525);
#1282=AXIS2_PLACEMENT_3D('',#1960,#1526,#1527);
#1283=AXIS2_PLACEMENT_3D('',#1962,#1528,#1529);
#1284=AXIS2_PLACEMENT_3D('',#1964,#1530,#1531);
#1285=AXIS2_PLACEMENT_3D('',#1966,#1532,#1533);
#1286=AXIS2_PLACEMENT_3D('',#1967,#1534,#1535);
#1287=AXIS2_PLACEMENT_3D('',#1977,#1540,#1541);
#1288=AXIS2_PLACEMENT_3D('',#1978,#1542,#1543);
#1289=AXIS2_PLACEMENT_3D('',#1980,#1544,#1545);
#1290=AXIS2_PLACEMENT_3D('',#1982,#1546,#1547);
#1291=AXIS2_PLACEMENT_3D('',#1983,#1548,#1549);
#1292=AXIS2_PLACEMENT_3D('',#1985,#1550,#1551);
#1293=AXIS2_PLACEMENT_3D('',#1987,#1552,#1553);
#1294=AXIS2_PLACEMENT_3D('',#1988,#1554,#1555);
#1295=AXIS2_PLACEMENT_3D('',#1989,#1556,#1557);
#1296=AXIS2_PLACEMENT_3D('',#1990,#1558,#1559);
#1297=AXIS2_PLACEMENT_3D('',#1992,#1560,#1561);
#1298=AXIS2_PLACEMENT_3D('',#1994,#1562,#1563);
#1299=AXIS2_PLACEMENT_3D('',#1995,#1564,#1565);
#1300=AXIS2_PLACEMENT_3D('',#1997,#1566,#1567);
#1301=AXIS2_PLACEMENT_3D('',#1999,#1568,#1569);
#1302=AXIS2_PLACEMENT_3D('',#2000,#1570,#1571);
#1303=AXIS2_PLACEMENT_3D('',#2001,#1572,#1573);
#1304=AXIS2_PLACEMENT_3D('',#2002,#1574,#1575);
#1305=AXIS2_PLACEMENT_3D('',#2004,#1576,#1577);
#1306=AXIS2_PLACEMENT_3D('',#2006,#1578,#1579);
#1307=AXIS2_PLACEMENT_3D('',#2007,#1580,#1581);
#1308=AXIS2_PLACEMENT_3D('',#2009,#1582,#1583);
#1309=AXIS2_PLACEMENT_3D('',#2011,#1584,#1585);
#1310=AXIS2_PLACEMENT_3D('',#2012,#1586,#1587);
#1311=AXIS2_PLACEMENT_3D('',#2013,#1588,#1589);
#1312=AXIS2_PLACEMENT_3D('',#2014,#1590,#1591);
#1313=AXIS2_PLACEMENT_3D('',#2016,#1592,#1593);
#1314=AXIS2_PLACEMENT_3D('',#2018,#1594,#1595);
#1315=AXIS2_PLACEMENT_3D('',#2019,#1596,#1597);
#1316=AXIS2_PLACEMENT_3D('',#2021,#1598,#1599);
#1317=AXIS2_PLACEMENT_3D('',#2023,#1600,#1601);
#1318=AXIS2_PLACEMENT_3D('',#2024,#1602,#1603);
#1319=AXIS2_PLACEMENT_3D('',#2025,#1604,#1605);
#1320=AXIS2_PLACEMENT_3D('',#2026,#1606,#1607);
#1321=AXIS2_PLACEMENT_3D('',#2028,#1608,#1609);
#1322=AXIS2_PLACEMENT_3D('',#2030,#1610,#1611);
#1323=AXIS2_PLACEMENT_3D('',#2031,#1612,#1613);
#1324=AXIS2_PLACEMENT_3D('',#2033,#1614,#1615);
#1325=AXIS2_PLACEMENT_3D('',#2035,#1616,#1617);
#1326=AXIS2_PLACEMENT_3D('',#2036,#1618,#1619);
#1327=AXIS2_PLACEMENT_3D('',#2037,#1620,#1621);
#1328=AXIS2_PLACEMENT_3D('',#2038,#1622,#1623);
#1329=AXIS2_PLACEMENT_3D('',#2040,#1624,#1625);
#1330=AXIS2_PLACEMENT_3D('',#2042,#1626,#1627);
#1331=AXIS2_PLACEMENT_3D('',#2043,#1628,#1629);
#1332=AXIS2_PLACEMENT_3D('',#2045,#1630,#1631);
#1333=AXIS2_PLACEMENT_3D('',#2047,#1632,#1633);
#1334=AXIS2_PLACEMENT_3D('',#2048,#1634,#1635);
#1335=AXIS2_PLACEMENT_3D('',#2049,#1636,#1637);
#1336=AXIS2_PLACEMENT_3D('',#2050,#1638,#1639);
#1337=AXIS2_PLACEMENT_3D('',#2052,#1640,#1641);
#1338=AXIS2_PLACEMENT_3D('',#2054,#1642,#1643);
#1339=AXIS2_PLACEMENT_3D('',#2055,#1644,#1645);
#1340=AXIS2_PLACEMENT_3D('',#2057,#1646,#1647);
#1341=AXIS2_PLACEMENT_3D('',#2059,#1648,#1649);
#1342=AXIS2_PLACEMENT_3D('',#2060,#1650,#1651);
#1343=AXIS2_PLACEMENT_3D('',#2061,#1652,#1653);
#1344=AXIS2_PLACEMENT_3D('',#2062,#1654,#1655);
#1345=AXIS2_PLACEMENT_3D('',#2064,#1656,#1657);
#1346=AXIS2_PLACEMENT_3D('',#2066,#1658,#1659);
#1347=AXIS2_PLACEMENT_3D('',#2067,#1660,#1661);
#1348=AXIS2_PLACEMENT_3D('',#2069,#1662,#1663);
#1349=AXIS2_PLACEMENT_3D('',#2071,#1664,#1665);
#1350=AXIS2_PLACEMENT_3D('',#2072,#1666,#1667);
#1351=AXIS2_PLACEMENT_3D('',#2073,#1668,#1669);
#1352=AXIS2_PLACEMENT_3D('',#2074,#1670,#1671);
#1353=AXIS2_PLACEMENT_3D('',#2076,#1672,#1673);
#1354=AXIS2_PLACEMENT_3D('',#2078,#1674,#1675);
#1355=AXIS2_PLACEMENT_3D('',#2079,#1676,#1677);
#1356=AXIS2_PLACEMENT_3D('',#2081,#1678,#1679);
#1357=AXIS2_PLACEMENT_3D('',#2083,#1680,#1681);
#1358=AXIS2_PLACEMENT_3D('',#2084,#1682,#1683);
#1359=AXIS2_PLACEMENT_3D('',#2085,#1684,#1685);
#1360=AXIS2_PLACEMENT_3D('',#2086,#1686,#1687);
#1361=AXIS2_PLACEMENT_3D('',#2088,#1688,#1689);
#1362=AXIS2_PLACEMENT_3D('',#2090,#1690,#1691);
#1363=AXIS2_PLACEMENT_3D('',#2091,#1692,#1693);
#1364=AXIS2_PLACEMENT_3D('',#2093,#1694,#1695);
#1365=AXIS2_PLACEMENT_3D('',#2095,#1696,#1697);
#1366=AXIS2_PLACEMENT_3D('',#2096,#1698,#1699);
#1367=AXIS2_PLACEMENT_3D('',#2097,#1700,#1701);
#1368=AXIS2_PLACEMENT_3D('',#2098,#1702,#1703);
#1369=AXIS2_PLACEMENT_3D('',#2100,#1704,#1705);
#1370=AXIS2_PLACEMENT_3D('',#2102,#1706,#1707);
#1371=AXIS2_PLACEMENT_3D('',#2103,#1708,#1709);
#1372=AXIS2_PLACEMENT_3D('',#2105,#1710,#1711);
#1373=AXIS2_PLACEMENT_3D('',#2107,#1712,#1713);
#1374=AXIS2_PLACEMENT_3D('',#2108,#1714,#1715);
#1375=AXIS2_PLACEMENT_3D('',#2109,#1716,#1717);
#1376=AXIS2_PLACEMENT_3D('',#2110,#1718,#1719);
#1377=AXIS2_PLACEMENT_3D('',#2112,#1720,#1721);
#1378=AXIS2_PLACEMENT_3D('',#2114,#1722,#1723);
#1379=AXIS2_PLACEMENT_3D('',#2115,#1724,#1725);
#1380=AXIS2_PLACEMENT_3D('',#2117,#1726,#1727);
#1381=AXIS2_PLACEMENT_3D('',#2119,#1728,#1729);
#1382=AXIS2_PLACEMENT_3D('',#2120,#1730,#1731);
#1383=AXIS2_PLACEMENT_3D('',#2121,#1732,#1733);
#1384=AXIS2_PLACEMENT_3D('',#2122,#1734,#1735);
#1385=AXIS2_PLACEMENT_3D('',#2123,#1736,#1737);
#1386=AXIS2_PLACEMENT_3D('',#2124,#1738,#1739);
#1387=AXIS2_PLACEMENT_3D('',#2125,#1740,#1741);
#1388=AXIS2_PLACEMENT_3D('',#2126,#1742,#1743);
#1389=AXIS2_PLACEMENT_3D('',#2127,#1744,#1745);
#1390=AXIS2_PLACEMENT_3D('',#2128,#1746,#1747);
#1391=AXIS2_PLACEMENT_3D('',#2129,#1748,#1749);
#1392=AXIS2_PLACEMENT_3D('',#2130,#1750,#1751);
#1393=AXIS2_PLACEMENT_3D('',#2131,#1752,#1753);
#1394=AXIS2_PLACEMENT_3D('',#2132,#1754,#1755);
#1395=AXIS2_PLACEMENT_3D('',#2133,#1756,#1757);
#1396=AXIS2_PLACEMENT_3D('',#2134,#1758,#1759);
#1397=AXIS2_PLACEMENT_3D('',#2135,#1760,#1761);
#1398=AXIS2_PLACEMENT_3D('',#2136,#1762,#1763);
#1399=AXIS2_PLACEMENT_3D('',#2137,#1764,#1765);
#1400=AXIS2_PLACEMENT_3D('',#2138,#1766,#1767);
#1401=AXIS2_PLACEMENT_3D('',#2139,#1768,#1769);
#1402=AXIS2_PLACEMENT_3D('',#2140,#1770,#1771);
#1403=AXIS2_PLACEMENT_3D('',#2141,#1772,#1773);
#1404=AXIS2_PLACEMENT_3D('',#2144,#1776,#1777);
#1405=AXIS2_PLACEMENT_3D('',#2146,#1779,#1780);
#1406=AXIS2_PLACEMENT_3D('',#2148,#1782,#1783);
#1407=AXIS2_PLACEMENT_3D('',#2154,#1787,#1788);
#1408=AXIS2_PLACEMENT_3D('',#2155,#1789,#1790);
#1409=AXIS2_PLACEMENT_3D('',#2156,#1791,#1792);
#1410=AXIS2_PLACEMENT_3D('',#2157,#1793,#1794);
#1411=AXIS2_PLACEMENT_3D('',#2158,#1795,#1796);
#1412=AXIS2_PLACEMENT_3D('',#2159,#1797,#1798);
#1413=AXIS2_PLACEMENT_3D('',#2160,#1799,#1800);
#1414=AXIS2_PLACEMENT_3D('',#2161,#1801,#1802);
#1415=AXIS2_PLACEMENT_3D('',#2162,#1803,#1804);
#1416=AXIS2_PLACEMENT_3D('',#2163,#1805,#1806);
#1417=AXIS2_PLACEMENT_3D('',#2165,#1807,#1808);
#1418=AXIS2_PLACEMENT_3D('',#2166,#1809,#1810);
#1419=AXIS2_PLACEMENT_3D('',#2167,#1811,#1812);
#1420=AXIS2_PLACEMENT_3D('',#2169,#1813,#1814);
#1421=AXIS2_PLACEMENT_3D('',#2170,#1815,#1816);
#1422=AXIS2_PLACEMENT_3D('',#2171,#1817,#1818);
#1423=AXIS2_PLACEMENT_3D('',#2173,#1819,#1820);
#1424=AXIS2_PLACEMENT_3D('',#2174,#1821,#1822);
#1425=AXIS2_PLACEMENT_3D('',#2175,#1823,#1824);
#1426=AXIS2_PLACEMENT_3D('',#2177,#1825,#1826);
#1427=AXIS2_PLACEMENT_3D('',#2178,#1827,#1828);
#1428=AXIS2_PLACEMENT_3D('',#2181,#1831,#1832);
#1429=AXIS2_PLACEMENT_3D('',#2184,#1835,#1836);
#1430=AXIS2_PLACEMENT_3D('',#2185,#1837,#1838);
#1431=AXIS2_PLACEMENT_3D('',#2186,#1839,#1840);
#1432=DIRECTION('',(0.,0.,1.));
#1433=DIRECTION('',(1.,0.,0.));
#1434=DIRECTION('',(1.,0.,0.));
#1435=DIRECTION('',(0.,0.,-1.));
#1436=DIRECTION('',(0.,1.,0.));
#1437=DIRECTION('',(0.,0.,-1.));
#1438=DIRECTION('',(0.,1.,0.));
#1439=DIRECTION('',(0.,0.,-1.));
#1440=DIRECTION('',(0.,1.,0.));
#1441=DIRECTION('',(0.,0.,1.));
#1442=DIRECTION('',(0.,1.,0.));
#1443=DIRECTION('',(0.,0.,1.));
#1444=DIRECTION('',(0.,0.,1.));
#1445=DIRECTION('',(1.,0.,0.));
#1446=DIRECTION('',(0.,1.,0.));
#1447=DIRECTION('',(-1.,0.,0.));
#1448=DIRECTION('',(0.,1.,0.));
#1449=DIRECTION('',(1.,0.,0.));
#1450=DIRECTION('',(-1.,0.,0.));
#1451=DIRECTION('',(0.,0.,1.));
#1452=DIRECTION('',(0.,0.,1.));
#1453=DIRECTION('',(0.,1.,0.));
#1454=DIRECTION('',(0.,0.,1.));
#1455=DIRECTION('',(0.,0.,1.));
#1456=DIRECTION('',(1.,0.,0.));
#1457=DIRECTION('',(1.,0.,0.));
#1458=DIRECTION('',(0.,1.,0.));
#1459=DIRECTION('',(1.,0.,0.));
#1460=DIRECTION('',(0.,0.,1.));
#1461=DIRECTION('',(1.,0.,0.));
#1462=DIRECTION('',(1.,0.,0.));
#1463=DIRECTION('',(0.,1.,0.));
#1464=DIRECTION('',(1.,0.,0.));
#1465=DIRECTION('',(1.,0.,0.));
#1466=DIRECTION('',(0.,0.,-1.));
#1467=DIRECTION('',(0.,0.,-1.));
#1468=DIRECTION('',(0.,1.,0.));
#1469=DIRECTION('',(0.,0.,-1.));
#1470=DIRECTION('',(0.,0.,1.));
#1471=DIRECTION('',(1.,0.,0.));
#1472=DIRECTION('',(1.,0.,0.));
#1473=DIRECTION('',(1.,0.,0.));
#1474=DIRECTION('',(-1.,0.,0.));
#1475=DIRECTION('',(0.,0.,1.));
#1476=DIRECTION('',(0.,-1.,0.));
#1477=DIRECTION('',(0.,0.,-1.));
#1478=DIRECTION('',(0.,0.,1.));
#1479=DIRECTION('',(0.,0.,-1.));
#1480=DIRECTION('',(0.,-1.,0.));
#1481=DIRECTION('',(0.,0.,-1.));
#1482=DIRECTION('',(0.,-1.,0.));
#1483=DIRECTION('',(1.,0.,0.));
#1484=DIRECTION('',(0.,-1.,0.));
#1485=DIRECTION('',(0.,0.,-1.));
#1486=DIRECTION('',(0.,-1.,0.));
#1487=DIRECTION('',(0.,0.,-1.));
#1488=DIRECTION('',(0.,-1.,0.));
#1489=DIRECTION('',(0.,0.,-1.));
#1490=DIRECTION('',(0.,-1.,0.));
#1491=DIRECTION('',(0.,0.,-1.));
#1492=DIRECTION('',(0.,-1.,0.));
#1493=DIRECTION('',(1.,0.,0.));
#1494=DIRECTION('',(0.,-1.,0.));
#1495=DIRECTION('',(0.,0.,-1.));
#1496=DIRECTION('',(0.,-1.,0.));
#1497=DIRECTION('',(0.,0.,-1.));
#1498=DIRECTION('',(0.,0.,1.));
#1499=DIRECTION('',(0.,-1.,0.));
#1500=DIRECTION('',(0.,0.,-1.));
#1501=DIRECTION('',(0.,0.,1.));
#1502=DIRECTION('',(-1.,0.,0.));
#1503=DIRECTION('',(0.,-1.,0.));
#1504=DIRECTION('',(0.,0.,-1.));
#1505=DIRECTION('',(-1.,0.,0.));
#1506=DIRECTION('',(0.,-1.,0.));
#1507=DIRECTION('',(0.,0.,-1.));
#1508=DIRECTION('',(-1.,0.,0.));
#1509=DIRECTION('',(0.,0.,-1.));
#1510=DIRECTION('',(0.,-1.,0.));
#1511=DIRECTION('',(0.,0.,-1.));
#1512=DIRECTION('',(0.,0.,-1.));
#1513=DIRECTION('',(0.,-1.,0.));
#1514=DIRECTION('',(0.,0.,-1.));
#1515=DIRECTION('',(0.,0.,-1.));
#1516=DIRECTION('',(1.,0.,0.));
#1517=DIRECTION('',(0.,-1.,0.));
#1518=DIRECTION('',(0.,0.,-1.));
#1519=DIRECTION('',(1.,0.,0.));
#1520=DIRECTION('',(0.,-1.,0.));
#1521=DIRECTION('',(0.,0.,-1.));
#1522=DIRECTION('',(1.,0.,0.));
#1523=DIRECTION('',(0.,0.,1.));
#1524=DIRECTION('',(0.,-1.,0.));
#1525=DIRECTION('',(0.,0.,-1.));
#1526=DIRECTION('',(0.,-1.,0.));
#1527=DIRECTION('',(0.,0.,-1.));
#1528=DIRECTION('',(0.,-1.,0.));
#1529=DIRECTION('',(0.,0.,-1.));
#1530=DIRECTION('',(0.,-1.,0.));
#1531=DIRECTION('',(0.,0.,-1.));
#1532=DIRECTION('',(0.,-1.,0.));
#1533=DIRECTION('',(1.,0.,0.));
#1534=DIRECTION('',(0.,1.,0.));
#1535=DIRECTION('',(0.,0.,1.));
#1536=DIRECTION('',(0.,0.,-1.));
#1537=DIRECTION('',(1.,0.,0.));
#1538=DIRECTION('',(0.,0.,-1.));
#1539=DIRECTION('',(1.,0.,0.));
#1540=DIRECTION('',(0.,1.,0.));
#1541=DIRECTION('',(0.,0.,1.));
#1542=DIRECTION('',(0.,-1.,0.));
#1543=DIRECTION('',(0.,0.,-1.));
#1544=DIRECTION('',(0.,-1.,0.));
#1545=DIRECTION('',(0.,0.,-1.));
#1546=DIRECTION('',(0.,1.,0.));
#1547=DIRECTION('',(0.,0.,1.));
#1548=DIRECTION('',(0.,-1.,0.));
#1549=DIRECTION('',(0.,0.,-1.));
#1550=DIRECTION('',(0.,-1.,0.));
#1551=DIRECTION('',(0.,0.,-1.));
#1552=DIRECTION('',(0.,-1.,0.));
#1553=DIRECTION('',(1.,0.,0.));
#1554=DIRECTION('',(0.,-1.,0.));
#1555=DIRECTION('',(1.,0.,0.));
#1556=DIRECTION('',(0.,1.,0.));
#1557=DIRECTION('',(0.,0.,1.));
#1558=DIRECTION('',(0.,-1.,0.));
#1559=DIRECTION('',(0.,0.,-1.));
#1560=DIRECTION('',(0.,-1.,0.));
#1561=DIRECTION('',(0.,0.,-1.));
#1562=DIRECTION('',(0.,1.,0.));
#1563=DIRECTION('',(0.,0.,1.));
#1564=DIRECTION('',(0.,-1.,0.));
#1565=DIRECTION('',(0.,0.,-1.));
#1566=DIRECTION('',(0.,-1.,0.));
#1567=DIRECTION('',(0.,0.,-1.));
#1568=DIRECTION('',(0.,-1.,0.));
#1569=DIRECTION('',(1.,0.,0.));
#1570=DIRECTION('',(0.,-1.,0.));
#1571=DIRECTION('',(1.,0.,0.));
#1572=DIRECTION('',(0.,1.,0.));
#1573=DIRECTION('',(0.,0.,1.));
#1574=DIRECTION('',(0.,-1.,0.));
#1575=DIRECTION('',(0.,0.,-1.));
#1576=DIRECTION('',(0.,-1.,0.));
#1577=DIRECTION('',(0.,0.,-1.));
#1578=DIRECTION('',(0.,1.,0.));
#1579=DIRECTION('',(0.,0.,1.));
#1580=DIRECTION('',(0.,-1.,0.));
#1581=DIRECTION('',(0.,0.,-1.));
#1582=DIRECTION('',(0.,-1.,0.));
#1583=DIRECTION('',(0.,0.,-1.));
#1584=DIRECTION('',(0.,-1.,0.));
#1585=DIRECTION('',(1.,0.,0.));
#1586=DIRECTION('',(0.,-1.,0.));
#1587=DIRECTION('',(1.,0.,0.));
#1588=DIRECTION('',(0.,1.,0.));
#1589=DIRECTION('',(0.,0.,1.));
#1590=DIRECTION('',(0.,-1.,0.));
#1591=DIRECTION('',(0.,0.,-1.));
#1592=DIRECTION('',(0.,-1.,0.));
#1593=DIRECTION('',(0.,0.,-1.));
#1594=DIRECTION('',(0.,1.,0.));
#1595=DIRECTION('',(0.,0.,1.));
#1596=DIRECTION('',(0.,-1.,0.));
#1597=DIRECTION('',(0.,0.,-1.));
#1598=DIRECTION('',(0.,-1.,0.));
#1599=DIRECTION('',(0.,0.,-1.));
#1600=DIRECTION('',(0.,-1.,0.));
#1601=DIRECTION('',(1.,0.,0.));
#1602=DIRECTION('',(0.,-1.,0.));
#1603=DIRECTION('',(1.,0.,0.));
#1604=DIRECTION('',(0.,1.,0.));
#1605=DIRECTION('',(0.,0.,1.));
#1606=DIRECTION('',(0.,-1.,0.));
#1607=DIRECTION('',(0.,0.,-1.));
#1608=DIRECTION('',(0.,-1.,0.));
#1609=DIRECTION('',(0.,0.,-1.));
#1610=DIRECTION('',(0.,1.,0.));
#1611=DIRECTION('',(0.,0.,1.));
#1612=DIRECTION('',(0.,-1.,0.));
#1613=DIRECTION('',(0.,0.,-1.));
#1614=DIRECTION('',(0.,-1.,0.));
#1615=DIRECTION('',(0.,0.,-1.));
#1616=DIRECTION('',(0.,-1.,0.));
#1617=DIRECTION('',(1.,0.,0.));
#1618=DIRECTION('',(0.,-1.,0.));
#1619=DIRECTION('',(1.,0.,0.));
#1620=DIRECTION('',(0.,1.,0.));
#1621=DIRECTION('',(0.,0.,1.));
#1622=DIRECTION('',(0.,-1.,0.));
#1623=DIRECTION('',(0.,0.,-1.));
#1624=DIRECTION('',(0.,-1.,0.));
#1625=DIRECTION('',(0.,0.,-1.));
#1626=DIRECTION('',(0.,1.,0.));
#1627=DIRECTION('',(0.,0.,1.));
#1628=DIRECTION('',(0.,-1.,0.));
#1629=DIRECTION('',(0.,0.,-1.));
#1630=DIRECTION('',(0.,-1.,0.));
#1631=DIRECTION('',(0.,0.,-1.));
#1632=DIRECTION('',(0.,-1.,0.));
#1633=DIRECTION('',(1.,0.,0.));
#1634=DIRECTION('',(0.,-1.,0.));
#1635=DIRECTION('',(1.,0.,0.));
#1636=DIRECTION('',(0.,1.,0.));
#1637=DIRECTION('',(0.,0.,1.));
#1638=DIRECTION('',(0.,-1.,0.));
#1639=DIRECTION('',(0.,0.,-1.));
#1640=DIRECTION('',(0.,-1.,0.));
#1641=DIRECTION('',(0.,0.,-1.));
#1642=DIRECTION('',(0.,1.,0.));
#1643=DIRECTION('',(0.,0.,1.));
#1644=DIRECTION('',(0.,-1.,0.));
#1645=DIRECTION('',(0.,0.,-1.));
#1646=DIRECTION('',(0.,-1.,0.));
#1647=DIRECTION('',(0.,0.,-1.));
#1648=DIRECTION('',(0.,-1.,0.));
#1649=DIRECTION('',(1.,0.,0.));
#1650=DIRECTION('',(0.,-1.,0.));
#1651=DIRECTION('',(1.,0.,0.));
#1652=DIRECTION('',(0.,1.,0.));
#1653=DIRECTION('',(0.,0.,1.));
#1654=DIRECTION('',(0.,-1.,0.));
#1655=DIRECTION('',(0.,0.,-1.));
#1656=DIRECTION('',(0.,-1.,0.));
#1657=DIRECTION('',(0.,0.,-1.));
#1658=DIRECTION('',(0.,1.,0.));
#1659=DIRECTION('',(0.,0.,1.));
#1660=DIRECTION('',(0.,-1.,0.));
#1661=DIRECTION('',(0.,0.,-1.));
#1662=DIRECTION('',(0.,-1.,0.));
#1663=DIRECTION('',(0.,0.,-1.));
#1664=DIRECTION('',(0.,-1.,0.));
#1665=DIRECTION('',(1.,0.,0.));
#1666=DIRECTION('',(0.,-1.,0.));
#1667=DIRECTION('',(1.,0.,0.));
#1668=DIRECTION('',(0.,1.,0.));
#1669=DIRECTION('',(0.,0.,1.));
#1670=DIRECTION('',(0.,-1.,0.));
#1671=DIRECTION('',(0.,0.,-1.));
#1672=DIRECTION('',(0.,-1.,0.));
#1673=DIRECTION('',(0.,0.,-1.));
#1674=DIRECTION('',(0.,1.,0.));
#1675=DIRECTION('',(0.,0.,1.));
#1676=DIRECTION('',(0.,-1.,0.));
#1677=DIRECTION('',(0.,0.,-1.));
#1678=DIRECTION('',(0.,-1.,0.));
#1679=DIRECTION('',(0.,0.,-1.));
#1680=DIRECTION('',(0.,-1.,0.));
#1681=DIRECTION('',(1.,0.,0.));
#1682=DIRECTION('',(0.,-1.,0.));
#1683=DIRECTION('',(1.,0.,0.));
#1684=DIRECTION('',(0.,1.,0.));
#1685=DIRECTION('',(0.,0.,1.));
#1686=DIRECTION('',(0.,-1.,0.));
#1687=DIRECTION('',(0.,0.,-1.));
#1688=DIRECTION('',(0.,-1.,0.));
#1689=DIRECTION('',(0.,0.,-1.));
#1690=DIRECTION('',(0.,1.,0.));
#1691=DIRECTION('',(0.,0.,1.));
#1692=DIRECTION('',(0.,-1.,0.));
#1693=DIRECTION('',(0.,0.,-1.));
#1694=DIRECTION('',(0.,-1.,0.));
#1695=DIRECTION('',(0.,0.,-1.));
#1696=DIRECTION('',(0.,-1.,0.));
#1697=DIRECTION('',(1.,0.,0.));
#1698=DIRECTION('',(0.,-1.,0.));
#1699=DIRECTION('',(1.,0.,0.));
#1700=DIRECTION('',(0.,1.,0.));
#1701=DIRECTION('',(0.,0.,1.));
#1702=DIRECTION('',(0.,-1.,0.));
#1703=DIRECTION('',(0.,0.,-1.));
#1704=DIRECTION('',(0.,-1.,0.));
#1705=DIRECTION('',(0.,0.,-1.));
#1706=DIRECTION('',(0.,1.,0.));
#1707=DIRECTION('',(0.,0.,1.));
#1708=DIRECTION('',(0.,-1.,0.));
#1709=DIRECTION('',(0.,0.,-1.));
#1710=DIRECTION('',(0.,-1.,0.));
#1711=DIRECTION('',(0.,0.,-1.));
#1712=DIRECTION('',(0.,-1.,0.));
#1713=DIRECTION('',(1.,0.,0.));
#1714=DIRECTION('',(0.,-1.,0.));
#1715=DIRECTION('',(1.,0.,0.));
#1716=DIRECTION('',(0.,1.,0.));
#1717=DIRECTION('',(0.,0.,1.));
#1718=DIRECTION('',(0.,-1.,0.));
#1719=DIRECTION('',(0.,0.,-1.));
#1720=DIRECTION('',(0.,-1.,0.));
#1721=DIRECTION('',(0.,0.,-1.));
#1722=DIRECTION('',(0.,1.,0.));
#1723=DIRECTION('',(0.,0.,1.));
#1724=DIRECTION('',(0.,-1.,0.));
#1725=DIRECTION('',(0.,0.,-1.));
#1726=DIRECTION('',(0.,-1.,0.));
#1727=DIRECTION('',(0.,0.,-1.));
#1728=DIRECTION('',(0.,-1.,0.));
#1729=DIRECTION('',(1.,0.,0.));
#1730=DIRECTION('',(0.,-1.,0.));
#1731=DIRECTION('',(1.,0.,0.));
#1732=DIRECTION('',(0.,1.,0.));
#1733=DIRECTION('',(0.,0.,1.));
#1734=DIRECTION('',(0.,-0.371390676354104,0.928476690885259));
#1735=DIRECTION('',(0.,0.928476690885259,0.371390676354104));
#1736=DIRECTION('',(0.,1.,0.));
#1737=DIRECTION('',(0.,0.,1.));
#1738=DIRECTION('',(0.,-0.371390676354104,0.928476690885259));
#1739=DIRECTION('',(0.,0.928476690885259,0.371390676354104));
#1740=DIRECTION('',(0.,1.,0.));
#1741=DIRECTION('',(0.,0.,1.));
#1742=DIRECTION('',(0.,1.,0.));
#1743=DIRECTION('',(0.,0.,1.));
#1744=DIRECTION('',(0.,1.,0.));
#1745=DIRECTION('',(0.,0.,1.));
#1746=DIRECTION('',(0.,0.371390676354103,0.92847669088526));
#1747=DIRECTION('',(0.,0.92847669088526,-0.371390676354103));
#1748=DIRECTION('',(0.,1.,0.));
#1749=DIRECTION('',(0.,0.,1.));
#1750=DIRECTION('',(0.,0.371390676354103,0.92847669088526));
#1751=DIRECTION('',(0.,0.92847669088526,-0.371390676354103));
#1752=DIRECTION('',(0.,1.,0.));
#1753=DIRECTION('',(0.,0.,1.));
#1754=DIRECTION('',(0.,1.,0.));
#1755=DIRECTION('',(0.,0.,1.));
#1756=DIRECTION('',(0.,1.,0.));
#1757=DIRECTION('',(0.,0.,1.));
#1758=DIRECTION('',(-0.928476690885259,-0.371390676354103,0.));
#1759=DIRECTION('',(-0.371390676354103,0.928476690885259,0.));
#1760=DIRECTION('',(0.,1.,0.));
#1761=DIRECTION('',(0.,0.,1.));
#1762=DIRECTION('',(-0.928476690885259,-0.371390676354103,0.));
#1763=DIRECTION('',(-0.371390676354103,0.928476690885259,0.));
#1764=DIRECTION('',(0.,1.,0.));
#1765=DIRECTION('',(0.,0.,1.));
#1766=DIRECTION('',(-0.928476690885259,0.371390676354103,0.));
#1767=DIRECTION('',(0.371390676354103,0.928476690885259,0.));
#1768=DIRECTION('',(0.,1.,0.));
#1769=DIRECTION('',(0.,0.,1.));
#1770=DIRECTION('',(-0.928476690885259,0.371390676354103,0.));
#1771=DIRECTION('',(0.371390676354103,0.928476690885259,0.));
#1772=DIRECTION('',(-0.928476690885259,0.371390676354103,0.));
#1773=DIRECTION('',(0.,0.,1.));
#1774=DIRECTION('',(-0.348155311911396,-0.870388279778489,0.348155311911395));
#1775=DIRECTION('',(-0.348155311911396,-0.870388279778489,-0.348155311911396));
#1776=DIRECTION('',(0.,0.371390676354103,0.92847669088526));
#1777=DIRECTION('',(1.,0.,0.));
#1778=DIRECTION('',(-0.348155311911396,0.870388279778489,-0.348155311911395));
#1779=DIRECTION('',(0.,-0.371390676354104,0.928476690885259));
#1780=DIRECTION('',(-1.,0.,0.));
#1781=DIRECTION('',(-0.348155311911396,0.870388279778489,0.348155311911396));
#1782=DIRECTION('',(-0.928476690885259,-0.371390676354103,0.));
#1783=DIRECTION('',(0.,0.,-1.));
#1784=DIRECTION('',(0.371390676354103,-0.92847669088526,0.));
#1785=DIRECTION('',(0.,0.,-1.));
#1786=DIRECTION('',(0.371390676354103,-0.92847669088526,0.));
#1787=DIRECTION('',(1.,0.,0.));
#1788=DIRECTION('',(0.,0.,-1.));
#1789=DIRECTION('',(0.707106781186548,0.,0.707106781186548));
#1790=DIRECTION('',(-0.707106781186548,0.,0.707106781186548));
#1791=DIRECTION('',(0.707106781186548,0.,-0.707106781186548));
#1792=DIRECTION('',(0.707106781186548,0.,0.707106781186548));
#1793=DIRECTION('',(0.,0.,-1.));
#1794=DIRECTION('',(-1.,0.,0.));
#1795=DIRECTION('',(-0.707106781186548,0.,-0.707106781186548));
#1796=DIRECTION('',(0.707106781186548,0.,-0.707106781186548));
#1797=DIRECTION('',(0.,0.,1.));
#1798=DIRECTION('',(1.,0.,0.));
#1799=DIRECTION('',(-0.707106781186548,0.,0.707106781186548));
#1800=DIRECTION('',(0.707106781186548,0.,0.707106781186548));
#1801=DIRECTION('',(-1.,0.,0.));
#1802=DIRECTION('',(0.,0.,1.));
#1803=DIRECTION('',(0.,-1.,0.));
#1804=DIRECTION('',(0.,0.,-1.));
#1805=DIRECTION('',(0.,-1.,0.));
#1806=DIRECTION('',(0.,0.,-1.));
#1807=DIRECTION('',(0.,-1.,0.));
#1808=DIRECTION('',(1.,0.,0.));
#1809=DIRECTION('',(0.,-1.,0.));
#1810=DIRECTION('',(0.,0.,-1.));
#1811=DIRECTION('',(0.,-1.,0.));
#1812=DIRECTION('',(0.,0.,-1.));
#1813=DIRECTION('',(0.,-1.,0.));
#1814=DIRECTION('',(1.,0.,0.));
#1815=DIRECTION('',(0.,-1.,0.));
#1816=DIRECTION('',(0.,0.,-1.));
#1817=DIRECTION('',(0.,-1.,0.));
#1818=DIRECTION('',(0.,0.,-1.));
#1819=DIRECTION('',(0.,-1.,0.));
#1820=DIRECTION('',(1.,0.,0.));
#1821=DIRECTION('',(0.,-1.,0.));
#1822=DIRECTION('',(0.,0.,-1.));
#1823=DIRECTION('',(0.,-1.,0.));
#1824=DIRECTION('',(0.,0.,-1.));
#1825=DIRECTION('',(0.,-1.,0.));
#1826=DIRECTION('',(1.,0.,0.));
#1827=DIRECTION('',(0.,1.,0.));
#1828=DIRECTION('',(0.,0.,1.));
#1829=DIRECTION('',(1.,0.,0.));
#1830=DIRECTION('',(1.,0.,0.));
#1831=DIRECTION('',(0.,1.,0.));
#1832=DIRECTION('',(0.,0.,1.));
#1833=DIRECTION('',(1.,0.,0.));
#1834=DIRECTION('',(1.,0.,0.));
#1835=DIRECTION('',(0.,0.,-1.));
#1836=DIRECTION('',(-1.,0.,0.));
#1837=DIRECTION('',(0.,0.,-1.));
#1838=DIRECTION('',(-1.,0.,0.));
#1839=DIRECTION('',(0.,1.,0.));
#1840=DIRECTION('',(0.,0.,1.));
#1841=CARTESIAN_POINT('',(0.,0.,0.));
#1842=CARTESIAN_POINT('',(0.0471193604171276,-0.0388942642846258,-0.0050200000000263));
#1843=CARTESIAN_POINT('',(0.0471193604171276,-0.0388942642846258,-0.0800200000000263));
#1844=CARTESIAN_POINT('',(0.0471193604171276,-0.0388942642846258,-0.0800200000000263));
#1845=CARTESIAN_POINT('',(0.0471193604171276,-0.00689426428462575,-0.0800200000000263));
#1846=CARTESIAN_POINT('',(0.0471193604171276,-0.00689426428462575,0.0699799999999737));
#1847=CARTESIAN_POINT('',(0.0471193604171276,-0.00689426428462575,0.0699799999999737));
#1848=CARTESIAN_POINT('',(0.0471193604171276,-0.0388942642846258,0.0699799999999737));
#1849=CARTESIAN_POINT('',(0.0471193604171276,-0.0388942642846258,0.0699799999999737));
#1850=CARTESIAN_POINT('',(0.0471193604171276,-0.0388942642846258,-0.0050200000000263));
#1851=CARTESIAN_POINT('',(0.0471193604171276,-0.0229124180041253,-0.0601793490350246));
#1852=CARTESIAN_POINT('',(0.0471193604171276,-0.0309124180041253,-0.0601793490350246));
#1853=CARTESIAN_POINT('',(0.0471193604171276,-0.0149124180041254,-0.0601793490350246));
#1854=CARTESIAN_POINT('',(0.0471193604171276,-0.0309124180041253,-0.0501793490350246));
#1855=CARTESIAN_POINT('',(0.0471193604171276,-0.0309124180041253,-0.0401793490350247));
#1856=CARTESIAN_POINT('',(0.0471193604171276,-0.0229124180041253,-0.0401793490350247));
#1857=CARTESIAN_POINT('',(0.0471193604171276,-0.0149124180041254,-0.0401793490350247));
#1858=CARTESIAN_POINT('',(0.0471193604171276,-0.0149124180041254,-0.0501793490350246));
#1859=CARTESIAN_POINT('',(-0.00288045033812523,-0.0388942642846258,-0.0750200000000263));
#1860=CARTESIAN_POINT('',(0.0411193604171276,-0.0388942642846258,-0.0750200000000263));
#1861=CARTESIAN_POINT('',(0.0411193604171276,-0.0388942642846258,-0.0750200000000263));
#1862=CARTESIAN_POINT('',(0.0411193604171276,-0.0188942642846258,-0.0750200000000263));
#1863=CARTESIAN_POINT('',(-0.0468802610933781,-0.0188942642846258,-0.0750200000000263));
#1864=CARTESIAN_POINT('',(-0.0468802610933781,-0.0188942642846258,-0.0750200000000263));
#1865=CARTESIAN_POINT('',(-0.0468802610933781,-0.0388942642846258,-0.0750200000000263));
#1866=CARTESIAN_POINT('',(-0.0468802610933781,-0.0388942642846258,-0.0750200000000263));
#1867=CARTESIAN_POINT('',(-0.00288045033812523,-0.0388942642846258,-0.0750200000000263));
#1868=CARTESIAN_POINT('',(-0.0468802610933781,-0.0388942642846258,-0.0060200000000263));
#1869=CARTESIAN_POINT('',(-0.0468802610933781,-0.0188942642846258,-0.0060200000000263));
#1870=CARTESIAN_POINT('',(-0.0468802610933781,-0.0188942642846258,0.0629799999999737));
#1871=CARTESIAN_POINT('',(-0.0468802610933781,-0.0388942642846258,0.0629799999999737));
#1872=CARTESIAN_POINT('',(-0.0468802610933781,-0.0388942642846258,0.0629799999999737));
#1873=CARTESIAN_POINT('',(-0.0468802610933781,-0.0388942642846258,-0.0060200000000263));
#1874=CARTESIAN_POINT('',(-0.00288045033812523,-0.0388942642846258,0.0629799999999737));
#1875=CARTESIAN_POINT('',(-0.00288045033812523,-0.0188942642846258,0.0629799999999737));
#1876=CARTESIAN_POINT('',(0.0411193604171276,-0.0188942642846258,0.0629799999999737));
#1877=CARTESIAN_POINT('',(0.0411193604171276,-0.0388942642846258,0.0629799999999737));
#1878=CARTESIAN_POINT('',(0.0411193604171276,-0.0388942642846258,0.0629799999999737));
#1879=CARTESIAN_POINT('',(-0.00288045033812523,-0.0388942642846258,0.0629799999999737));
#1880=CARTESIAN_POINT('',(-0.00288045033812523,-0.0388942642846258,0.0699799999999737));
#1881=CARTESIAN_POINT('',(-0.0528802610933781,-0.00689426428462575,0.0699799999999737));
#1882=CARTESIAN_POINT('',(-0.0528802610933781,-0.00689426428462575,0.0699799999999737));
#1883=CARTESIAN_POINT('',(-0.0528802610933781,-0.0388942642846258,0.0699799999999737));
#1884=CARTESIAN_POINT('',(-0.0528802610933781,-0.0388942642846258,0.0699799999999737));
#1885=CARTESIAN_POINT('',(-0.00288045033812523,-0.0388942642846258,0.0699799999999737));
#1886=CARTESIAN_POINT('',(-0.0528802610933781,-0.0388942642846258,-0.0050200000000263));
#1887=CARTESIAN_POINT('',(-0.0528802610933781,-0.00689426428462575,-0.0050200000000263));
#1888=CARTESIAN_POINT('',(-0.0528802610933781,-0.00689426428462575,-0.0800200000000263));
#1889=CARTESIAN_POINT('',(-0.0528802610933781,-0.0388942642846258,-0.0800200000000263));
#1890=CARTESIAN_POINT('',(-0.0528802610933781,-0.0388942642846258,-0.0800200000000263));
#1891=CARTESIAN_POINT('',(-0.0528802610933781,-0.0388942642846258,-0.0050200000000263));
#1892=CARTESIAN_POINT('',(-0.00288045033812523,-0.0388942642846258,-0.0800200000000263));
#1893=CARTESIAN_POINT('',(-0.00288045033812523,-0.00689426428462575,-0.0800200000000263));
#1894=CARTESIAN_POINT('',(-0.00288045033812523,-0.0388942642846258,-0.0800200000000263));
#1895=CARTESIAN_POINT('',(0.0411193604171276,-0.0388942642846258,-0.0060200000000263));
#1896=CARTESIAN_POINT('',(0.0411193604171276,-0.0388942642846258,-0.0601793490350246));
#1897=CARTESIAN_POINT('',(0.0411193604171276,-0.0188942642846258,-0.0601793490350246));
#1898=CARTESIAN_POINT('',(0.0411193604171276,-0.0309124180041253,-0.0601793490350246));
#1899=CARTESIAN_POINT('',(0.0411193604171276,-0.0188942642846258,-0.0750200000000263));
#1900=CARTESIAN_POINT('',(0.0411193604171276,-0.0388942642846258,-0.0060200000000263));
#1901=CARTESIAN_POINT('',(0.0411193604171276,-0.0188942642846258,-0.0750200000000263));
#1902=CARTESIAN_POINT('',(0.0411193604171276,-0.0188942642846258,-0.0401793490350247));
#1903=CARTESIAN_POINT('',(0.0411193604171276,-0.0388942642846258,-0.0401793490350247));
#1904=CARTESIAN_POINT('',(0.0411193604171276,-0.0309124180041253,-0.0401793490350247));
#1905=CARTESIAN_POINT('',(0.0411193604171276,-0.0309124180041253,-0.0060200000000263));
#1906=CARTESIAN_POINT('',(-0.00288045033812522,-0.0388942642846258,-0.0050200000000263));
#1907=CARTESIAN_POINT('',(0.0441193604171276,-0.0388942642846258,-0.0700200000000263));
#1908=CARTESIAN_POINT('',(0.0441193604171276,-0.0388942642846258,-0.0722700000000263));
#1909=CARTESIAN_POINT('',(-0.0498802610933781,-0.0388942642846258,0.0599799999999737));
#1910=CARTESIAN_POINT('',(-0.0498802610933781,-0.0388942642846258,0.0577299999999737));
#1911=CARTESIAN_POINT('',(0.0441193604171276,-0.0388942642846258,0.0599799999999737));
#1912=CARTESIAN_POINT('',(0.0441193604171276,-0.0388942642846258,0.0577299999999737));
#1913=CARTESIAN_POINT('',(-0.0498802610933781,-0.0388942642846258,-0.0700200000000263));
#1914=CARTESIAN_POINT('',(-0.0498802610933781,-0.0388942642846258,-0.0722700000000263));
#1915=CARTESIAN_POINT('',(-0.00288045033812522,-0.00889426428462575,-0.0050200000000263));
#1916=CARTESIAN_POINT('',(-0.00288063958287239,-0.00889426428462575,0.0249799999999737));
#1917=CARTESIAN_POINT('',(-0.00288063958287239,-0.00889426428462575,0.0089799999999737));
#1918=CARTESIAN_POINT('',(0.034619738906622,-0.00889426428462575,-0.00140671072314739));
#1919=CARTESIAN_POINT('',(0.0371193604171276,-0.00889426428462575,-0.00847791233986129));
#1920=CARTESIAN_POINT('',(0.0371193604171276,-0.00889426428462575,0.00566449089356651));
#1921=CARTESIAN_POINT('',(0.0371193604171276,-0.00889426428462575,0.0257509744557597));
#1922=CARTESIAN_POINT('',(0.0371193604171276,-0.00889426428462575,0.0224220876601387));
#1923=CARTESIAN_POINT('',(0.034619738906622,-0.00889426428462575,0.0294932892768526));
#1924=CARTESIAN_POINT('',(0.0371193604171276,-0.00889426428462575,0.0365644908935665));
#1925=CARTESIAN_POINT('',(0.0371193604171276,-0.00889426428462575,0.0629799999999737));
#1926=CARTESIAN_POINT('',(0.0371193604171276,-0.00889426428462575,0.0589799999999737));
#1927=CARTESIAN_POINT('',(-0.00288045033812522,-0.00889426428462575,0.0589799999999737));
#1928=CARTESIAN_POINT('',(0.0173374118649498,-0.00889426428462575,0.0589799999999737));
#1929=CARTESIAN_POINT('',(0.010082069006063,-0.00889426428462575,0.0570799999999737));
#1930=CARTESIAN_POINT('',(0.00282672614717622,-0.00889426428462575,0.0589799999999737));
#1931=CARTESIAN_POINT('',(-0.00288045033812522,-0.00889426428462575,0.0589799999999737));
#1932=CARTESIAN_POINT('',(-0.00836258813505014,-0.00889426428462575,0.0589799999999737));
#1933=CARTESIAN_POINT('',(-0.015617930993937,-0.00889426428462575,0.0570799999999737));
#1934=CARTESIAN_POINT('',(-0.0228732738528238,-0.00889426428462575,0.0589799999999737));
#1935=CARTESIAN_POINT('',(-0.00288045033812522,-0.00889426428462575,0.0589799999999737));
#1936=CARTESIAN_POINT('',(-0.0428802610933781,-0.00889426428462575,0.0589799999999737));
#1937=CARTESIAN_POINT('',(-0.0428802610933781,-0.00889426428462575,-0.0050200000000263));
#1938=CARTESIAN_POINT('',(-0.0428802610933781,-0.00889426428462575,0.0365643570887181));
#1939=CARTESIAN_POINT('',(-0.040380261093378,-0.00889426428462575,0.0294932892768526));
#1940=CARTESIAN_POINT('',(-0.0428802610933781,-0.00889426428462575,0.0224222214649872));
#1941=CARTESIAN_POINT('',(-0.0428802610933781,-0.00889426428462575,-0.0050200000000263));
#1942=CARTESIAN_POINT('',(-0.0428802610933781,-0.00889426428462575,0.00566435708871808));
#1943=CARTESIAN_POINT('',(-0.040380261093378,-0.00889426428462575,-0.00140671072314739));
#1944=CARTESIAN_POINT('',(-0.0428802610933781,-0.00889426428462575,-0.00847777853501286));
#1945=CARTESIAN_POINT('',(-0.0428802610933781,-0.00889426428462575,-0.0050200000000263));
#1946=CARTESIAN_POINT('',(-0.0428802610933781,-0.00889426428462575,-0.0710200000000263));
#1947=CARTESIAN_POINT('',(0.0411193604171276,-0.00889426428462575,-0.0710200000000263));
#1948=CARTESIAN_POINT('',(-0.0194511415813461,-0.00889426428462575,-0.0710200000000263));
#1949=CARTESIAN_POINT('',(-0.015380261093378,-0.00889426428462575,-0.0647209578464381));
#1950=CARTESIAN_POINT('',(-0.01130938060541,-0.00889426428462575,-0.0710200000000263));
#1951=CARTESIAN_POINT('',(0.0411193604171276,-0.00889426428462575,-0.0710200000000263));
#1952=CARTESIAN_POINT('',(0.0055488584186539,-0.00889426428462575,-0.0710200000000263));
#1953=CARTESIAN_POINT('',(0.00961973890662195,-0.00889426428462575,-0.0647209578464381));
#1954=CARTESIAN_POINT('',(0.01369061939459,-0.00889426428462575,-0.0710200000000263));
#1955=CARTESIAN_POINT('',(0.0411193604171276,-0.00889426428462575,-0.0710200000000263));
#1956=CARTESIAN_POINT('',(0.0371193604171276,-0.00889426428462575,-0.0710200000000263));
#1957=CARTESIAN_POINT('',(0.0371193604171276,-0.00889426428462575,-0.00514902554424033));
#1958=CARTESIAN_POINT('',(-0.0200179309939369,-0.00889426428462575,-0.0276209578464381));
#1959=CARTESIAN_POINT('',(-0.0200179309939369,-0.00889426428462575,-0.0351209578464381));
#1960=CARTESIAN_POINT('',(0.0141197389066219,-0.00889426428462575,-0.0276209578464381));
#1961=CARTESIAN_POINT('',(0.0141197389066219,-0.00889426428462575,-0.0351209578464381));
#1962=CARTESIAN_POINT('',(0.010082069006063,-0.00889426428462575,0.0047799999999737));
#1963=CARTESIAN_POINT('',(0.010082069006063,-0.00889426428462575,-0.0027200000000263));
#1964=CARTESIAN_POINT('',(-0.015617930993937,-0.00889426428462575,0.0047799999999737));
#1965=CARTESIAN_POINT('',(-0.015617930993937,-0.00889426428462575,-0.0027200000000263));
#1966=CARTESIAN_POINT('',(-0.00288045033812522,-0.00189426428462575,-0.0050200000000263));
#1967=CARTESIAN_POINT('',(-0.00288063958287239,-0.00189426428462575,0.0249799999999737));
#1968=CARTESIAN_POINT('',(-0.00288063958287239,-0.00189426428462575,0.0409799999999737));
#1969=CARTESIAN_POINT('',(-0.0478802610933781,-0.00189426428462575,-0.0050200000000263));
#1970=CARTESIAN_POINT('',(-0.0478802610933781,-0.00189426428462575,-0.0750200000000263));
#1971=CARTESIAN_POINT('',(-0.0478802610933781,-0.00189426428462575,0.0649799999999737));
#1972=CARTESIAN_POINT('',(0.0471193604171276,-0.00189426428462575,0.0649799999999737));
#1973=CARTESIAN_POINT('',(0.0421193604171276,-0.00189426428462575,0.0649799999999737));
#1974=CARTESIAN_POINT('',(0.0421193604171276,-0.00189426428462575,-0.0800200000000263));
#1975=CARTESIAN_POINT('',(0.0421193604171276,-0.00189426428462575,-0.0750200000000263));
#1976=CARTESIAN_POINT('',(-0.00288045033812522,-0.00189426428462575,-0.0750200000000263));
#1977=CARTESIAN_POINT('',(-0.040380261093378,-0.0288942642846257,0.0294932892768526));
#1978=CARTESIAN_POINT('',(-0.040380261093378,-0.0288942642846257,0.0294932892768526));
#1979=CARTESIAN_POINT('',(-0.040380261093378,-0.0288942642846257,0.0269932892768526));
#1980=CARTESIAN_POINT('',(-0.040380261093378,-0.00889426428462575,0.0294932892768526));
#1981=CARTESIAN_POINT('',(-0.040380261093378,-0.00889426428462575,0.0269932892768526));
#1982=CARTESIAN_POINT('',(-0.040380261093378,-0.0288942642846257,0.0294932892768526));
#1983=CARTESIAN_POINT('',(-0.040380261093378,-0.0238942642846258,0.0294932892768526));
#1984=CARTESIAN_POINT('',(-0.040380261093378,-0.0238942642846258,0.0249932892768526));
#1985=CARTESIAN_POINT('',(-0.040380261093378,-0.0288942642846257,0.0294932892768526));
#1986=CARTESIAN_POINT('',(-0.040380261093378,-0.0288942642846257,0.0249932892768526));
#1987=CARTESIAN_POINT('',(-0.00288045033812522,-0.0288942642846257,-0.0050200000000263));
#1988=CARTESIAN_POINT('',(-0.00288045033812522,-0.00889426428462575,-0.0050200000000263));
#1989=CARTESIAN_POINT('',(-0.040380261093378,-0.0288942642846257,-0.00140671072314739));
#1990=CARTESIAN_POINT('',(-0.040380261093378,-0.0288942642846257,-0.00140671072314739));
#1991=CARTESIAN_POINT('',(-0.040380261093378,-0.0288942642846257,-0.00390671072314739));
#1992=CARTESIAN_POINT('',(-0.040380261093378,-0.00889426428462575,-0.00140671072314739));
#1993=CARTESIAN_POINT('',(-0.040380261093378,-0.00889426428462575,-0.00390671072314739));
#1994=CARTESIAN_POINT('',(-0.040380261093378,-0.0288942642846257,-0.00140671072314739));
#1995=CARTESIAN_POINT('',(-0.040380261093378,-0.0238942642846258,-0.00140671072314739));
#1996=CARTESIAN_POINT('',(-0.040380261093378,-0.0238942642846258,-0.00590671072314739));
#1997=CARTESIAN_POINT('',(-0.040380261093378,-0.0288942642846257,-0.00140671072314739));
#1998=CARTESIAN_POINT('',(-0.040380261093378,-0.0288942642846257,-0.00590671072314739));
#1999=CARTESIAN_POINT('',(-0.00288045033812522,-0.0288942642846257,-0.0050200000000263));
#2000=CARTESIAN_POINT('',(-0.00288045033812522,-0.00889426428462575,-0.0050200000000263));
#2001=CARTESIAN_POINT('',(0.034619738906622,-0.0288942642846257,-0.00140671072314739));
#2002=CARTESIAN_POINT('',(0.034619738906622,-0.0288942642846257,-0.00140671072314739));
#2003=CARTESIAN_POINT('',(0.034619738906622,-0.0288942642846257,-0.00390671072314739));
#2004=CARTESIAN_POINT('',(0.034619738906622,-0.00889426428462575,-0.00140671072314739));
#2005=CARTESIAN_POINT('',(0.034619738906622,-0.00889426428462575,-0.00390671072314739));
#2006=CARTESIAN_POINT('',(0.034619738906622,-0.0288942642846257,-0.00140671072314739));
#2007=CARTESIAN_POINT('',(0.034619738906622,-0.0238942642846258,-0.00140671072314739));
#2008=CARTESIAN_POINT('',(0.034619738906622,-0.0238942642846258,-0.00590671072314739));
#2009=CARTESIAN_POINT('',(0.034619738906622,-0.0288942642846257,-0.00140671072314739));
#2010=CARTESIAN_POINT('',(0.034619738906622,-0.0288942642846257,-0.00590671072314739));
#2011=CARTESIAN_POINT('',(-0.00288045033812522,-0.0288942642846257,-0.0050200000000263));
#2012=CARTESIAN_POINT('',(-0.00288045033812522,-0.00889426428462575,-0.0050200000000263));
#2013=CARTESIAN_POINT('',(0.034619738906622,-0.0288942642846257,0.0294932892768526));
#2014=CARTESIAN_POINT('',(0.034619738906622,-0.0288942642846257,0.0294932892768526));
#2015=CARTESIAN_POINT('',(0.034619738906622,-0.0288942642846257,0.0269932892768526));
#2016=CARTESIAN_POINT('',(0.034619738906622,-0.00889426428462575,0.0294932892768526));
#2017=CARTESIAN_POINT('',(0.034619738906622,-0.00889426428462575,0.0269932892768526));
#2018=CARTESIAN_POINT('',(0.034619738906622,-0.0288942642846257,0.0294932892768526));
#2019=CARTESIAN_POINT('',(0.034619738906622,-0.0238942642846258,0.0294932892768526));
#2020=CARTESIAN_POINT('',(0.034619738906622,-0.0238942642846258,0.0249932892768526));
#2021=CARTESIAN_POINT('',(0.034619738906622,-0.0288942642846257,0.0294932892768526));
#2022=CARTESIAN_POINT('',(0.034619738906622,-0.0288942642846257,0.0249932892768526));
#2023=CARTESIAN_POINT('',(-0.00288045033812522,-0.0288942642846257,-0.0050200000000263));
#2024=CARTESIAN_POINT('',(-0.00288045033812522,-0.00889426428462575,-0.0050200000000263));
#2025=CARTESIAN_POINT('',(-0.015617930993937,-0.0188942642846258,0.0047799999999737));
#2026=CARTESIAN_POINT('',(-0.015617930993937,-0.0188942642846258,0.0047799999999737));
#2027=CARTESIAN_POINT('',(-0.015617930993937,-0.0188942642846258,0.0022799999999737));
#2028=CARTESIAN_POINT('',(-0.015617930993937,-0.00889426428462575,0.0047799999999737));
#2029=CARTESIAN_POINT('',(-0.015617930993937,-0.00889426428462575,0.0022799999999737));
#2030=CARTESIAN_POINT('',(-0.015617930993937,-0.0188942642846258,0.0047799999999737));
#2031=CARTESIAN_POINT('',(-0.015617930993937,-0.0168942642846258,0.0047799999999737));
#2032=CARTESIAN_POINT('',(-0.015617930993937,-0.0168942642846258,0.0002799999999737));
#2033=CARTESIAN_POINT('',(-0.015617930993937,-0.0188942642846258,0.0047799999999737));
#2034=CARTESIAN_POINT('',(-0.015617930993937,-0.0188942642846258,0.0002799999999737));
#2035=CARTESIAN_POINT('',(-0.00288045033812522,-0.0188942642846258,-0.0050200000000263));
#2036=CARTESIAN_POINT('',(-0.00288045033812522,-0.00889426428462575,-0.0050200000000263));
#2037=CARTESIAN_POINT('',(0.00961973890662195,-0.0188942642846258,-0.0647209578464381));
#2038=CARTESIAN_POINT('',(0.00961973890662195,-0.0188942642846258,-0.0647209578464381));
#2039=CARTESIAN_POINT('',(0.00961973890662195,-0.0188942642846258,-0.0672209578464381));
#2040=CARTESIAN_POINT('',(0.00961973890662195,-0.00889426428462575,-0.0647209578464381));
#2041=CARTESIAN_POINT('',(0.00961973890662195,-0.00889426428462575,-0.0672209578464381));
#2042=CARTESIAN_POINT('',(0.00961973890662195,-0.0188942642846258,-0.0647209578464381));
#2043=CARTESIAN_POINT('',(0.00961973890662195,-0.0168942642846258,-0.0647209578464381));
#2044=CARTESIAN_POINT('',(0.00961973890662195,-0.0168942642846258,-0.0692209578464381));
#2045=CARTESIAN_POINT('',(0.00961973890662195,-0.0188942642846258,-0.0647209578464381));
#2046=CARTESIAN_POINT('',(0.00961973890662195,-0.0188942642846258,-0.0692209578464381));
#2047=CARTESIAN_POINT('',(-0.00288045033812522,-0.0188942642846258,-0.0050200000000263));
#2048=CARTESIAN_POINT('',(-0.00288045033812522,-0.00889426428462575,-0.0050200000000263));
#2049=CARTESIAN_POINT('',(-0.0200179309939369,-0.0188942642846258,-0.0276209578464381));
#2050=CARTESIAN_POINT('',(-0.0200179309939369,-0.0188942642846258,-0.0276209578464381));
#2051=CARTESIAN_POINT('',(-0.0200179309939369,-0.0188942642846258,-0.0301209578464381));
#2052=CARTESIAN_POINT('',(-0.0200179309939369,-0.00889426428462575,-0.0276209578464381));
#2053=CARTESIAN_POINT('',(-0.0200179309939369,-0.00889426428462575,-0.0301209578464381));
#2054=CARTESIAN_POINT('',(-0.0200179309939369,-0.0188942642846258,-0.0276209578464381));
#2055=CARTESIAN_POINT('',(-0.0200179309939369,-0.0168942642846258,-0.0276209578464381));
#2056=CARTESIAN_POINT('',(-0.0200179309939369,-0.0168942642846258,-0.0321209578464381));
#2057=CARTESIAN_POINT('',(-0.0200179309939369,-0.0188942642846258,-0.0276209578464381));
#2058=CARTESIAN_POINT('',(-0.0200179309939369,-0.0188942642846258,-0.0321209578464381));
#2059=CARTESIAN_POINT('',(-0.00288045033812522,-0.0188942642846258,-0.0050200000000263));
#2060=CARTESIAN_POINT('',(-0.00288045033812522,-0.00889426428462575,-0.0050200000000263));
#2061=CARTESIAN_POINT('',(0.010082069006063,-0.0188942642846258,0.0047799999999737));
#2062=CARTESIAN_POINT('',(0.010082069006063,-0.0188942642846258,0.0047799999999737));
#2063=CARTESIAN_POINT('',(0.010082069006063,-0.0188942642846258,0.0022799999999737));
#2064=CARTESIAN_POINT('',(0.010082069006063,-0.00889426428462575,0.0047799999999737));
#2065=CARTESIAN_POINT('',(0.010082069006063,-0.00889426428462575,0.0022799999999737));
#2066=CARTESIAN_POINT('',(0.010082069006063,-0.0188942642846258,0.0047799999999737));
#2067=CARTESIAN_POINT('',(0.010082069006063,-0.0168942642846258,0.0047799999999737));
#2068=CARTESIAN_POINT('',(0.010082069006063,-0.0168942642846258,0.0002799999999737));
#2069=CARTESIAN_POINT('',(0.010082069006063,-0.0188942642846258,0.0047799999999737));
#2070=CARTESIAN_POINT('',(0.010082069006063,-0.0188942642846258,0.0002799999999737));
#2071=CARTESIAN_POINT('',(-0.00288045033812522,-0.0188942642846258,-0.0050200000000263));
#2072=CARTESIAN_POINT('',(-0.00288045033812522,-0.00889426428462575,-0.0050200000000263));
#2073=CARTESIAN_POINT('',(0.010082069006063,-0.0188942642846258,0.0570799999999737));
#2074=CARTESIAN_POINT('',(0.010082069006063,-0.0188942642846258,0.0570799999999737));
#2075=CARTESIAN_POINT('',(0.010082069006063,-0.0188942642846258,0.0545799999999737));
#2076=CARTESIAN_POINT('',(0.010082069006063,-0.00889426428462575,0.0570799999999737));
#2077=CARTESIAN_POINT('',(0.010082069006063,-0.00889426428462575,0.0545799999999737));
#2078=CARTESIAN_POINT('',(0.010082069006063,-0.0188942642846258,0.0570799999999737));
#2079=CARTESIAN_POINT('',(0.010082069006063,-0.0168942642846258,0.0570799999999737));
#2080=CARTESIAN_POINT('',(0.010082069006063,-0.0168942642846258,0.0525799999999737));
#2081=CARTESIAN_POINT('',(0.010082069006063,-0.0188942642846258,0.0570799999999737));
#2082=CARTESIAN_POINT('',(0.010082069006063,-0.0188942642846258,0.0525799999999737));
#2083=CARTESIAN_POINT('',(-0.00288045033812522,-0.0188942642846258,-0.0050200000000263));
#2084=CARTESIAN_POINT('',(-0.00288045033812522,-0.00889426428462575,-0.0050200000000263));
#2085=CARTESIAN_POINT('',(-0.015617930993937,-0.0188942642846258,0.0570799999999737));
#2086=CARTESIAN_POINT('',(-0.015617930993937,-0.0188942642846258,0.0570799999999737));
#2087=CARTESIAN_POINT('',(-0.015617930993937,-0.0188942642846258,0.0545799999999737));
#2088=CARTESIAN_POINT('',(-0.015617930993937,-0.00889426428462575,0.0570799999999737));
#2089=CARTESIAN_POINT('',(-0.015617930993937,-0.00889426428462575,0.0545799999999737));
#2090=CARTESIAN_POINT('',(-0.015617930993937,-0.0188942642846258,0.0570799999999737));
#2091=CARTESIAN_POINT('',(-0.015617930993937,-0.0168942642846258,0.0570799999999737));
#2092=CARTESIAN_POINT('',(-0.015617930993937,-0.0168942642846258,0.0525799999999737));
#2093=CARTESIAN_POINT('',(-0.015617930993937,-0.0188942642846258,0.0570799999999737));
#2094=CARTESIAN_POINT('',(-0.015617930993937,-0.0188942642846258,0.0525799999999737));
#2095=CARTESIAN_POINT('',(-0.00288045033812522,-0.0188942642846258,-0.0050200000000263));
#2096=CARTESIAN_POINT('',(-0.00288045033812522,-0.00889426428462575,-0.0050200000000263));
#2097=CARTESIAN_POINT('',(0.0141197389066219,-0.0188942642846258,-0.0276209578464381));
#2098=CARTESIAN_POINT('',(0.0141197389066219,-0.0188942642846258,-0.0276209578464381));
#2099=CARTESIAN_POINT('',(0.0141197389066219,-0.0188942642846258,-0.0301209578464381));
#2100=CARTESIAN_POINT('',(0.0141197389066219,-0.00889426428462575,-0.0276209578464381));
#2101=CARTESIAN_POINT('',(0.0141197389066219,-0.00889426428462575,-0.0301209578464381));
#2102=CARTESIAN_POINT('',(0.0141197389066219,-0.0188942642846258,-0.0276209578464381));
#2103=CARTESIAN_POINT('',(0.0141197389066219,-0.0168942642846258,-0.0276209578464381));
#2104=CARTESIAN_POINT('',(0.0141197389066219,-0.0168942642846258,-0.0321209578464381));
#2105=CARTESIAN_POINT('',(0.0141197389066219,-0.0188942642846258,-0.0276209578464381));
#2106=CARTESIAN_POINT('',(0.0141197389066219,-0.0188942642846258,-0.0321209578464381));
#2107=CARTESIAN_POINT('',(-0.00288045033812522,-0.0188942642846258,-0.0050200000000263));
#2108=CARTESIAN_POINT('',(-0.00288045033812522,-0.00889426428462575,-0.0050200000000263));
#2109=CARTESIAN_POINT('',(-0.015380261093378,-0.0188942642846258,-0.0647209578464381));
#2110=CARTESIAN_POINT('',(-0.015380261093378,-0.0188942642846258,-0.0647209578464381));
#2111=CARTESIAN_POINT('',(-0.015380261093378,-0.0188942642846258,-0.0672209578464381));
#2112=CARTESIAN_POINT('',(-0.015380261093378,-0.00889426428462575,-0.0647209578464381));
#2113=CARTESIAN_POINT('',(-0.015380261093378,-0.00889426428462575,-0.0672209578464381));
#2114=CARTESIAN_POINT('',(-0.015380261093378,-0.0188942642846258,-0.0647209578464381));
#2115=CARTESIAN_POINT('',(-0.015380261093378,-0.0168942642846258,-0.0647209578464381));
#2116=CARTESIAN_POINT('',(-0.015380261093378,-0.0168942642846258,-0.0692209578464381));
#2117=CARTESIAN_POINT('',(-0.015380261093378,-0.0188942642846258,-0.0647209578464381));
#2118=CARTESIAN_POINT('',(-0.015380261093378,-0.0188942642846258,-0.0692209578464381));
#2119=CARTESIAN_POINT('',(-0.00288045033812522,-0.0188942642846258,-0.0050200000000263));
#2120=CARTESIAN_POINT('',(-0.00288045033812522,-0.00889426428462575,-0.0050200000000263));
#2121=CARTESIAN_POINT('',(-0.015380261093378,-0.0168942642846258,-0.0647209578464381));
#2122=CARTESIAN_POINT('',(-0.015380261093378,0.266311767273326,0.0390624126231547));
#2123=CARTESIAN_POINT('',(0.00961973890662195,-0.0168942642846258,-0.0647209578464381));
#2124=CARTESIAN_POINT('',(0.00961973890662195,0.266311767273326,0.0390624126231547));
#2125=CARTESIAN_POINT('',(-0.0200179309939369,-0.0168942642846258,-0.0276209578464381));
#2126=CARTESIAN_POINT('',(0.0141197389066219,-0.0168942642846258,-0.0276209578464381));
#2127=CARTESIAN_POINT('',(-0.015617930993937,-0.0168942642846258,0.0570799999999737));
#2128=CARTESIAN_POINT('',(-0.015617930993937,0.175492832489575,-0.0147748387097064));
#2129=CARTESIAN_POINT('',(0.010082069006063,-0.0168942642846258,0.0570799999999737));
#2130=CARTESIAN_POINT('',(0.010082069006063,0.175492832489572,-0.0147748387097052));
#2131=CARTESIAN_POINT('',(0.010082069006063,-0.0168942642846258,0.0047799999999737));
#2132=CARTESIAN_POINT('',(-0.015617930993937,-0.0168942642846258,0.0047799999999737));
#2133=CARTESIAN_POINT('',(0.034619738906622,-0.0238942642846258,0.0294932892768526));
#2134=CARTESIAN_POINT('',(0.0287865317364534,0.0119378074170598,0.0294932892768526));
#2135=CARTESIAN_POINT('',(0.034619738906622,-0.0238942642846258,-0.00140671072314739));
#2136=CARTESIAN_POINT('',(0.0287865317364534,0.0119378074170598,-0.00140671072314739));
#2137=CARTESIAN_POINT('',(-0.040380261093378,-0.0238942642846258,-0.00140671072314739));
#2138=CARTESIAN_POINT('',(-0.0345469277600447,0.0119390690487076,-0.00140671072314739));
#2139=CARTESIAN_POINT('',(-0.040380261093378,-0.0238942642846258,0.0294932892768526));
#2140=CARTESIAN_POINT('',(-0.0345469277600447,0.0119390690487076,0.0294932892768526));
#2141=CARTESIAN_POINT('',(-0.0468802610933781,-0.0188942642846258,-0.0060200000000263));
#2142=CARTESIAN_POINT('',(-0.041546950698802,-0.00556098829818549,0.0576466896053976));
#2143=CARTESIAN_POINT('',(-0.0380317991836504,0.00322689048969329,-0.0661715380902987));
#2144=CARTESIAN_POINT('',(-0.00288045033812523,-0.0188942642846258,0.0629799999999737));
#2145=CARTESIAN_POINT('',(0.0293617846595519,0.0104996751093136,0.051222424242398));
#2146=CARTESIAN_POINT('',(-0.00288045033812522,-0.00889426428462575,-0.0710200000000263));
#2147=CARTESIAN_POINT('',(0.0291193604171276,0.0111057357153743,-0.0630200000000263));
#2148=CARTESIAN_POINT('',(0.0371193604171276,-0.00889426428462575,-0.0050200000000263));
#2149=CARTESIAN_POINT('',(0.0371193604171276,-0.00889426428462575,-0.0601793490350246));
#2150=CARTESIAN_POINT('',(0.0395266219049275,-0.0149124180041254,-0.0601793490350246));
#2151=CARTESIAN_POINT('',(0.0395266219049275,-0.0149124180041254,-0.0050200000000263));
#2152=CARTESIAN_POINT('',(0.0395266219049275,-0.0149124180041254,-0.0401793490350247));
#2153=CARTESIAN_POINT('',(0.0371193604171276,-0.00889426428462575,-0.0401793490350247));
#2154=CARTESIAN_POINT('',(-0.00288045033812523,-0.00689426428462575,-0.0750200000000263));
#2155=CARTESIAN_POINT('',(0.0421193604171276,-0.00689426428462575,-0.0750200000000263));
#2156=CARTESIAN_POINT('',(-0.0478802610933781,-0.00689426428462575,-0.0750200000000263));
#2157=CARTESIAN_POINT('',(-0.0478802610933781,-0.00689426428462575,-0.0050200000000263));
#2158=CARTESIAN_POINT('',(-0.0478802610933781,-0.00689426428462575,0.0649799999999737));
#2159=CARTESIAN_POINT('',(0.0421193604171276,-0.00689426428462575,-0.0050200000000263));
#2160=CARTESIAN_POINT('',(0.0421193604171276,-0.00689426428462575,0.0649799999999737));
#2161=CARTESIAN_POINT('',(-0.00288045033812522,-0.00689426428462575,0.0649799999999737));
#2162=CARTESIAN_POINT('',(-0.0498802610933781,-0.0238942642846258,-0.0700200000000263));
#2163=CARTESIAN_POINT('',(-0.0498802610933781,-0.0238942642846258,-0.0700200000000263));
#2164=CARTESIAN_POINT('',(-0.0498802610933781,-0.0238942642846258,-0.0722700000000263));
#2165=CARTESIAN_POINT('',(-0.00288045033812522,-0.0238942642846258,-0.0050200000000263));
#2166=CARTESIAN_POINT('',(0.0441193604171276,-0.0238942642846258,0.0599799999999737));
#2167=CARTESIAN_POINT('',(0.0441193604171276,-0.0238942642846258,0.0599799999999737));
#2168=CARTESIAN_POINT('',(0.0441193604171276,-0.0238942642846258,0.0577299999999737));
#2169=CARTESIAN_POINT('',(-0.00288045033812522,-0.0238942642846258,-0.0050200000000263));
#2170=CARTESIAN_POINT('',(-0.0498802610933781,-0.0238942642846258,0.0599799999999737));
#2171=CARTESIAN_POINT('',(-0.0498802610933781,-0.0238942642846258,0.0599799999999737));
#2172=CARTESIAN_POINT('',(-0.0498802610933781,-0.0238942642846258,0.0577299999999737));
#2173=CARTESIAN_POINT('',(-0.00288045033812522,-0.0238942642846258,-0.0050200000000263));
#2174=CARTESIAN_POINT('',(0.0441193604171276,-0.0238942642846258,-0.0700200000000263));
#2175=CARTESIAN_POINT('',(0.0441193604171276,-0.0238942642846258,-0.0700200000000263));
#2176=CARTESIAN_POINT('',(0.0441193604171276,-0.0238942642846258,-0.0722700000000263));
#2177=CARTESIAN_POINT('',(-0.00288045033812522,-0.0238942642846258,-0.0050200000000263));
#2178=CARTESIAN_POINT('',(0.0221193604171276,-0.0149124180041254,-0.0501793490350246));
#2179=CARTESIAN_POINT('',(0.0221193604171276,-0.0149124180041254,-0.0601793490350246));
#2180=CARTESIAN_POINT('',(0.0221193604171276,-0.0149124180041254,-0.0401793490350247));
#2181=CARTESIAN_POINT('',(0.0221193604171276,-0.0309124180041253,-0.0501793490350246));
#2182=CARTESIAN_POINT('',(0.0221193604171276,-0.0309124180041253,-0.0401793490350247));
#2183=CARTESIAN_POINT('',(0.0221193604171276,-0.0309124180041253,-0.0601793490350246));
#2184=CARTESIAN_POINT('',(0.0221193604171276,-0.0229124180041253,-0.0601793490350246));
#2185=CARTESIAN_POINT('',(0.0221193604171276,-0.0229124180041253,-0.0401793490350247));
#2186=CARTESIAN_POINT('',(-0.00288063958287239,-0.0268942642846258,0.0249799999999737));
#2187=MECHANICAL_DESIGN_GEOMETRIC_PRESENTATION_REPRESENTATION('',(#1246),
#2188);
#2188=(
GEOMETRIC_REPRESENTATION_CONTEXT(3)
GLOBAL_UNCERTAINTY_ASSIGNED_CONTEXT((#2189))
GLOBAL_UNIT_ASSIGNED_CONTEXT((#2192,#2191,#2190))
REPRESENTATION_CONTEXT('Part 1','TOP_LEVEL_ASSEMBLY_PART')
);
#2189=UNCERTAINTY_MEASURE_WITH_UNIT(LENGTH_MEASURE(1.E-8),#2192,
'DISTANCE_ACCURACY_VALUE','Maximum Tolerance applied to model');
#2190=(
NAMED_UNIT(*)
SI_UNIT($,.STERADIAN.)
SOLID_ANGLE_UNIT()
);
#2191=(
NAMED_UNIT(*)
PLANE_ANGLE_UNIT()
SI_UNIT($,.RADIAN.)
);
#2192=(
LENGTH_UNIT()
NAMED_UNIT(*)
SI_UNIT($,.METRE.)
);
#2193=PRODUCT_DEFINITION_SHAPE('','',#2194);
#2194=PRODUCT_DEFINITION('','',#2196,#2195);
#2195=PRODUCT_DEFINITION_CONTEXT('',#2202,'design');
#2196=PRODUCT_DEFINITION_FORMATION_WITH_SPECIFIED_SOURCE('','',#2198,
 .NOT_KNOWN.);
#2197=PRODUCT_RELATED_PRODUCT_CATEGORY('','',(#2198));
#2198=PRODUCT('Part 1','Part 1','Part 1',(#2200));
#2199=PRODUCT_CATEGORY('','');
#2200=PRODUCT_CONTEXT('',#2202,'mechanical');
#2201=APPLICATION_PROTOCOL_DEFINITION('international standard',
'ap242_managed_model_based_3d_engineering',2020,#2202);
#2202=APPLICATION_CONTEXT('managed model based 3d engineering');
ENDSEC;
END-ISO-10303-21;
