ISO-10303-21;
HEADER;
/* Generated by software containing ST-Developer
 * from STEP Tools, Inc. (www.steptools.com) 
 */
/* OPTION: using custom renumber hook */

FILE_DESCRIPTION(
/* description */ ('STEP AP242 Edition 2',
'CAx-IF Rec.Pracs.---Representation and Presentation of Product Manufa
cturing Information (PMI)---4.0---2014-10-13',
'CAx-IF Rec.Pracs.---3D Tessellated Geometry---0.4---2014-09-14','2;1',
'CAx-IF Rec.Pracs.---User Defined Attributes---1.5---2016-08-15'),
/* implementation_level */ '2;1');

FILE_NAME(
/* name */ 'ESP8266 - Part 2',
/* time_stamp */ '2026-09-15T17:57:06Z',
/* author */ (''),
/* organization */ (''),
/* preprocessor_version */ 'ST-DEVELOPER v20',
/* originating_system */ 'ONSHAPE BY PTC INC, 1.220',
/* authorisation */ '  ');

FILE_SCHEMA (('AP242_MANAGED_MODEL_BASED_3D_ENGINEERING_MIM_LF { 1 0 10303 442 3 1 4 }'));
ENDSEC;

DATA;
#10=SHAPE_REPRESENTATION_RELATIONSHIP('','',#625,#11);
#11=ADVANCED_BREP_SHAPE_REPRESENTATION('',(#623),#1027);
#12=CYLINDRICAL_SURFACE('',#638,0.00225);
#13=CYLINDRICAL_SURFACE('',#641,0.00225);
#14=CYLINDRICAL_SURFACE('',#644,0.00225);
#15=CYLINDRICAL_SURFACE('',#647,0.00225);
#16=CYLINDRICAL_SURFACE('',#669,0.005);
#17=CYLINDRICAL_SURFACE('',#672,0.005);
#18=CYLINDRICAL_SURFACE('',#675,0.005);
#19=CYLINDRICAL_SURFACE('',#678,0.005);
#20=CYLINDRICAL_SURFACE('',#681,0.005);
#21=CYLINDRICAL_SURFACE('',#682,0.005);
#22=CIRCLE('',#628,0.005);
#23=CIRCLE('',#630,0.005);
#24=CIRCLE('',#631,0.005);
#25=CIRCLE('',#632,0.005);
#26=CIRCLE('',#633,0.005);
#27=CIRCLE('',#635,0.005);
#28=CIRCLE('',#637,0.005);
#29=CIRCLE('',#639,0.00225);
#30=CIRCLE('',#640,0.00225);
#31=CIRCLE('',#642,0.00225);
#32=CIRCLE('',#643,0.00225);
#33=CIRCLE('',#645,0.00225);
#34=CIRCLE('',#646,0.00225);
#35=CIRCLE('',#648,0.00225);
#36=CIRCLE('',#649,0.00225);
#37=CIRCLE('',#651,0.005);
#38=CIRCLE('',#655,0.005);
#39=CIRCLE('',#656,0.005);
#40=CIRCLE('',#659,0.005);
#41=CIRCLE('',#660,0.005);
#42=CIRCLE('',#670,0.005);
#43=CIRCLE('',#673,0.005);
#44=CIRCLE('',#676,0.005);
#45=CIRCLE('',#679,0.005);
#46=ORIENTED_EDGE('',*,*,#210,.F.);
#47=ORIENTED_EDGE('',*,*,#211,.T.);
#48=ORIENTED_EDGE('',*,*,#212,.F.);
#49=ORIENTED_EDGE('',*,*,#213,.F.);
#50=ORIENTED_EDGE('',*,*,#214,.T.);
#51=ORIENTED_EDGE('',*,*,#215,.T.);
#52=ORIENTED_EDGE('',*,*,#216,.F.);
#53=ORIENTED_EDGE('',*,*,#217,.F.);
#54=ORIENTED_EDGE('',*,*,#218,.T.);
#55=ORIENTED_EDGE('',*,*,#219,.T.);
#56=ORIENTED_EDGE('',*,*,#220,.F.);
#57=ORIENTED_EDGE('',*,*,#221,.F.);
#58=ORIENTED_EDGE('',*,*,#222,.T.);
#59=ORIENTED_EDGE('',*,*,#223,.F.);
#60=ORIENTED_EDGE('',*,*,#224,.T.);
#61=ORIENTED_EDGE('',*,*,#225,.F.);
#62=ORIENTED_EDGE('',*,*,#226,.T.);
#63=ORIENTED_EDGE('',*,*,#227,.F.);
#64=ORIENTED_EDGE('',*,*,#228,.F.);
#65=ORIENTED_EDGE('',*,*,#229,.T.);
#66=ORIENTED_EDGE('',*,*,#230,.T.);
#67=ORIENTED_EDGE('',*,*,#231,.F.);
#68=ORIENTED_EDGE('',*,*,#232,.F.);
#69=ORIENTED_EDGE('',*,*,#233,.T.);
#70=ORIENTED_EDGE('',*,*,#234,.T.);
#71=ORIENTED_EDGE('',*,*,#235,.F.);
#72=ORIENTED_EDGE('',*,*,#236,.T.);
#73=ORIENTED_EDGE('',*,*,#237,.F.);
#74=ORIENTED_EDGE('',*,*,#238,.T.);
#75=ORIENTED_EDGE('',*,*,#239,.F.);
#76=ORIENTED_EDGE('',*,*,#240,.T.);
#77=ORIENTED_EDGE('',*,*,#241,.F.);
#78=ORIENTED_EDGE('',*,*,#242,.T.);
#79=ORIENTED_EDGE('',*,*,#243,.F.);
#80=ORIENTED_EDGE('',*,*,#244,.T.);
#81=ORIENTED_EDGE('',*,*,#245,.F.);
#82=ORIENTED_EDGE('',*,*,#241,.T.);
#83=ORIENTED_EDGE('',*,*,#239,.T.);
#84=ORIENTED_EDGE('',*,*,#237,.T.);
#85=ORIENTED_EDGE('',*,*,#235,.T.);
#86=ORIENTED_EDGE('',*,*,#246,.F.);
#87=ORIENTED_EDGE('',*,*,#247,.T.);
#88=ORIENTED_EDGE('',*,*,#248,.T.);
#89=ORIENTED_EDGE('',*,*,#249,.F.);
#90=ORIENTED_EDGE('',*,*,#250,.T.);
#91=ORIENTED_EDGE('',*,*,#251,.T.);
#92=ORIENTED_EDGE('',*,*,#252,.F.);
#93=ORIENTED_EDGE('',*,*,#253,.F.);
#94=ORIENTED_EDGE('',*,*,#254,.F.);
#95=ORIENTED_EDGE('',*,*,#255,.T.);
#96=ORIENTED_EDGE('',*,*,#256,.T.);
#97=ORIENTED_EDGE('',*,*,#257,.F.);
#98=ORIENTED_EDGE('',*,*,#258,.F.);
#99=ORIENTED_EDGE('',*,*,#259,.T.);
#100=ORIENTED_EDGE('',*,*,#260,.T.);
#101=ORIENTED_EDGE('',*,*,#250,.F.);
#102=ORIENTED_EDGE('',*,*,#234,.F.);
#103=ORIENTED_EDGE('',*,*,#261,.T.);
#104=ORIENTED_EDGE('',*,*,#258,.T.);
#105=ORIENTED_EDGE('',*,*,#253,.T.);
#106=ORIENTED_EDGE('',*,*,#262,.F.);
#107=ORIENTED_EDGE('',*,*,#263,.T.);
#108=ORIENTED_EDGE('',*,*,#229,.F.);
#109=ORIENTED_EDGE('',*,*,#264,.F.);
#110=ORIENTED_EDGE('',*,*,#265,.F.);
#111=ORIENTED_EDGE('',*,*,#266,.T.);
#112=ORIENTED_EDGE('',*,*,#224,.F.);
#113=ORIENTED_EDGE('',*,*,#267,.F.);
#114=ORIENTED_EDGE('',*,*,#268,.F.);
#115=ORIENTED_EDGE('',*,*,#269,.T.);
#116=ORIENTED_EDGE('',*,*,#270,.F.);
#117=ORIENTED_EDGE('',*,*,#271,.T.);
#118=ORIENTED_EDGE('',*,*,#262,.T.);
#119=ORIENTED_EDGE('',*,*,#252,.T.);
#120=ORIENTED_EDGE('',*,*,#260,.F.);
#121=ORIENTED_EDGE('',*,*,#272,.T.);
#122=ORIENTED_EDGE('',*,*,#210,.T.);
#123=ORIENTED_EDGE('',*,*,#273,.F.);
#124=ORIENTED_EDGE('',*,*,#274,.T.);
#125=ORIENTED_EDGE('',*,*,#275,.T.);
#126=ORIENTED_EDGE('',*,*,#228,.T.);
#127=ORIENTED_EDGE('',*,*,#276,.F.);
#128=ORIENTED_EDGE('',*,*,#277,.T.);
#129=ORIENTED_EDGE('',*,*,#278,.T.);
#130=ORIENTED_EDGE('',*,*,#245,.T.);
#131=ORIENTED_EDGE('',*,*,#279,.T.);
#132=ORIENTED_EDGE('',*,*,#270,.T.);
#133=ORIENTED_EDGE('',*,*,#251,.F.);
#134=ORIENTED_EDGE('',*,*,#246,.T.);
#135=ORIENTED_EDGE('',*,*,#280,.T.);
#136=ORIENTED_EDGE('',*,*,#214,.F.);
#137=ORIENTED_EDGE('',*,*,#281,.F.);
#138=ORIENTED_EDGE('',*,*,#281,.T.);
#139=ORIENTED_EDGE('',*,*,#213,.T.);
#140=ORIENTED_EDGE('',*,*,#282,.F.);
#141=ORIENTED_EDGE('',*,*,#247,.F.);
#142=ORIENTED_EDGE('',*,*,#282,.T.);
#143=ORIENTED_EDGE('',*,*,#216,.T.);
#144=ORIENTED_EDGE('',*,*,#283,.F.);
#145=ORIENTED_EDGE('',*,*,#248,.F.);
#146=ORIENTED_EDGE('',*,*,#249,.T.);
#147=ORIENTED_EDGE('',*,*,#283,.T.);
#148=ORIENTED_EDGE('',*,*,#215,.F.);
#149=ORIENTED_EDGE('',*,*,#280,.F.);
#150=ORIENTED_EDGE('',*,*,#254,.T.);
#151=ORIENTED_EDGE('',*,*,#284,.T.);
#152=ORIENTED_EDGE('',*,*,#218,.F.);
#153=ORIENTED_EDGE('',*,*,#285,.F.);
#154=ORIENTED_EDGE('',*,*,#285,.T.);
#155=ORIENTED_EDGE('',*,*,#217,.T.);
#156=ORIENTED_EDGE('',*,*,#286,.F.);
#157=ORIENTED_EDGE('',*,*,#255,.F.);
#158=ORIENTED_EDGE('',*,*,#286,.T.);
#159=ORIENTED_EDGE('',*,*,#220,.T.);
#160=ORIENTED_EDGE('',*,*,#287,.F.);
#161=ORIENTED_EDGE('',*,*,#256,.F.);
#162=ORIENTED_EDGE('',*,*,#257,.T.);
#163=ORIENTED_EDGE('',*,*,#287,.T.);
#164=ORIENTED_EDGE('',*,*,#219,.F.);
#165=ORIENTED_EDGE('',*,*,#284,.F.);
#166=ORIENTED_EDGE('',*,*,#227,.T.);
#167=ORIENTED_EDGE('',*,*,#243,.T.);
#168=ORIENTED_EDGE('',*,*,#278,.F.);
#169=ORIENTED_EDGE('',*,*,#288,.F.);
#170=ORIENTED_EDGE('',*,*,#276,.T.);
#171=ORIENTED_EDGE('',*,*,#242,.F.);
#172=ORIENTED_EDGE('',*,*,#277,.F.);
#173=ORIENTED_EDGE('',*,*,#288,.T.);
#174=ORIENTED_EDGE('',*,*,#223,.T.);
#175=ORIENTED_EDGE('',*,*,#232,.T.);
#176=ORIENTED_EDGE('',*,*,#269,.F.);
#177=ORIENTED_EDGE('',*,*,#289,.F.);
#178=ORIENTED_EDGE('',*,*,#267,.T.);
#179=ORIENTED_EDGE('',*,*,#240,.F.);
#180=ORIENTED_EDGE('',*,*,#268,.T.);
#181=ORIENTED_EDGE('',*,*,#289,.T.);
#182=ORIENTED_EDGE('',*,*,#212,.T.);
#183=ORIENTED_EDGE('',*,*,#221,.T.);
#184=ORIENTED_EDGE('',*,*,#275,.F.);
#185=ORIENTED_EDGE('',*,*,#290,.F.);
#186=ORIENTED_EDGE('',*,*,#273,.T.);
#187=ORIENTED_EDGE('',*,*,#238,.F.);
#188=ORIENTED_EDGE('',*,*,#274,.F.);
#189=ORIENTED_EDGE('',*,*,#290,.T.);
#190=ORIENTED_EDGE('',*,*,#231,.T.);
#191=ORIENTED_EDGE('',*,*,#225,.T.);
#192=ORIENTED_EDGE('',*,*,#266,.F.);
#193=ORIENTED_EDGE('',*,*,#291,.F.);
#194=ORIENTED_EDGE('',*,*,#264,.T.);
#195=ORIENTED_EDGE('',*,*,#236,.F.);
#196=ORIENTED_EDGE('',*,*,#265,.T.);
#197=ORIENTED_EDGE('',*,*,#291,.T.);
#198=ORIENTED_EDGE('',*,*,#222,.F.);
#199=ORIENTED_EDGE('',*,*,#211,.F.);
#200=ORIENTED_EDGE('',*,*,#272,.F.);
#201=ORIENTED_EDGE('',*,*,#259,.F.);
#202=ORIENTED_EDGE('',*,*,#261,.F.);
#203=ORIENTED_EDGE('',*,*,#233,.F.);
#204=ORIENTED_EDGE('',*,*,#263,.F.);
#205=ORIENTED_EDGE('',*,*,#271,.F.);
#206=ORIENTED_EDGE('',*,*,#279,.F.);
#207=ORIENTED_EDGE('',*,*,#244,.F.);
#208=ORIENTED_EDGE('',*,*,#226,.F.);
#209=ORIENTED_EDGE('',*,*,#230,.F.);
#210=EDGE_CURVE('',#292,#293,#348,.T.);
#211=EDGE_CURVE('',#292,#294,#349,.F.);
#212=EDGE_CURVE('',#293,#294,#22,.T.);
#213=EDGE_CURVE('',#295,#296,#350,.T.);
#214=EDGE_CURVE('',#295,#297,#351,.T.);
#215=EDGE_CURVE('',#297,#298,#352,.T.);
#216=EDGE_CURVE('',#296,#298,#353,.T.);
#217=EDGE_CURVE('',#299,#300,#354,.T.);
#218=EDGE_CURVE('',#299,#301,#355,.T.);
#219=EDGE_CURVE('',#301,#302,#356,.T.);
#220=EDGE_CURVE('',#300,#302,#357,.T.);
#221=EDGE_CURVE('',#294,#303,#23,.T.);
#222=EDGE_CURVE('',#294,#304,#358,.F.);
#223=EDGE_CURVE('',#305,#304,#24,.T.);
#224=EDGE_CURVE('',#305,#306,#359,.T.);
#225=EDGE_CURVE('',#307,#306,#25,.T.);
#226=EDGE_CURVE('',#307,#308,#360,.T.);
#227=EDGE_CURVE('',#309,#308,#26,.T.);
#228=EDGE_CURVE('',#303,#309,#361,.T.);
#229=EDGE_CURVE('',#310,#311,#362,.T.);
#230=EDGE_CURVE('',#311,#307,#363,.T.);
#231=EDGE_CURVE('',#310,#307,#27,.T.);
#232=EDGE_CURVE('',#304,#312,#28,.T.);
#233=EDGE_CURVE('',#304,#313,#364,.F.);
#234=EDGE_CURVE('',#313,#312,#365,.T.);
#235=EDGE_CURVE('',#314,#314,#29,.T.);
#236=EDGE_CURVE('',#315,#315,#30,.T.);
#237=EDGE_CURVE('',#316,#316,#31,.T.);
#238=EDGE_CURVE('',#317,#317,#32,.T.);
#239=EDGE_CURVE('',#318,#318,#33,.T.);
#240=EDGE_CURVE('',#319,#319,#34,.T.);
#241=EDGE_CURVE('',#320,#320,#35,.T.);
#242=EDGE_CURVE('',#321,#321,#36,.T.);
#243=EDGE_CURVE('',#308,#322,#37,.T.);
#244=EDGE_CURVE('',#308,#323,#366,.T.);
#245=EDGE_CURVE('',#322,#323,#367,.T.);
#246=EDGE_CURVE('',#324,#325,#368,.T.);
#247=EDGE_CURVE('',#324,#326,#369,.T.);
#248=EDGE_CURVE('',#326,#327,#370,.T.);
#249=EDGE_CURVE('',#325,#327,#371,.T.);
#250=EDGE_CURVE('',#328,#329,#372,.T.);
#251=EDGE_CURVE('',#329,#330,#373,.T.);
#252=EDGE_CURVE('',#331,#330,#374,.T.);
#253=EDGE_CURVE('',#328,#331,#375,.T.);
#254=EDGE_CURVE('',#332,#333,#376,.T.);
#255=EDGE_CURVE('',#332,#334,#377,.T.);
#256=EDGE_CURVE('',#334,#335,#378,.T.);
#257=EDGE_CURVE('',#333,#335,#379,.T.);
#258=EDGE_CURVE('',#336,#328,#380,.T.);
#259=EDGE_CURVE('',#336,#337,#381,.T.);
#260=EDGE_CURVE('',#337,#329,#382,.T.);
#261=EDGE_CURVE('',#313,#336,#38,.F.);
#262=EDGE_CURVE('',#338,#331,#383,.T.);
#263=EDGE_CURVE('',#338,#311,#39,.F.);
#264=EDGE_CURVE('',#339,#310,#384,.T.);
#265=EDGE_CURVE('',#340,#339,#385,.T.);
#266=EDGE_CURVE('',#340,#306,#386,.T.);
#267=EDGE_CURVE('',#341,#305,#387,.T.);
#268=EDGE_CURVE('',#342,#341,#388,.T.);
#269=EDGE_CURVE('',#342,#312,#389,.T.);
#270=EDGE_CURVE('',#343,#330,#390,.T.);
#271=EDGE_CURVE('',#343,#338,#391,.F.);
#272=EDGE_CURVE('',#337,#292,#40,.T.);
#273=EDGE_CURVE('',#344,#293,#392,.T.);
#274=EDGE_CURVE('',#344,#345,#393,.T.);
#275=EDGE_CURVE('',#345,#303,#394,.T.);
#276=EDGE_CURVE('',#346,#309,#395,.T.);
#277=EDGE_CURVE('',#346,#347,#396,.T.);
#278=EDGE_CURVE('',#347,#322,#397,.T.);
#279=EDGE_CURVE('',#323,#343,#41,.T.);
#280=EDGE_CURVE('',#325,#297,#398,.T.);
#281=EDGE_CURVE('',#324,#295,#399,.T.);
#282=EDGE_CURVE('',#326,#296,#400,.T.);
#283=EDGE_CURVE('',#327,#298,#401,.T.);
#284=EDGE_CURVE('',#333,#301,#402,.T.);
#285=EDGE_CURVE('',#332,#299,#403,.T.);
#286=EDGE_CURVE('',#334,#300,#404,.T.);
#287=EDGE_CURVE('',#335,#302,#405,.T.);
#288=EDGE_CURVE('',#346,#347,#42,.T.);
#289=EDGE_CURVE('',#341,#342,#43,.T.);
#290=EDGE_CURVE('',#344,#345,#44,.T.);
#291=EDGE_CURVE('',#339,#340,#45,.T.);
#292=VERTEX_POINT('',#858);
#293=VERTEX_POINT('',#859);
#294=VERTEX_POINT('',#861);
#295=VERTEX_POINT('',#865);
#296=VERTEX_POINT('',#866);
#297=VERTEX_POINT('',#868);
#298=VERTEX_POINT('',#870);
#299=VERTEX_POINT('',#873);
#300=VERTEX_POINT('',#874);
#301=VERTEX_POINT('',#876);
#302=VERTEX_POINT('',#878);
#303=VERTEX_POINT('',#881);
#304=VERTEX_POINT('',#883);
#305=VERTEX_POINT('',#885);
#306=VERTEX_POINT('',#887);
#307=VERTEX_POINT('',#889);
#308=VERTEX_POINT('',#891);
#309=VERTEX_POINT('',#893);
#310=VERTEX_POINT('',#897);
#311=VERTEX_POINT('',#898);
#312=VERTEX_POINT('',#903);
#313=VERTEX_POINT('',#905);
#314=VERTEX_POINT('',#909);
#315=VERTEX_POINT('',#911);
#316=VERTEX_POINT('',#914);
#317=VERTEX_POINT('',#916);
#318=VERTEX_POINT('',#919);
#319=VERTEX_POINT('',#921);
#320=VERTEX_POINT('',#924);
#321=VERTEX_POINT('',#926);
#322=VERTEX_POINT('',#929);
#323=VERTEX_POINT('',#931);
#324=VERTEX_POINT('',#935);
#325=VERTEX_POINT('',#936);
#326=VERTEX_POINT('',#938);
#327=VERTEX_POINT('',#940);
#328=VERTEX_POINT('',#943);
#329=VERTEX_POINT('',#944);
#330=VERTEX_POINT('',#946);
#331=VERTEX_POINT('',#948);
#332=VERTEX_POINT('',#951);
#333=VERTEX_POINT('',#952);
#334=VERTEX_POINT('',#954);
#335=VERTEX_POINT('',#956);
#336=VERTEX_POINT('',#960);
#337=VERTEX_POINT('',#962);
#338=VERTEX_POINT('',#967);
#339=VERTEX_POINT('',#970);
#340=VERTEX_POINT('',#972);
#341=VERTEX_POINT('',#975);
#342=VERTEX_POINT('',#977);
#343=VERTEX_POINT('',#981);
#344=VERTEX_POINT('',#986);
#345=VERTEX_POINT('',#988);
#346=VERTEX_POINT('',#991);
#347=VERTEX_POINT('',#993);
#348=LINE('',#857,#406);
#349=LINE('',#860,#407);
#350=LINE('',#864,#408);
#351=LINE('',#867,#409);
#352=LINE('',#869,#410);
#353=LINE('',#871,#411);
#354=LINE('',#872,#412);
#355=LINE('',#875,#413);
#356=LINE('',#877,#414);
#357=LINE('',#879,#415);
#358=LINE('',#882,#416);
#359=LINE('',#886,#417);
#360=LINE('',#890,#418);
#361=LINE('',#894,#419);
#362=LINE('',#896,#420);
#363=LINE('',#899,#421);
#364=LINE('',#904,#422);
#365=LINE('',#906,#423);
#366=LINE('',#930,#424);
#367=LINE('',#932,#425);
#368=LINE('',#934,#426);
#369=LINE('',#937,#427);
#370=LINE('',#939,#428);
#371=LINE('',#941,#429);
#372=LINE('',#942,#430);
#373=LINE('',#945,#431);
#374=LINE('',#947,#432);
#375=LINE('',#949,#433);
#376=LINE('',#950,#434);
#377=LINE('',#953,#435);
#378=LINE('',#955,#436);
#379=LINE('',#957,#437);
#380=LINE('',#959,#438);
#381=LINE('',#961,#439);
#382=LINE('',#963,#440);
#383=LINE('',#966,#441);
#384=LINE('',#969,#442);
#385=LINE('',#971,#443);
#386=LINE('',#973,#444);
#387=LINE('',#974,#445);
#388=LINE('',#976,#446);
#389=LINE('',#978,#447);
#390=LINE('',#980,#448);
#391=LINE('',#982,#449);
#392=LINE('',#985,#450);
#393=LINE('',#987,#451);
#394=LINE('',#989,#452);
#395=LINE('',#990,#453);
#396=LINE('',#992,#454);
#397=LINE('',#994,#455);
#398=LINE('',#997,#456);
#399=LINE('',#998,#457);
#400=LINE('',#1000,#458);
#401=LINE('',#1002,#459);
#402=LINE('',#1005,#460);
#403=LINE('',#1006,#461);
#404=LINE('',#1008,#462);
#405=LINE('',#1010,#463);
#406=VECTOR('',#687,1.);
#407=VECTOR('',#688,1.);
#408=VECTOR('',#693,1.);
#409=VECTOR('',#694,1.);
#410=VECTOR('',#695,1.);
#411=VECTOR('',#696,1.);
#412=VECTOR('',#697,1.);
#413=VECTOR('',#698,1.);
#414=VECTOR('',#699,1.);
#415=VECTOR('',#700,1.);
#416=VECTOR('',#703,1.);
#417=VECTOR('',#706,1.);
#418=VECTOR('',#709,1.);
#419=VECTOR('',#712,1.);
#420=VECTOR('',#715,1.);
#421=VECTOR('',#716,1.);
#422=VECTOR('',#723,1.);
#423=VECTOR('',#724,1.);
#424=VECTOR('',#753,1.);
#425=VECTOR('',#754,1.);
#426=VECTOR('',#757,1.);
#427=VECTOR('',#758,1.);
#428=VECTOR('',#759,1.);
#429=VECTOR('',#760,1.);
#430=VECTOR('',#761,1.);
#431=VECTOR('',#762,1.);
#432=VECTOR('',#763,1.);
#433=VECTOR('',#764,1.);
#434=VECTOR('',#765,1.);
#435=VECTOR('',#766,1.);
#436=VECTOR('',#767,1.);
#437=VECTOR('',#768,1.);
#438=VECTOR('',#771,1.);
#439=VECTOR('',#772,1.);
#440=VECTOR('',#773,1.);
#441=VECTOR('',#778,1.);
#442=VECTOR('',#781,1.);
#443=VECTOR('',#782,1.);
#444=VECTOR('',#783,1.);
#445=VECTOR('',#784,1.);
#446=VECTOR('',#785,1.);
#447=VECTOR('',#786,1.);
#448=VECTOR('',#789,1.);
#449=VECTOR('',#790,1.);
#450=VECTOR('',#795,1.);
#451=VECTOR('',#796,1.);
#452=VECTOR('',#797,1.);
#453=VECTOR('',#798,1.);
#454=VECTOR('',#799,1.);
#455=VECTOR('',#800,1.);
#456=VECTOR('',#805,1.);
#457=VECTOR('',#806,1.);
#458=VECTOR('',#809,1.);
#459=VECTOR('',#812,1.);
#460=VECTOR('',#817,1.);
#461=VECTOR('',#818,1.);
#462=VECTOR('',#821,1.);
#463=VECTOR('',#824,1.);
#464=EDGE_LOOP('',(#46,#47,#48));
#465=EDGE_LOOP('',(#49,#50,#51,#52));
#466=EDGE_LOOP('',(#53,#54,#55,#56));
#467=EDGE_LOOP('',(#57,#58,#59,#60,#61,#62,#63,#64));
#468=EDGE_LOOP('',(#65,#66,#67));
#469=EDGE_LOOP('',(#68,#69,#70));
#470=EDGE_LOOP('',(#71));
#471=EDGE_LOOP('',(#72));
#472=EDGE_LOOP('',(#73));
#473=EDGE_LOOP('',(#74));
#474=EDGE_LOOP('',(#75));
#475=EDGE_LOOP('',(#76));
#476=EDGE_LOOP('',(#77));
#477=EDGE_LOOP('',(#78));
#478=EDGE_LOOP('',(#79,#80,#81));
#479=EDGE_LOOP('',(#82));
#480=EDGE_LOOP('',(#83));
#481=EDGE_LOOP('',(#84));
#482=EDGE_LOOP('',(#85));
#483=EDGE_LOOP('',(#86,#87,#88,#89));
#484=EDGE_LOOP('',(#90,#91,#92,#93));
#485=EDGE_LOOP('',(#94,#95,#96,#97));
#486=EDGE_LOOP('',(#98,#99,#100,#101));
#487=EDGE_LOOP('',(#102,#103,#104,#105,#106,#107,#108,#109,#110,#111,#112,
#113,#114,#115));
#488=EDGE_LOOP('',(#116,#117,#118,#119));
#489=EDGE_LOOP('',(#120,#121,#122,#123,#124,#125,#126,#127,#128,#129,#130,
#131,#132,#133));
#490=EDGE_LOOP('',(#134,#135,#136,#137));
#491=EDGE_LOOP('',(#138,#139,#140,#141));
#492=EDGE_LOOP('',(#142,#143,#144,#145));
#493=EDGE_LOOP('',(#146,#147,#148,#149));
#494=EDGE_LOOP('',(#150,#151,#152,#153));
#495=EDGE_LOOP('',(#154,#155,#156,#157));
#496=EDGE_LOOP('',(#158,#159,#160,#161));
#497=EDGE_LOOP('',(#162,#163,#164,#165));
#498=EDGE_LOOP('',(#166,#167,#168,#169,#170));
#499=EDGE_LOOP('',(#171));
#500=EDGE_LOOP('',(#172,#173));
#501=EDGE_LOOP('',(#174,#175,#176,#177,#178));
#502=EDGE_LOOP('',(#179));
#503=EDGE_LOOP('',(#180,#181));
#504=EDGE_LOOP('',(#182,#183,#184,#185,#186));
#505=EDGE_LOOP('',(#187));
#506=EDGE_LOOP('',(#188,#189));
#507=EDGE_LOOP('',(#190,#191,#192,#193,#194));
#508=EDGE_LOOP('',(#195));
#509=EDGE_LOOP('',(#196,#197));
#510=EDGE_LOOP('',(#198,#199,#200,#201,#202,#203));
#511=EDGE_LOOP('',(#204,#205,#206,#207,#208,#209));
#512=FACE_BOUND('',#464,.T.);
#513=FACE_BOUND('',#465,.T.);
#514=FACE_BOUND('',#466,.T.);
#515=FACE_BOUND('',#467,.T.);
#516=FACE_BOUND('',#468,.T.);
#517=FACE_BOUND('',#469,.T.);
#518=FACE_BOUND('',#470,.T.);
#519=FACE_BOUND('',#471,.T.);
#520=FACE_BOUND('',#472,.T.);
#521=FACE_BOUND('',#473,.T.);
#522=FACE_BOUND('',#474,.T.);
#523=FACE_BOUND('',#475,.T.);
#524=FACE_BOUND('',#476,.T.);
#525=FACE_BOUND('',#477,.T.);
#526=FACE_BOUND('',#478,.T.);
#527=FACE_BOUND('',#479,.T.);
#528=FACE_BOUND('',#480,.T.);
#529=FACE_BOUND('',#481,.T.);
#530=FACE_BOUND('',#482,.T.);
#531=FACE_BOUND('',#483,.T.);
#532=FACE_BOUND('',#484,.T.);
#533=FACE_BOUND('',#485,.T.);
#534=FACE_BOUND('',#486,.T.);
#535=FACE_BOUND('',#487,.T.);
#536=FACE_BOUND('',#488,.T.);
#537=FACE_BOUND('',#489,.T.);
#538=FACE_BOUND('',#490,.T.);
#539=FACE_BOUND('',#491,.T.);
#540=FACE_BOUND('',#492,.T.);
#541=FACE_BOUND('',#493,.T.);
#542=FACE_BOUND('',#494,.T.);
#543=FACE_BOUND('',#495,.T.);
#544=FACE_BOUND('',#496,.T.);
#545=FACE_BOUND('',#497,.T.);
#546=FACE_BOUND('',#498,.T.);
#547=FACE_BOUND('',#499,.T.);
#548=FACE_BOUND('',#500,.T.);
#549=FACE_BOUND('',#501,.T.);
#550=FACE_BOUND('',#502,.T.);
#551=FACE_BOUND('',#503,.T.);
#552=FACE_BOUND('',#504,.T.);
#553=FACE_BOUND('',#505,.T.);
#554=FACE_BOUND('',#506,.T.);
#555=FACE_BOUND('',#507,.T.);
#556=FACE_BOUND('',#508,.T.);
#557=FACE_BOUND('',#509,.T.);
#558=FACE_BOUND('',#510,.T.);
#559=FACE_BOUND('',#511,.T.);
#560=PLANE('',#627);
#561=PLANE('',#629);
#562=PLANE('',#634);
#563=PLANE('',#636);
#564=PLANE('',#650);
#565=PLANE('',#652);
#566=PLANE('',#653);
#567=PLANE('',#654);
#568=PLANE('',#657);
#569=PLANE('',#658);
#570=PLANE('',#661);
#571=PLANE('',#662);
#572=PLANE('',#663);
#573=PLANE('',#664);
#574=PLANE('',#665);
#575=PLANE('',#666);
#576=PLANE('',#667);
#577=PLANE('',#668);
#578=PLANE('',#671);
#579=PLANE('',#674);
#580=PLANE('',#677);
#581=PLANE('',#680);
#582=ADVANCED_FACE('',(#512),#560,.T.);
#583=ADVANCED_FACE('',(#513,#514,#515),#561,.T.);
#584=ADVANCED_FACE('',(#516),#562,.T.);
#585=ADVANCED_FACE('',(#517),#563,.T.);
#586=ADVANCED_FACE('',(#518,#519),#12,.F.);
#587=ADVANCED_FACE('',(#520,#521),#13,.F.);
#588=ADVANCED_FACE('',(#522,#523),#14,.F.);
#589=ADVANCED_FACE('',(#524,#525),#15,.F.);
#590=ADVANCED_FACE('',(#526),#564,.T.);
#591=ADVANCED_FACE('',(#527,#528,#529,#530,#531,#532,#533),#565,.F.);
#592=ADVANCED_FACE('',(#534),#566,.T.);
#593=ADVANCED_FACE('',(#535),#567,.F.);
#594=ADVANCED_FACE('',(#536),#568,.F.);
#595=ADVANCED_FACE('',(#537),#569,.T.);
#596=ADVANCED_FACE('',(#538),#570,.T.);
#597=ADVANCED_FACE('',(#539),#571,.F.);
#598=ADVANCED_FACE('',(#540),#572,.F.);
#599=ADVANCED_FACE('',(#541),#573,.T.);
#600=ADVANCED_FACE('',(#542),#574,.T.);
#601=ADVANCED_FACE('',(#543),#575,.F.);
#602=ADVANCED_FACE('',(#544),#576,.F.);
#603=ADVANCED_FACE('',(#545),#577,.T.);
#604=ADVANCED_FACE('',(#546),#16,.F.);
#605=ADVANCED_FACE('',(#547,#548),#578,.T.);
#606=ADVANCED_FACE('',(#549),#17,.F.);
#607=ADVANCED_FACE('',(#550,#551),#579,.T.);
#608=ADVANCED_FACE('',(#552),#18,.F.);
#609=ADVANCED_FACE('',(#553,#554),#580,.T.);
#610=ADVANCED_FACE('',(#555),#19,.F.);
#611=ADVANCED_FACE('',(#556,#557),#581,.T.);
#612=ADVANCED_FACE('',(#558),#20,.T.);
#613=ADVANCED_FACE('',(#559),#21,.T.);
#614=CLOSED_SHELL('',(#582,#583,#584,#585,#586,#587,#588,#589,#590,#591,
#592,#593,#594,#595,#596,#597,#598,#599,#600,#601,#602,#603,#604,#605,#606,
#607,#608,#609,#610,#611,#612,#613));
#615=STYLED_ITEM('',(#616),#623);
#616=PRESENTATION_STYLE_ASSIGNMENT((#617));
#617=SURFACE_STYLE_USAGE(.BOTH.,#618);
#618=SURFACE_SIDE_STYLE('',(#619));
#619=SURFACE_STYLE_FILL_AREA(#620);
#620=FILL_AREA_STYLE('',(#621));
#621=FILL_AREA_STYLE_COLOUR('',#622);
#622=COLOUR_RGB('',0.647058823529412,0.647058823529412,0.647058823529412);
#623=MANIFOLD_SOLID_BREP('Part 2',#614);
#624=SHAPE_DEFINITION_REPRESENTATION(#1032,#625);
#625=SHAPE_REPRESENTATION('Part 2',(#626),#1027);
#626=AXIS2_PLACEMENT_3D('',#855,#683,#684);
#627=AXIS2_PLACEMENT_3D('',#856,#685,#686);
#628=AXIS2_PLACEMENT_3D('',#862,#689,#690);
#629=AXIS2_PLACEMENT_3D('',#863,#691,#692);
#630=AXIS2_PLACEMENT_3D('',#880,#701,#702);
#631=AXIS2_PLACEMENT_3D('',#884,#704,#705);
#632=AXIS2_PLACEMENT_3D('',#888,#707,#708);
#633=AXIS2_PLACEMENT_3D('',#892,#710,#711);
#634=AXIS2_PLACEMENT_3D('',#895,#713,#714);
#635=AXIS2_PLACEMENT_3D('',#900,#717,#718);
#636=AXIS2_PLACEMENT_3D('',#901,#719,#720);
#637=AXIS2_PLACEMENT_3D('',#902,#721,#722);
#638=AXIS2_PLACEMENT_3D('',#907,#725,#726);
#639=AXIS2_PLACEMENT_3D('',#908,#727,#728);
#640=AXIS2_PLACEMENT_3D('',#910,#729,#730);
#641=AXIS2_PLACEMENT_3D('',#912,#731,#732);
#642=AXIS2_PLACEMENT_3D('',#913,#733,#734);
#643=AXIS2_PLACEMENT_3D('',#915,#735,#736);
#644=AXIS2_PLACEMENT_3D('',#917,#737,#738);
#645=AXIS2_PLACEMENT_3D('',#918,#739,#740);
#646=AXIS2_PLACEMENT_3D('',#920,#741,#742);
#647=AXIS2_PLACEMENT_3D('',#922,#743,#744);
#648=AXIS2_PLACEMENT_3D('',#923,#745,#746);
#649=AXIS2_PLACEMENT_3D('',#925,#747,#748);
#650=AXIS2_PLACEMENT_3D('',#927,#749,#750);
#651=AXIS2_PLACEMENT_3D('',#928,#751,#752);
#652=AXIS2_PLACEMENT_3D('',#933,#755,#756);
#653=AXIS2_PLACEMENT_3D('',#958,#769,#770);
#654=AXIS2_PLACEMENT_3D('',#964,#774,#775);
#655=AXIS2_PLACEMENT_3D('',#965,#776,#777);
#656=AXIS2_PLACEMENT_3D('',#968,#779,#780);
#657=AXIS2_PLACEMENT_3D('',#979,#787,#788);
#658=AXIS2_PLACEMENT_3D('',#983,#791,#792);
#659=AXIS2_PLACEMENT_3D('',#984,#793,#794);
#660=AXIS2_PLACEMENT_3D('',#995,#801,#802);
#661=AXIS2_PLACEMENT_3D('',#996,#803,#804);
#662=AXIS2_PLACEMENT_3D('',#999,#807,#808);
#663=AXIS2_PLACEMENT_3D('',#1001,#810,#811);
#664=AXIS2_PLACEMENT_3D('',#1003,#813,#814);
#665=AXIS2_PLACEMENT_3D('',#1004,#815,#816);
#666=AXIS2_PLACEMENT_3D('',#1007,#819,#820);
#667=AXIS2_PLACEMENT_3D('',#1009,#822,#823);
#668=AXIS2_PLACEMENT_3D('',#1011,#825,#826);
#669=AXIS2_PLACEMENT_3D('',#1012,#827,#828);
#670=AXIS2_PLACEMENT_3D('',#1013,#829,#830);
#671=AXIS2_PLACEMENT_3D('',#1014,#831,#832);
#672=AXIS2_PLACEMENT_3D('',#1015,#833,#834);
#673=AXIS2_PLACEMENT_3D('',#1016,#835,#836);
#674=AXIS2_PLACEMENT_3D('',#1017,#837,#838);
#675=AXIS2_PLACEMENT_3D('',#1018,#839,#840);
#676=AXIS2_PLACEMENT_3D('',#1019,#841,#842);
#677=AXIS2_PLACEMENT_3D('',#1020,#843,#844);
#678=AXIS2_PLACEMENT_3D('',#1021,#845,#846);
#679=AXIS2_PLACEMENT_3D('',#1022,#847,#848);
#680=AXIS2_PLACEMENT_3D('',#1023,#849,#850);
#681=AXIS2_PLACEMENT_3D('',#1024,#851,#852);
#682=AXIS2_PLACEMENT_3D('',#1025,#853,#854);
#683=DIRECTION('',(0.,0.,1.));
#684=DIRECTION('',(1.,0.,0.));
#685=DIRECTION('',(0.,-1.,0.));
#686=DIRECTION('',(1.,0.,0.));
#687=DIRECTION('',(0.,0.,-1.));
#688=DIRECTION('',(1.,0.,0.));
#689=DIRECTION('',(0.,-1.,0.));
#690=DIRECTION('',(0.,0.,-1.));
#691=DIRECTION('',(0.,-1.,0.));
#692=DIRECTION('',(1.,0.,0.));
#693=DIRECTION('',(0.,0.,-1.));
#694=DIRECTION('',(1.,0.,0.));
#695=DIRECTION('',(0.,0.,-1.));
#696=DIRECTION('',(1.,0.,4.00320802148494E-16));
#697=DIRECTION('',(0.,0.,-1.));
#698=DIRECTION('',(1.,0.,0.));
#699=DIRECTION('',(0.,0.,-1.));
#700=DIRECTION('',(1.,0.,0.));
#701=DIRECTION('',(0.,-1.,0.));
#702=DIRECTION('',(0.,0.,-1.));
#703=DIRECTION('',(1.,0.,0.));
#704=DIRECTION('',(0.,-1.,0.));
#705=DIRECTION('',(0.,0.,-1.));
#706=DIRECTION('',(0.,0.,-1.));
#707=DIRECTION('',(0.,-1.,0.));
#708=DIRECTION('',(0.,0.,-1.));
#709=DIRECTION('',(1.,0.,0.));
#710=DIRECTION('',(0.,-1.,0.));
#711=DIRECTION('',(0.,0.,-1.));
#712=DIRECTION('',(0.,0.,-1.));
#713=DIRECTION('',(0.,-1.,0.));
#714=DIRECTION('',(1.,0.,0.));
#715=DIRECTION('',(0.,0.,-1.));
#716=DIRECTION('',(1.,0.,0.));
#717=DIRECTION('',(0.,-1.,0.));
#718=DIRECTION('',(0.,0.,-1.));
#719=DIRECTION('',(0.,-1.,0.));
#720=DIRECTION('',(1.,0.,0.));
#721=DIRECTION('',(0.,-1.,0.));
#722=DIRECTION('',(0.,0.,-1.));
#723=DIRECTION('',(1.,0.,0.));
#724=DIRECTION('',(0.,0.,-1.));
#725=DIRECTION('',(0.,-1.,0.));
#726=DIRECTION('',(0.,0.,-1.));
#727=DIRECTION('',(0.,-1.,0.));
#728=DIRECTION('',(0.,0.,-1.));
#729=DIRECTION('',(0.,-1.,0.));
#730=DIRECTION('',(0.,0.,-1.));
#731=DIRECTION('',(0.,-1.,0.));
#732=DIRECTION('',(0.,0.,-1.));
#733=DIRECTION('',(0.,-1.,0.));
#734=DIRECTION('',(0.,0.,-1.));
#735=DIRECTION('',(0.,-1.,0.));
#736=DIRECTION('',(0.,0.,-1.));
#737=DIRECTION('',(0.,-1.,0.));
#738=DIRECTION('',(0.,0.,-1.));
#739=DIRECTION('',(0.,-1.,0.));
#740=DIRECTION('',(0.,0.,-1.));
#741=DIRECTION('',(0.,-1.,0.));
#742=DIRECTION('',(0.,0.,-1.));
#743=DIRECTION('',(0.,-1.,0.));
#744=DIRECTION('',(0.,0.,-1.));
#745=DIRECTION('',(0.,-1.,0.));
#746=DIRECTION('',(0.,0.,-1.));
#747=DIRECTION('',(0.,-1.,0.));
#748=DIRECTION('',(0.,0.,-1.));
#749=DIRECTION('',(0.,-1.,0.));
#750=DIRECTION('',(1.,0.,0.));
#751=DIRECTION('',(0.,-1.,0.));
#752=DIRECTION('',(0.,0.,-1.));
#753=DIRECTION('',(1.,0.,0.));
#754=DIRECTION('',(0.,0.,-1.));
#755=DIRECTION('',(0.,-1.,0.));
#756=DIRECTION('',(1.,0.,0.));
#757=DIRECTION('',(1.,0.,0.));
#758=DIRECTION('',(0.,0.,-1.));
#759=DIRECTION('',(1.,0.,4.00320802148494E-16));
#760=DIRECTION('',(0.,0.,-1.));
#761=DIRECTION('',(1.,0.,0.));
#762=DIRECTION('',(0.,0.,-1.));
#763=DIRECTION('',(1.,0.,0.));
#764=DIRECTION('',(0.,0.,-1.));
#765=DIRECTION('',(1.,0.,0.));
#766=DIRECTION('',(0.,0.,-1.));
#767=DIRECTION('',(1.,0.,0.));
#768=DIRECTION('',(0.,0.,-1.));
#769=DIRECTION('',(0.,0.,1.));
#770=DIRECTION('',(1.,0.,0.));
#771=DIRECTION('',(0.,1.,0.));
#772=DIRECTION('',(1.,0.,0.));
#773=DIRECTION('',(0.,1.,0.));
#774=DIRECTION('',(1.,0.,0.));
#775=DIRECTION('',(0.,0.,-1.));
#776=DIRECTION('',(1.,0.,0.));
#777=DIRECTION('',(0.,0.,-1.));
#778=DIRECTION('',(0.,1.,0.));
#779=DIRECTION('',(1.,0.,0.));
#780=DIRECTION('',(0.,0.,-1.));
#781=DIRECTION('',(0.,-1.,0.));
#782=DIRECTION('',(0.,0.,-1.));
#783=DIRECTION('',(0.,-1.,0.));
#784=DIRECTION('',(0.,-1.,0.));
#785=DIRECTION('',(0.,0.,-1.));
#786=DIRECTION('',(0.,-1.,0.));
#787=DIRECTION('',(0.,0.,1.));
#788=DIRECTION('',(1.,0.,0.));
#789=DIRECTION('',(0.,1.,0.));
#790=DIRECTION('',(1.,0.,0.));
#791=DIRECTION('',(1.,0.,0.));
#792=DIRECTION('',(0.,0.,-1.));
#793=DIRECTION('',(1.,0.,0.));
#794=DIRECTION('',(0.,0.,-1.));
#795=DIRECTION('',(0.,-1.,0.));
#796=DIRECTION('',(0.,0.,-1.));
#797=DIRECTION('',(0.,-1.,0.));
#798=DIRECTION('',(0.,-1.,0.));
#799=DIRECTION('',(0.,0.,-1.));
#800=DIRECTION('',(0.,-1.,0.));
#801=DIRECTION('',(1.,0.,0.));
#802=DIRECTION('',(0.,0.,-1.));
#803=DIRECTION('',(0.,0.,-1.));
#804=DIRECTION('',(-1.,0.,0.));
#805=DIRECTION('',(0.,-1.,0.));
#806=DIRECTION('',(0.,-1.,0.));
#807=DIRECTION('',(-1.,0.,0.));
#808=DIRECTION('',(0.,0.,1.));
#809=DIRECTION('',(0.,-1.,0.));
#810=DIRECTION('',(4.00320802148494E-16,0.,-1.));
#811=DIRECTION('',(-1.,0.,-4.00320802148494E-16));
#812=DIRECTION('',(0.,-1.,0.));
#813=DIRECTION('',(-1.,0.,0.));
#814=DIRECTION('',(0.,0.,1.));
#815=DIRECTION('',(0.,0.,-1.));
#816=DIRECTION('',(-1.,0.,0.));
#817=DIRECTION('',(0.,-1.,0.));
#818=DIRECTION('',(0.,-1.,0.));
#819=DIRECTION('',(-1.,0.,0.));
#820=DIRECTION('',(0.,0.,1.));
#821=DIRECTION('',(0.,-1.,0.));
#822=DIRECTION('',(0.,0.,-1.));
#823=DIRECTION('',(-1.,0.,0.));
#824=DIRECTION('',(0.,-1.,0.));
#825=DIRECTION('',(-1.,0.,0.));
#826=DIRECTION('',(0.,0.,1.));
#827=DIRECTION('',(0.,-1.,0.));
#828=DIRECTION('',(0.,0.,-1.));
#829=DIRECTION('',(0.,-1.,0.));
#830=DIRECTION('',(0.,0.,-1.));
#831=DIRECTION('',(0.,-1.,0.));
#832=DIRECTION('',(1.,0.,0.));
#833=DIRECTION('',(0.,-1.,0.));
#834=DIRECTION('',(0.,0.,-1.));
#835=DIRECTION('',(0.,-1.,0.));
#836=DIRECTION('',(0.,0.,-1.));
#837=DIRECTION('',(0.,-1.,0.));
#838=DIRECTION('',(1.,0.,0.));
#839=DIRECTION('',(0.,-1.,0.));
#840=DIRECTION('',(0.,0.,-1.));
#841=DIRECTION('',(0.,-1.,0.));
#842=DIRECTION('',(0.,0.,-1.));
#843=DIRECTION('',(0.,-1.,0.));
#844=DIRECTION('',(1.,0.,0.));
#845=DIRECTION('',(0.,-1.,0.));
#846=DIRECTION('',(0.,0.,-1.));
#847=DIRECTION('',(0.,-1.,0.));
#848=DIRECTION('',(0.,0.,-1.));
#849=DIRECTION('',(0.,-1.,0.));
#850=DIRECTION('',(1.,0.,0.));
#851=DIRECTION('',(1.,0.,0.));
#852=DIRECTION('',(0.,0.,-1.));
#853=DIRECTION('',(-1.,0.,0.));
#854=DIRECTION('',(0.,0.,1.));
#855=CARTESIAN_POINT('',(0.,0.,0.));
#856=CARTESIAN_POINT('',(-0.00288045033812522,-0.0488942642846258,-0.0050200000000263));
#857=CARTESIAN_POINT('',(0.0471193604171276,-0.0488942642846258,-0.0050200000000263));
#858=CARTESIAN_POINT('',(0.0471193604171276,-0.0488942642846258,0.0649799999999737));
#859=CARTESIAN_POINT('',(0.0471193604171276,-0.0488942642846258,0.0639799999999737));
#860=CARTESIAN_POINT('',(-0.00288045033812522,-0.0488942642846258,0.0649799999999737));
#861=CARTESIAN_POINT('',(0.0441193604171276,-0.0488942642846258,0.0649799999999737));
#862=CARTESIAN_POINT('',(0.0441193604171276,-0.0488942642846258,0.0599799999999737));
#863=CARTESIAN_POINT('',(-0.00288045033812522,-0.0488942642846258,-0.0050200000000263));
#864=CARTESIAN_POINT('',(-0.0418802610933781,-0.0488942642846258,0.0125799999999737));
#865=CARTESIAN_POINT('',(-0.0418802610933781,-0.0488942642846258,0.0260799999999737));
#866=CARTESIAN_POINT('',(-0.0418802610933781,-0.0488942642846258,-0.000920000000026292));
#867=CARTESIAN_POINT('',(-0.00288026109337805,-0.0488942642846258,0.0260799999999737));
#868=CARTESIAN_POINT('',(0.0361197389066219,-0.0488942642846258,0.0260799999999737));
#869=CARTESIAN_POINT('',(0.0361197389066219,-0.0488942642846258,0.0125799999999737));
#870=CARTESIAN_POINT('',(0.0361197389066219,-0.0488942642846258,-0.000920000000026261));
#871=CARTESIAN_POINT('',(-0.00288026109337805,-0.0488942642846258,-0.000920000000026277));
#872=CARTESIAN_POINT('',(-0.0118802610933781,-0.0488942642846258,0.0489799999999737));
#873=CARTESIAN_POINT('',(-0.0118802610933781,-0.0488942642846258,0.0579799999999737));
#874=CARTESIAN_POINT('',(-0.0118802610933781,-0.0488942642846258,0.0399799999999737));
#875=CARTESIAN_POINT('',(-0.00288026109337807,-0.0488942642846258,0.0579799999999737));
#876=CARTESIAN_POINT('',(0.00611973890662193,-0.0488942642846258,0.0579799999999737));
#877=CARTESIAN_POINT('',(0.00611973890662193,-0.0488942642846258,0.0489799999999737));
#878=CARTESIAN_POINT('',(0.00611973890662193,-0.0488942642846258,0.0399799999999737));
#879=CARTESIAN_POINT('',(-0.00288026109337807,-0.0488942642846258,0.0399799999999737));
#880=CARTESIAN_POINT('',(0.0441193604171276,-0.0488942642846258,0.0599799999999737));
#881=CARTESIAN_POINT('',(0.0471193604171276,-0.0488942642846258,0.0559799999999737));
#882=CARTESIAN_POINT('',(-0.00288045033812522,-0.0488942642846258,0.0649799999999737));
#883=CARTESIAN_POINT('',(-0.0498802610933781,-0.0488942642846258,0.0649799999999737));
#884=CARTESIAN_POINT('',(-0.0498802610933781,-0.0488942642846258,0.0599799999999737));
#885=CARTESIAN_POINT('',(-0.0528802610933781,-0.0488942642846258,0.0559799999999737));
#886=CARTESIAN_POINT('',(-0.0528802610933781,-0.0488942642846258,-0.0050200000000263));
#887=CARTESIAN_POINT('',(-0.0528802610933781,-0.0488942642846258,-0.0660200000000263));
#888=CARTESIAN_POINT('',(-0.0498802610933781,-0.0488942642846258,-0.0700200000000263));
#889=CARTESIAN_POINT('',(-0.0498802610933781,-0.0488942642846258,-0.0750200000000263));
#890=CARTESIAN_POINT('',(0.0471193604171276,-0.0488942642846258,-0.0750200000000263));
#891=CARTESIAN_POINT('',(0.0441193604171276,-0.0488942642846258,-0.0750200000000263));
#892=CARTESIAN_POINT('',(0.0441193604171276,-0.0488942642846258,-0.0700200000000263));
#893=CARTESIAN_POINT('',(0.0471193604171276,-0.0488942642846258,-0.0660200000000263));
#894=CARTESIAN_POINT('',(0.0471193604171276,-0.0488942642846258,-0.0050200000000263));
#895=CARTESIAN_POINT('',(-0.00288045033812522,-0.0488942642846258,-0.0050200000000263));
#896=CARTESIAN_POINT('',(-0.0528802610933781,-0.0488942642846258,-0.0050200000000263));
#897=CARTESIAN_POINT('',(-0.0528802610933781,-0.0488942642846258,-0.0740200000000263));
#898=CARTESIAN_POINT('',(-0.0528802610933781,-0.0488942642846258,-0.0750200000000263));
#899=CARTESIAN_POINT('',(0.0471193604171276,-0.0488942642846258,-0.0750200000000263));
#900=CARTESIAN_POINT('',(-0.0498802610933781,-0.0488942642846258,-0.0700200000000263));
#901=CARTESIAN_POINT('',(-0.00288045033812522,-0.0488942642846258,-0.0050200000000263));
#902=CARTESIAN_POINT('',(-0.0498802610933781,-0.0488942642846258,0.0599799999999737));
#903=CARTESIAN_POINT('',(-0.0528802610933781,-0.0488942642846258,0.0639799999999737));
#904=CARTESIAN_POINT('',(-0.00288045033812522,-0.0488942642846258,0.0649799999999737));
#905=CARTESIAN_POINT('',(-0.0528802610933781,-0.0488942642846258,0.0649799999999737));
#906=CARTESIAN_POINT('',(-0.0528802610933781,-0.0488942642846258,-0.0050200000000263));
#907=CARTESIAN_POINT('',(-0.0498802610933781,-0.0238942642846258,-0.0700200000000263));
#908=CARTESIAN_POINT('',(-0.0498802610933781,-0.0388942642846258,-0.0700200000000263));
#909=CARTESIAN_POINT('',(-0.0498802610933781,-0.0388942642846258,-0.0722700000000263));
#910=CARTESIAN_POINT('',(-0.0498802610933781,-0.0458942642846258,-0.0700200000000263));
#911=CARTESIAN_POINT('',(-0.0498802610933781,-0.0458942642846258,-0.0722700000000263));
#912=CARTESIAN_POINT('',(0.0441193604171276,-0.0238942642846258,0.0599799999999737));
#913=CARTESIAN_POINT('',(0.0441193604171276,-0.0388942642846258,0.0599799999999737));
#914=CARTESIAN_POINT('',(0.0441193604171276,-0.0388942642846258,0.0577299999999737));
#915=CARTESIAN_POINT('',(0.0441193604171276,-0.0458942642846258,0.0599799999999737));
#916=CARTESIAN_POINT('',(0.0441193604171276,-0.0458942642846258,0.0577299999999737));
#917=CARTESIAN_POINT('',(-0.0498802610933781,-0.0238942642846258,0.0599799999999737));
#918=CARTESIAN_POINT('',(-0.0498802610933781,-0.0388942642846258,0.0599799999999737));
#919=CARTESIAN_POINT('',(-0.0498802610933781,-0.0388942642846258,0.0577299999999737));
#920=CARTESIAN_POINT('',(-0.0498802610933781,-0.0458942642846258,0.0599799999999737));
#921=CARTESIAN_POINT('',(-0.0498802610933781,-0.0458942642846258,0.0577299999999737));
#922=CARTESIAN_POINT('',(0.0441193604171276,-0.0238942642846258,-0.0700200000000263));
#923=CARTESIAN_POINT('',(0.0441193604171276,-0.0388942642846258,-0.0700200000000263));
#924=CARTESIAN_POINT('',(0.0441193604171276,-0.0388942642846258,-0.0722700000000263));
#925=CARTESIAN_POINT('',(0.0441193604171276,-0.0458942642846258,-0.0700200000000263));
#926=CARTESIAN_POINT('',(0.0441193604171276,-0.0458942642846258,-0.0722700000000263));
#927=CARTESIAN_POINT('',(-0.00288045033812522,-0.0488942642846258,-0.0050200000000263));
#928=CARTESIAN_POINT('',(0.0441193604171276,-0.0488942642846258,-0.0700200000000263));
#929=CARTESIAN_POINT('',(0.0471193604171276,-0.0488942642846258,-0.0740200000000263));
#930=CARTESIAN_POINT('',(0.0471193604171276,-0.0488942642846258,-0.0750200000000263));
#931=CARTESIAN_POINT('',(0.0471193604171276,-0.0488942642846258,-0.0750200000000263));
#932=CARTESIAN_POINT('',(0.0471193604171276,-0.0488942642846258,-0.0050200000000263));
#933=CARTESIAN_POINT('',(-0.00288045033812522,-0.0388942642846258,-0.0050200000000263));
#934=CARTESIAN_POINT('',(-0.00288045033812522,-0.0388942642846258,0.0260799999999737));
#935=CARTESIAN_POINT('',(-0.0418802610933781,-0.0388942642846258,0.0260799999999737));
#936=CARTESIAN_POINT('',(0.0361197389066219,-0.0388942642846258,0.0260799999999737));
#937=CARTESIAN_POINT('',(-0.0418802610933781,-0.0388942642846258,-0.0050200000000263));
#938=CARTESIAN_POINT('',(-0.0418802610933781,-0.0388942642846258,-0.000920000000026292));
#939=CARTESIAN_POINT('',(-0.00288045033812522,-0.0388942642846258,-0.000920000000026277));
#940=CARTESIAN_POINT('',(0.0361197389066219,-0.0388942642846258,-0.000920000000026261));
#941=CARTESIAN_POINT('',(0.0361197389066219,-0.0388942642846258,-0.0050200000000263));
#942=CARTESIAN_POINT('',(-0.00288045033812523,-0.0388942642846258,0.0699799999999737));
#943=CARTESIAN_POINT('',(-0.0528802610933781,-0.0388942642846258,0.0699799999999737));
#944=CARTESIAN_POINT('',(0.0471193604171276,-0.0388942642846258,0.0699799999999737));
#945=CARTESIAN_POINT('',(0.0471193604171276,-0.0388942642846258,-0.0050200000000263));
#946=CARTESIAN_POINT('',(0.0471193604171276,-0.0388942642846258,-0.0800200000000263));
#947=CARTESIAN_POINT('',(-0.00288045033812523,-0.0388942642846258,-0.0800200000000263));
#948=CARTESIAN_POINT('',(-0.0528802610933781,-0.0388942642846258,-0.0800200000000263));
#949=CARTESIAN_POINT('',(-0.0528802610933781,-0.0388942642846258,-0.0050200000000263));
#950=CARTESIAN_POINT('',(-0.00288045033812522,-0.0388942642846258,0.0579799999999737));
#951=CARTESIAN_POINT('',(-0.0118802610933781,-0.0388942642846258,0.0579799999999737));
#952=CARTESIAN_POINT('',(0.00611973890662193,-0.0388942642846258,0.0579799999999737));
#953=CARTESIAN_POINT('',(-0.0118802610933781,-0.0388942642846258,-0.0050200000000263));
#954=CARTESIAN_POINT('',(-0.0118802610933781,-0.0388942642846258,0.0399799999999737));
#955=CARTESIAN_POINT('',(-0.00288045033812522,-0.0388942642846258,0.0399799999999737));
#956=CARTESIAN_POINT('',(0.00611973890662193,-0.0388942642846258,0.0399799999999737));
#957=CARTESIAN_POINT('',(0.00611973890662193,-0.0388942642846258,-0.0050200000000263));
#958=CARTESIAN_POINT('',(-0.00288045033812523,-0.0488942642846258,0.0699799999999737));
#959=CARTESIAN_POINT('',(-0.0528802610933781,-0.0488942642846258,0.0699799999999737));
#960=CARTESIAN_POINT('',(-0.0528802610933781,-0.0438942642846257,0.0699799999999737));
#961=CARTESIAN_POINT('',(-0.00288045033812523,-0.0438942642846257,0.0699799999999737));
#962=CARTESIAN_POINT('',(0.0471193604171276,-0.0438942642846257,0.0699799999999737));
#963=CARTESIAN_POINT('',(0.0471193604171276,-0.0488942642846258,0.0699799999999737));
#964=CARTESIAN_POINT('',(-0.0528802610933781,-0.0488942642846258,-0.0050200000000263));
#965=CARTESIAN_POINT('',(-0.0528802610933781,-0.0438942642846257,0.0649799999999737));
#966=CARTESIAN_POINT('',(-0.0528802610933781,-0.0488942642846258,-0.0800200000000263));
#967=CARTESIAN_POINT('',(-0.0528802610933781,-0.0438942642846257,-0.0800200000000263));
#968=CARTESIAN_POINT('',(-0.0528802610933781,-0.0438942642846257,-0.0750200000000263));
#969=CARTESIAN_POINT('',(-0.0528802610933781,-0.0458942642846258,-0.0740200000000263));
#970=CARTESIAN_POINT('',(-0.0528802610933781,-0.0458942642846258,-0.0740200000000263));
#971=CARTESIAN_POINT('',(-0.0528802610933781,-0.0458942642846258,-0.0050200000000263));
#972=CARTESIAN_POINT('',(-0.0528802610933781,-0.0458942642846258,-0.0660200000000263));
#973=CARTESIAN_POINT('',(-0.0528802610933781,-0.0458942642846258,-0.0660200000000263));
#974=CARTESIAN_POINT('',(-0.0528802610933781,-0.0458942642846258,0.0559799999999737));
#975=CARTESIAN_POINT('',(-0.0528802610933781,-0.0458942642846258,0.0559799999999737));
#976=CARTESIAN_POINT('',(-0.0528802610933781,-0.0458942642846258,-0.0050200000000263));
#977=CARTESIAN_POINT('',(-0.0528802610933781,-0.0458942642846258,0.0639799999999737));
#978=CARTESIAN_POINT('',(-0.0528802610933781,-0.0458942642846258,0.0639799999999737));
#979=CARTESIAN_POINT('',(-0.00288045033812523,-0.0488942642846258,-0.0800200000000263));
#980=CARTESIAN_POINT('',(0.0471193604171276,-0.0488942642846258,-0.0800200000000263));
#981=CARTESIAN_POINT('',(0.0471193604171276,-0.0438942642846257,-0.0800200000000263));
#982=CARTESIAN_POINT('',(-0.0528802610933781,-0.0438942642846257,-0.0800200000000263));
#983=CARTESIAN_POINT('',(0.0471193604171276,-0.0488942642846258,-0.0050200000000263));
#984=CARTESIAN_POINT('',(0.0471193604171276,-0.0438942642846257,0.0649799999999737));
#985=CARTESIAN_POINT('',(0.0471193604171276,-0.0458942642846258,0.0639799999999737));
#986=CARTESIAN_POINT('',(0.0471193604171276,-0.0458942642846258,0.0639799999999737));
#987=CARTESIAN_POINT('',(0.0471193604171276,-0.0458942642846258,-0.0050200000000263));
#988=CARTESIAN_POINT('',(0.0471193604171276,-0.0458942642846258,0.0559799999999737));
#989=CARTESIAN_POINT('',(0.0471193604171276,-0.0458942642846258,0.0559799999999737));
#990=CARTESIAN_POINT('',(0.0471193604171276,-0.0458942642846258,-0.0660200000000263));
#991=CARTESIAN_POINT('',(0.0471193604171276,-0.0458942642846258,-0.0660200000000263));
#992=CARTESIAN_POINT('',(0.0471193604171276,-0.0458942642846258,-0.0050200000000263));
#993=CARTESIAN_POINT('',(0.0471193604171276,-0.0458942642846258,-0.0740200000000263));
#994=CARTESIAN_POINT('',(0.0471193604171276,-0.0458942642846258,-0.0740200000000263));
#995=CARTESIAN_POINT('',(0.0471193604171276,-0.0438942642846257,-0.0750200000000263));
#996=CARTESIAN_POINT('',(-0.00288026109337805,-0.0238942642846258,0.0260799999999737));
#997=CARTESIAN_POINT('',(0.0361197389066219,-0.0238942642846258,0.0260799999999737));
#998=CARTESIAN_POINT('',(-0.0418802610933781,-0.0238942642846258,0.0260799999999737));
#999=CARTESIAN_POINT('',(-0.0418802610933781,-0.0238942642846258,0.0125799999999737));
#1000=CARTESIAN_POINT('',(-0.0418802610933781,-0.0238942642846258,-0.000920000000026292));
#1001=CARTESIAN_POINT('',(-0.00288026109337805,-0.0238942642846258,-0.000920000000026277));
#1002=CARTESIAN_POINT('',(0.0361197389066219,-0.0238942642846258,-0.000920000000026261));
#1003=CARTESIAN_POINT('',(0.0361197389066219,-0.0238942642846258,0.0125799999999737));
#1004=CARTESIAN_POINT('',(-0.00288026109337807,-0.0238942642846258,0.0579799999999737));
#1005=CARTESIAN_POINT('',(0.00611973890662193,-0.0238942642846258,0.0579799999999737));
#1006=CARTESIAN_POINT('',(-0.0118802610933781,-0.0238942642846258,0.0579799999999737));
#1007=CARTESIAN_POINT('',(-0.0118802610933781,-0.0238942642846258,0.0489799999999737));
#1008=CARTESIAN_POINT('',(-0.0118802610933781,-0.0238942642846258,0.0399799999999737));
#1009=CARTESIAN_POINT('',(-0.00288026109337807,-0.0238942642846258,0.0399799999999737));
#1010=CARTESIAN_POINT('',(0.00611973890662193,-0.0238942642846258,0.0399799999999737));
#1011=CARTESIAN_POINT('',(0.00611973890662193,-0.0238942642846258,0.0489799999999737));
#1012=CARTESIAN_POINT('',(0.0441193604171276,-0.0458942642846258,-0.0700200000000263));
#1013=CARTESIAN_POINT('',(0.0441193604171276,-0.0458942642846258,-0.0700200000000263));
#1014=CARTESIAN_POINT('',(-0.00288045033812522,-0.0458942642846258,-0.0050200000000263));
#1015=CARTESIAN_POINT('',(-0.0498802610933781,-0.0458942642846258,0.0599799999999737));
#1016=CARTESIAN_POINT('',(-0.0498802610933781,-0.0458942642846258,0.0599799999999737));
#1017=CARTESIAN_POINT('',(-0.00288045033812522,-0.0458942642846258,-0.0050200000000263));
#1018=CARTESIAN_POINT('',(0.0441193604171276,-0.0458942642846258,0.0599799999999737));
#1019=CARTESIAN_POINT('',(0.0441193604171276,-0.0458942642846258,0.0599799999999737));
#1020=CARTESIAN_POINT('',(-0.00288045033812522,-0.0458942642846258,-0.0050200000000263));
#1021=CARTESIAN_POINT('',(-0.0498802610933781,-0.0458942642846258,-0.0700200000000263));
#1022=CARTESIAN_POINT('',(-0.0498802610933781,-0.0458942642846258,-0.0700200000000263));
#1023=CARTESIAN_POINT('',(-0.00288045033812522,-0.0458942642846258,-0.0050200000000263));
#1024=CARTESIAN_POINT('',(-0.00288045033812523,-0.0438942642846257,0.0649799999999737));
#1025=CARTESIAN_POINT('',(-0.00288045033812522,-0.0438942642846257,-0.0750200000000263));
#1026=MECHANICAL_DESIGN_GEOMETRIC_PRESENTATION_REPRESENTATION('',(#615),
#1027);
#1027=(
GEOMETRIC_REPRESENTATION_CONTEXT(3)
GLOBAL_UNCERTAINTY_ASSIGNED_CONTEXT((#1028))
GLOBAL_UNIT_ASSIGNED_CONTEXT((#1031,#1030,#1029))
REPRESENTATION_CONTEXT('Part 2','TOP_LEVEL_ASSEMBLY_PART')
);
#1028=UNCERTAINTY_MEASURE_WITH_UNIT(LENGTH_MEASURE(1.E-8),#1031,
'DISTANCE_ACCURACY_VALUE','Maximum Tolerance applied to model');
#1029=(
NAMED_UNIT(*)
SI_UNIT($,.STERADIAN.)
SOLID_ANGLE_UNIT()
);
#1030=(
NAMED_UNIT(*)
PLANE_ANGLE_UNIT()
SI_UNIT($,.RADIAN.)
);
#1031=(
LENGTH_UNIT()
NAMED_UNIT(*)
SI_UNIT($,.METRE.)
);
#1032=PRODUCT_DEFINITION_SHAPE('','',#1033);
#1033=PRODUCT_DEFINITION('','',#1035,#1034);
#1034=PRODUCT_DEFINITION_CONTEXT('',#1041,'design');
#1035=PRODUCT_DEFINITION_FORMATION_WITH_SPECIFIED_SOURCE('','',#1037,
 .NOT_KNOWN.);
#1036=PRODUCT_RELATED_PRODUCT_CATEGORY('','',(#1037));
#1037=PRODUCT('Part 2','Part 2','Part 2',(#1039));
#1038=PRODUCT_CATEGORY('','');
#1039=PRODUCT_CONTEXT('',#1041,'mechanical');
#1040=APPLICATION_PROTOCOL_DEFINITION('international standard',
'ap242_managed_model_based_3d_engineering',2020,#1041);
#1041=APPLICATION_CONTEXT('managed model based 3d engineering');
ENDSEC;
END-ISO-10303-21;
