ISO-10303-21;
HEADER;
/* Generated by software containing ST-Developer
 * from STEP Tools, Inc. (www.steptools.com) 
 */
/* OPTION: using custom renumber hook */

FILE_DESCRIPTION(
/* description */ ('STEP AP242 Edition 2',
'CAx-IF Rec.Pracs.---Representation and Presentation of Product Manufa
cturing Information (PMI)---4.0---2014-10-13',
'CAx-IF Rec.Pracs.---3D Tessellated Geometry---0.4---2014-09-14','2;1',
'CAx-IF Rec.Pracs.---User Defined Attributes---1.5---2016-08-15'),
/* implementation_level */ '2;1');

FILE_NAME(
/* name */ 'ESP8266 - Part 3',
/* time_stamp */ '2026-09-15T18:05:05Z',
/* author */ (''),
/* organization */ (''),
/* preprocessor_version */ 'ST-DEVELOPER v20',
/* originating_system */ 'ONSHAPE BY PTC INC, 1.220',
/* authorisation */ '  ');

FILE_SCHEMA (('AP242_MANAGED_MODEL_BASED_3D_ENGINEERING_MIM_LF { 1 0 10303 442 3 1 4 }'));
ENDSEC;

DATA;
#10=SHAPE_REPRESENTATION_RELATIONSHIP('','',#535,#11);
#11=ADVANCED_BREP_SHAPE_REPRESENTATION('',(#533),#987);
#12=SPHERICAL_SURFACE('',#580,0.005);
#13=SPHERICAL_SURFACE('',#593,0.005);
#14=B_SPLINE_CURVE_WITH_KNOTS('',3,(#857,#858,#859,#860,#861,#862),
 .UNSPECIFIED.,.F.,.F.,(4,1,1,4),(0.000842311012528463,0.00249166256482418,
0.00414101411711989,0.00743971722171133),.UNSPECIFIED.);
#15=B_SPLINE_CURVE_WITH_KNOTS('',3,(#864,#865,#866,#867,#868,#869,#870),
 .UNSPECIFIED.,.F.,.F.,(4,1,1,1,4),(0.,0.00185992930542783,0.00371985861085566,
0.00557978791628349,0.00743971722171133),.UNSPECIFIED.);
#16=B_SPLINE_CURVE_WITH_KNOTS('',3,(#871,#872,#873,#874),.UNSPECIFIED.,
 .F.,.F.,(4,4),(-1.45799650490105E-5,0.00626093604872136),.UNSPECIFIED.);
#17=B_SPLINE_CURVE_WITH_KNOTS('',3,(#878,#879,#880,#881,#882,#883),
 .UNSPECIFIED.,.F.,.F.,(4,1,1,4),(0.000842311012507262,0.00249166256480827,
0.00414101411710929,0.00743971722171131),.UNSPECIFIED.);
#18=B_SPLINE_CURVE_WITH_KNOTS('',3,(#885,#886,#887,#888,#889,#890,#891),
 .UNSPECIFIED.,.F.,.F.,(4,1,1,1,4),(0.,0.00185992930542783,0.00371985861085566,
0.00557978791628348,0.00743971722171131),.UNSPECIFIED.);
#19=B_SPLINE_CURVE_WITH_KNOTS('',3,(#895,#896,#897,#898,#899,#900),
 .UNSPECIFIED.,.F.,.F.,(4,1,1,4),(0.000842311012507262,0.00249166256480827,
0.00414101411710929,0.00743971722171131),.UNSPECIFIED.);
#20=B_SPLINE_CURVE_WITH_KNOTS('',3,(#902,#903,#904,#905,#906,#907),
 .UNSPECIFIED.,.F.,.F.,(4,1,1,4),(0.000842311012475472,0.00249166256478444,
0.0041410141170934,0.00743971722171134),.UNSPECIFIED.);
#21=B_SPLINE_CURVE_WITH_KNOTS('',3,(#908,#909,#910,#911),.UNSPECIFIED.,
 .F.,.F.,(4,4),(-1.45799650490295E-5,0.00626093604871707),.UNSPECIFIED.);
#22=B_SPLINE_CURVE_WITH_KNOTS('',3,(#913,#914,#915,#916,#917,#918),
 .UNSPECIFIED.,.F.,.F.,(4,1,1,4),(0.000842311012507312,0.00249166256480832,
0.00414101411710932,0.00743971722171132),.UNSPECIFIED.);
#23=B_SPLINE_CURVE_WITH_KNOTS('',3,(#920,#921,#922,#923),.UNSPECIFIED.,
 .F.,.F.,(4,4),(-1.45799650490105E-5,0.00626093604871709),.UNSPECIFIED.);
#24=B_SPLINE_CURVE_WITH_KNOTS('',3,(#925,#926,#927,#928),.UNSPECIFIED.,
 .F.,.F.,(4,4),(0.00030100959753332,0.0102804444366802),.UNSPECIFIED.);
#25=B_SPLINE_CURVE_WITH_KNOTS('',3,(#930,#931,#932,#933),.UNSPECIFIED.,
 .F.,.F.,(4,4),(0.,0.00283027395691907),.UNSPECIFIED.);
#26=B_SPLINE_CURVE_WITH_KNOTS('',3,(#935,#936,#937,#938),.UNSPECIFIED.,
 .F.,.F.,(4,4),(0.00221507265334239,0.00312329517599578),.UNSPECIFIED.);
#27=B_SPLINE_CURVE_WITH_KNOTS('',3,(#939,#940,#941,#942,#943),
 .UNSPECIFIED.,.F.,.F.,(4,1,4),(0.0019193578354382,0.00467953752857476,
0.00743971722171131),.UNSPECIFIED.);
#28=B_SPLINE_CURVE_WITH_KNOTS('',3,(#945,#946,#947,#948,#949,#950),
 .UNSPECIFIED.,.F.,.F.,(4,1,1,4),(0.00084231101250726,0.00249166256480827,
0.00414101411710928,0.0074397172217113),.UNSPECIFIED.);
#29=B_SPLINE_CURVE_WITH_KNOTS('',3,(#952,#953,#954,#955),.UNSPECIFIED.,
 .F.,.F.,(4,4),(0.00055584520922263,0.00146630815556867),.UNSPECIFIED.);
#30=B_SPLINE_CURVE_WITH_KNOTS('',3,(#957,#958,#959,#960),.UNSPECIFIED.,
 .F.,.F.,(4,4),(-1.45799650490296E-5,0.00626093604871707),.UNSPECIFIED.);
#31=B_SPLINE_CURVE_WITH_KNOTS('',3,(#962,#963,#964,#965,#966),
 .UNSPECIFIED.,.F.,.F.,(4,1,4),(0.00191935783543833,0.00467953752857482,
0.00743971722171131),.UNSPECIFIED.);
#32=B_SPLINE_CURVE_WITH_KNOTS('',3,(#968,#969,#970,#971),.UNSPECIFIED.,
 .F.,.F.,(4,4),(0.00390050961690865,0.00671871959829728),.UNSPECIFIED.);
#33=B_SPLINE_CURVE_WITH_KNOTS('',3,(#973,#974,#975,#976,#977,#978),
 .UNSPECIFIED.,.F.,.F.,(4,1,1,4),(-1.50512326809131E-5,0.00247511962274943,
0.00496529047817977,0.00994563218904045),.UNSPECIFIED.);
#34=TOROIDAL_SURFACE('',#577,0.011,0.005);
#35=TOROIDAL_SURFACE('',#582,0.011,0.005);
#36=TOROIDAL_SURFACE('',#584,0.011,0.005);
#37=TOROIDAL_SURFACE('',#586,0.011,0.005);
#38=TOROIDAL_SURFACE('',#588,0.011,0.005);
#39=TOROIDAL_SURFACE('',#590,0.011,0.005);
#40=ELLIPSE('',#559,0.00707106781186547,0.005);
#41=ELLIPSE('',#560,0.00707106781186547,0.005);
#42=CYLINDRICAL_SURFACE('',#558,0.005);
#43=CYLINDRICAL_SURFACE('',#561,0.005);
#44=CYLINDRICAL_SURFACE('',#563,0.005);
#45=CYLINDRICAL_SURFACE('',#565,0.005);
#46=CYLINDRICAL_SURFACE('',#568,0.006);
#47=CYLINDRICAL_SURFACE('',#571,0.006);
#48=CYLINDRICAL_SURFACE('',#574,0.006);
#49=CYLINDRICAL_SURFACE('',#578,0.005);
#50=CYLINDRICAL_SURFACE('',#579,0.005);
#51=CYLINDRICAL_SURFACE('',#583,0.005);
#52=CYLINDRICAL_SURFACE('',#585,0.005);
#53=CYLINDRICAL_SURFACE('',#587,0.005);
#54=CYLINDRICAL_SURFACE('',#589,0.005);
#55=CYLINDRICAL_SURFACE('',#591,0.005);
#56=CYLINDRICAL_SURFACE('',#594,0.015);
#57=CIRCLE('',#538,0.005);
#58=CIRCLE('',#539,0.005);
#59=CIRCLE('',#541,0.005);
#60=CIRCLE('',#542,0.005);
#61=CIRCLE('',#544,0.011);
#62=CIRCLE('',#545,0.011);
#63=CIRCLE('',#546,0.011);
#64=CIRCLE('',#549,0.005);
#65=CIRCLE('',#550,0.005);
#66=CIRCLE('',#552,0.011);
#67=CIRCLE('',#553,0.011);
#68=CIRCLE('',#554,0.011);
#69=CIRCLE('',#557,0.015);
#70=CIRCLE('',#562,0.005);
#71=CIRCLE('',#564,0.005);
#72=CIRCLE('',#566,0.005);
#73=CIRCLE('',#567,0.005);
#74=CIRCLE('',#569,0.006);
#75=CIRCLE('',#570,0.006);
#76=CIRCLE('',#572,0.006);
#77=CIRCLE('',#573,0.006);
#78=CIRCLE('',#575,0.006);
#79=CIRCLE('',#576,0.006);
#80=CIRCLE('',#581,0.005);
#81=CIRCLE('',#592,0.005);
#82=CIRCLE('',#595,0.015);
#83=ORIENTED_EDGE('',*,*,#235,.F.);
#84=ORIENTED_EDGE('',*,*,#236,.T.);
#85=ORIENTED_EDGE('',*,*,#237,.T.);
#86=ORIENTED_EDGE('',*,*,#238,.T.);
#87=ORIENTED_EDGE('',*,*,#239,.T.);
#88=ORIENTED_EDGE('',*,*,#240,.T.);
#89=ORIENTED_EDGE('',*,*,#241,.T.);
#90=ORIENTED_EDGE('',*,*,#242,.T.);
#91=ORIENTED_EDGE('',*,*,#243,.T.);
#92=ORIENTED_EDGE('',*,*,#244,.T.);
#93=ORIENTED_EDGE('',*,*,#245,.T.);
#94=ORIENTED_EDGE('',*,*,#246,.T.);
#95=ORIENTED_EDGE('',*,*,#247,.F.);
#96=ORIENTED_EDGE('',*,*,#248,.T.);
#97=ORIENTED_EDGE('',*,*,#249,.T.);
#98=ORIENTED_EDGE('',*,*,#250,.T.);
#99=ORIENTED_EDGE('',*,*,#251,.T.);
#100=ORIENTED_EDGE('',*,*,#252,.T.);
#101=ORIENTED_EDGE('',*,*,#253,.T.);
#102=ORIENTED_EDGE('',*,*,#254,.F.);
#103=ORIENTED_EDGE('',*,*,#255,.T.);
#104=ORIENTED_EDGE('',*,*,#256,.T.);
#105=ORIENTED_EDGE('',*,*,#257,.T.);
#106=ORIENTED_EDGE('',*,*,#247,.T.);
#107=ORIENTED_EDGE('',*,*,#258,.T.);
#108=ORIENTED_EDGE('',*,*,#259,.T.);
#109=ORIENTED_EDGE('',*,*,#260,.T.);
#110=ORIENTED_EDGE('',*,*,#261,.T.);
#111=ORIENTED_EDGE('',*,*,#262,.T.);
#112=ORIENTED_EDGE('',*,*,#263,.T.);
#113=ORIENTED_EDGE('',*,*,#254,.T.);
#114=ORIENTED_EDGE('',*,*,#264,.F.);
#115=ORIENTED_EDGE('',*,*,#265,.T.);
#116=ORIENTED_EDGE('',*,*,#266,.T.);
#117=ORIENTED_EDGE('',*,*,#235,.T.);
#118=ORIENTED_EDGE('',*,*,#267,.T.);
#119=ORIENTED_EDGE('',*,*,#268,.F.);
#120=ORIENTED_EDGE('',*,*,#246,.F.);
#121=ORIENTED_EDGE('',*,*,#269,.T.);
#122=ORIENTED_EDGE('',*,*,#264,.T.);
#123=ORIENTED_EDGE('',*,*,#258,.F.);
#124=ORIENTED_EDGE('',*,*,#270,.F.);
#125=ORIENTED_EDGE('',*,*,#269,.F.);
#126=ORIENTED_EDGE('',*,*,#271,.F.);
#127=ORIENTED_EDGE('',*,*,#250,.F.);
#128=ORIENTED_EDGE('',*,*,#245,.F.);
#129=ORIENTED_EDGE('',*,*,#272,.T.);
#130=ORIENTED_EDGE('',*,*,#251,.F.);
#131=ORIENTED_EDGE('',*,*,#271,.T.);
#132=ORIENTED_EDGE('',*,*,#253,.F.);
#133=ORIENTED_EDGE('',*,*,#273,.T.);
#134=ORIENTED_EDGE('',*,*,#259,.F.);
#135=ORIENTED_EDGE('',*,*,#270,.T.);
#136=ORIENTED_EDGE('',*,*,#252,.F.);
#137=ORIENTED_EDGE('',*,*,#274,.T.);
#138=ORIENTED_EDGE('',*,*,#265,.F.);
#139=ORIENTED_EDGE('',*,*,#275,.T.);
#140=ORIENTED_EDGE('',*,*,#276,.T.);
#141=ORIENTED_EDGE('',*,*,#277,.T.);
#142=ORIENTED_EDGE('',*,*,#278,.T.);
#143=ORIENTED_EDGE('',*,*,#279,.T.);
#144=ORIENTED_EDGE('',*,*,#280,.T.);
#145=ORIENTED_EDGE('',*,*,#281,.T.);
#146=ORIENTED_EDGE('',*,*,#282,.T.);
#147=ORIENTED_EDGE('',*,*,#283,.T.);
#148=ORIENTED_EDGE('',*,*,#241,.F.);
#149=ORIENTED_EDGE('',*,*,#284,.T.);
#150=ORIENTED_EDGE('',*,*,#285,.T.);
#151=ORIENTED_EDGE('',*,*,#286,.T.);
#152=ORIENTED_EDGE('',*,*,#287,.F.);
#153=ORIENTED_EDGE('',*,*,#277,.F.);
#154=ORIENTED_EDGE('',*,*,#288,.F.);
#155=ORIENTED_EDGE('',*,*,#255,.F.);
#156=ORIENTED_EDGE('',*,*,#263,.F.);
#157=ORIENTED_EDGE('',*,*,#289,.F.);
#158=ORIENTED_EDGE('',*,*,#278,.F.);
#159=ORIENTED_EDGE('',*,*,#287,.T.);
#160=ORIENTED_EDGE('',*,*,#290,.F.);
#161=ORIENTED_EDGE('',*,*,#291,.F.);
#162=ORIENTED_EDGE('',*,*,#288,.T.);
#163=ORIENTED_EDGE('',*,*,#276,.F.);
#164=ORIENTED_EDGE('',*,*,#292,.F.);
#165=ORIENTED_EDGE('',*,*,#256,.F.);
#166=ORIENTED_EDGE('',*,*,#273,.F.);
#167=ORIENTED_EDGE('',*,*,#275,.F.);
#168=ORIENTED_EDGE('',*,*,#293,.F.);
#169=ORIENTED_EDGE('',*,*,#294,.F.);
#170=ORIENTED_EDGE('',*,*,#281,.F.);
#171=ORIENTED_EDGE('',*,*,#295,.F.);
#172=ORIENTED_EDGE('',*,*,#289,.T.);
#173=ORIENTED_EDGE('',*,*,#262,.F.);
#174=ORIENTED_EDGE('',*,*,#296,.F.);
#175=ORIENTED_EDGE('',*,*,#295,.T.);
#176=ORIENTED_EDGE('',*,*,#280,.F.);
#177=ORIENTED_EDGE('',*,*,#297,.F.);
#178=ORIENTED_EDGE('',*,*,#290,.T.);
#179=ORIENTED_EDGE('',*,*,#279,.F.);
#180=ORIENTED_EDGE('',*,*,#291,.T.);
#181=ORIENTED_EDGE('',*,*,#298,.F.);
#182=ORIENTED_EDGE('',*,*,#248,.F.);
#183=ORIENTED_EDGE('',*,*,#257,.F.);
#184=ORIENTED_EDGE('',*,*,#292,.T.);
#185=ORIENTED_EDGE('',*,*,#299,.F.);
#186=ORIENTED_EDGE('',*,*,#260,.F.);
#187=ORIENTED_EDGE('',*,*,#293,.T.);
#188=ORIENTED_EDGE('',*,*,#267,.F.);
#189=ORIENTED_EDGE('',*,*,#238,.F.);
#190=ORIENTED_EDGE('',*,*,#300,.F.);
#191=ORIENTED_EDGE('',*,*,#284,.F.);
#192=ORIENTED_EDGE('',*,*,#240,.F.);
#193=ORIENTED_EDGE('',*,*,#301,.F.);
#194=ORIENTED_EDGE('',*,*,#296,.T.);
#195=ORIENTED_EDGE('',*,*,#261,.F.);
#196=ORIENTED_EDGE('',*,*,#299,.T.);
#197=ORIENTED_EDGE('',*,*,#302,.F.);
#198=ORIENTED_EDGE('',*,*,#303,.F.);
#199=ORIENTED_EDGE('',*,*,#282,.F.);
#200=ORIENTED_EDGE('',*,*,#294,.T.);
#201=ORIENTED_EDGE('',*,*,#301,.T.);
#202=ORIENTED_EDGE('',*,*,#239,.F.);
#203=ORIENTED_EDGE('',*,*,#304,.F.);
#204=ORIENTED_EDGE('',*,*,#283,.F.);
#205=ORIENTED_EDGE('',*,*,#303,.T.);
#206=ORIENTED_EDGE('',*,*,#305,.F.);
#207=ORIENTED_EDGE('',*,*,#249,.F.);
#208=ORIENTED_EDGE('',*,*,#298,.T.);
#209=ORIENTED_EDGE('',*,*,#297,.T.);
#210=ORIENTED_EDGE('',*,*,#306,.F.);
#211=ORIENTED_EDGE('',*,*,#285,.F.);
#212=ORIENTED_EDGE('',*,*,#302,.T.);
#213=ORIENTED_EDGE('',*,*,#300,.T.);
#214=ORIENTED_EDGE('',*,*,#237,.F.);
#215=ORIENTED_EDGE('',*,*,#307,.F.);
#216=ORIENTED_EDGE('',*,*,#286,.F.);
#217=ORIENTED_EDGE('',*,*,#306,.T.);
#218=ORIENTED_EDGE('',*,*,#308,.F.);
#219=ORIENTED_EDGE('',*,*,#243,.F.);
#220=ORIENTED_EDGE('',*,*,#305,.T.);
#221=ORIENTED_EDGE('',*,*,#304,.T.);
#222=ORIENTED_EDGE('',*,*,#242,.F.);
#223=ORIENTED_EDGE('',*,*,#236,.F.);
#224=ORIENTED_EDGE('',*,*,#266,.F.);
#225=ORIENTED_EDGE('',*,*,#309,.F.);
#226=ORIENTED_EDGE('',*,*,#244,.F.);
#227=ORIENTED_EDGE('',*,*,#308,.T.);
#228=ORIENTED_EDGE('',*,*,#307,.T.);
#229=ORIENTED_EDGE('',*,*,#274,.F.);
#230=ORIENTED_EDGE('',*,*,#272,.F.);
#231=ORIENTED_EDGE('',*,*,#309,.T.);
#232=ORIENTED_EDGE('',*,*,#310,.F.);
#233=ORIENTED_EDGE('',*,*,#268,.T.);
#234=ORIENTED_EDGE('',*,*,#310,.T.);
#235=EDGE_CURVE('',#311,#312,#359,.T.);
#236=EDGE_CURVE('',#311,#313,#57,.F.);
#237=EDGE_CURVE('',#313,#314,#360,.F.);
#238=EDGE_CURVE('',#314,#312,#58,.F.);
#239=EDGE_CURVE('',#315,#316,#361,.F.);
#240=EDGE_CURVE('',#316,#317,#59,.F.);
#241=EDGE_CURVE('',#317,#318,#362,.T.);
#242=EDGE_CURVE('',#318,#315,#60,.F.);
#243=EDGE_CURVE('',#319,#320,#61,.T.);
#244=EDGE_CURVE('',#320,#321,#363,.F.);
#245=EDGE_CURVE('',#321,#322,#364,.T.);
#246=EDGE_CURVE('',#322,#323,#365,.T.);
#247=EDGE_CURVE('',#324,#323,#366,.T.);
#248=EDGE_CURVE('',#324,#325,#62,.T.);
#249=EDGE_CURVE('',#325,#319,#63,.T.);
#250=EDGE_CURVE('',#326,#327,#367,.F.);
#251=EDGE_CURVE('',#327,#328,#368,.F.);
#252=EDGE_CURVE('',#328,#329,#369,.T.);
#253=EDGE_CURVE('',#329,#326,#370,.T.);
#254=EDGE_CURVE('',#330,#331,#371,.T.);
#255=EDGE_CURVE('',#330,#332,#64,.F.);
#256=EDGE_CURVE('',#332,#333,#372,.T.);
#257=EDGE_CURVE('',#333,#324,#65,.F.);
#258=EDGE_CURVE('',#323,#331,#373,.T.);
#259=EDGE_CURVE('',#334,#335,#374,.F.);
#260=EDGE_CURVE('',#335,#336,#375,.T.);
#261=EDGE_CURVE('',#336,#337,#66,.F.);
#262=EDGE_CURVE('',#337,#338,#67,.F.);
#263=EDGE_CURVE('',#338,#330,#68,.F.);
#264=EDGE_CURVE('',#334,#331,#376,.T.);
#265=EDGE_CURVE('',#339,#340,#377,.F.);
#266=EDGE_CURVE('',#340,#311,#378,.T.);
#267=EDGE_CURVE('',#312,#339,#379,.F.);
#268=EDGE_CURVE('',#341,#341,#69,.T.);
#269=EDGE_CURVE('',#322,#334,#380,.T.);
#270=EDGE_CURVE('',#334,#326,#40,.F.);
#271=EDGE_CURVE('',#327,#322,#41,.T.);
#272=EDGE_CURVE('',#321,#328,#70,.F.);
#273=EDGE_CURVE('',#329,#335,#71,.T.);
#274=EDGE_CURVE('',#328,#340,#72,.T.);
#275=EDGE_CURVE('',#339,#329,#73,.F.);
#276=EDGE_CURVE('',#342,#343,#381,.F.);
#277=EDGE_CURVE('',#343,#344,#74,.T.);
#278=EDGE_CURVE('',#344,#345,#382,.T.);
#279=EDGE_CURVE('',#345,#342,#75,.F.);
#280=EDGE_CURVE('',#346,#347,#383,.F.);
#281=EDGE_CURVE('',#347,#348,#76,.T.);
#282=EDGE_CURVE('',#348,#349,#384,.T.);
#283=EDGE_CURVE('',#349,#346,#77,.F.);
#284=EDGE_CURVE('',#317,#350,#78,.T.);
#285=EDGE_CURVE('',#350,#351,#385,.T.);
#286=EDGE_CURVE('',#351,#318,#79,.F.);
#287=EDGE_CURVE('',#344,#352,#14,.F.);
#288=EDGE_CURVE('',#332,#343,#15,.T.);
#289=EDGE_CURVE('',#352,#338,#16,.F.);
#290=EDGE_CURVE('',#353,#352,#386,.F.);
#291=EDGE_CURVE('',#345,#353,#17,.F.);
#292=EDGE_CURVE('',#333,#342,#18,.T.);
#293=EDGE_CURVE('',#335,#339,#80,.T.);
#294=EDGE_CURVE('',#348,#354,#19,.F.);
#295=EDGE_CURVE('',#352,#347,#20,.T.);
#296=EDGE_CURVE('',#354,#337,#21,.F.);
#297=EDGE_CURVE('',#353,#346,#22,.T.);
#298=EDGE_CURVE('',#325,#353,#23,.T.);
#299=EDGE_CURVE('',#336,#355,#24,.F.);
#300=EDGE_CURVE('',#355,#314,#25,.F.);
#301=EDGE_CURVE('',#354,#316,#26,.T.);
#302=EDGE_CURVE('',#350,#355,#27,.F.);
#303=EDGE_CURVE('',#349,#356,#28,.F.);
#304=EDGE_CURVE('',#356,#315,#29,.F.);
#305=EDGE_CURVE('',#319,#356,#30,.T.);
#306=EDGE_CURVE('',#351,#357,#31,.F.);
#307=EDGE_CURVE('',#357,#313,#32,.T.);
#308=EDGE_CURVE('',#320,#357,#33,.T.);
#309=EDGE_CURVE('',#321,#340,#81,.T.);
#310=EDGE_CURVE('',#358,#358,#82,.T.);
#311=VERTEX_POINT('',#750);
#312=VERTEX_POINT('',#751);
#313=VERTEX_POINT('',#753);
#314=VERTEX_POINT('',#755);
#315=VERTEX_POINT('',#759);
#316=VERTEX_POINT('',#760);
#317=VERTEX_POINT('',#762);
#318=VERTEX_POINT('',#764);
#319=VERTEX_POINT('',#768);
#320=VERTEX_POINT('',#769);
#321=VERTEX_POINT('',#771);
#322=VERTEX_POINT('',#773);
#323=VERTEX_POINT('',#775);
#324=VERTEX_POINT('',#777);
#325=VERTEX_POINT('',#779);
#326=VERTEX_POINT('',#783);
#327=VERTEX_POINT('',#784);
#328=VERTEX_POINT('',#786);
#329=VERTEX_POINT('',#788);
#330=VERTEX_POINT('',#792);
#331=VERTEX_POINT('',#793);
#332=VERTEX_POINT('',#795);
#333=VERTEX_POINT('',#797);
#334=VERTEX_POINT('',#802);
#335=VERTEX_POINT('',#803);
#336=VERTEX_POINT('',#805);
#337=VERTEX_POINT('',#807);
#338=VERTEX_POINT('',#809);
#339=VERTEX_POINT('',#814);
#340=VERTEX_POINT('',#815);
#341=VERTEX_POINT('',#820);
#342=VERTEX_POINT('',#834);
#343=VERTEX_POINT('',#835);
#344=VERTEX_POINT('',#837);
#345=VERTEX_POINT('',#839);
#346=VERTEX_POINT('',#843);
#347=VERTEX_POINT('',#844);
#348=VERTEX_POINT('',#846);
#349=VERTEX_POINT('',#848);
#350=VERTEX_POINT('',#852);
#351=VERTEX_POINT('',#854);
#352=VERTEX_POINT('',#863);
#353=VERTEX_POINT('',#877);
#354=VERTEX_POINT('',#901);
#355=VERTEX_POINT('',#929);
#356=VERTEX_POINT('',#951);
#357=VERTEX_POINT('',#967);
#358=VERTEX_POINT('',#984);
#359=LINE('',#749,#387);
#360=LINE('',#754,#388);
#361=LINE('',#758,#389);
#362=LINE('',#763,#390);
#363=LINE('',#770,#391);
#364=LINE('',#772,#392);
#365=LINE('',#774,#393);
#366=LINE('',#776,#394);
#367=LINE('',#782,#395);
#368=LINE('',#785,#396);
#369=LINE('',#787,#397);
#370=LINE('',#789,#398);
#371=LINE('',#791,#399);
#372=LINE('',#796,#400);
#373=LINE('',#799,#401);
#374=LINE('',#801,#402);
#375=LINE('',#804,#403);
#376=LINE('',#811,#404);
#377=LINE('',#813,#405);
#378=LINE('',#816,#406);
#379=LINE('',#817,#407);
#380=LINE('',#821,#408);
#381=LINE('',#833,#409);
#382=LINE('',#838,#410);
#383=LINE('',#842,#411);
#384=LINE('',#847,#412);
#385=LINE('',#853,#413);
#386=LINE('',#876,#414);
#387=VECTOR('',#601,1.);
#388=VECTOR('',#604,1.);
#389=VECTOR('',#609,1.);
#390=VECTOR('',#612,1.);
#391=VECTOR('',#619,1.);
#392=VECTOR('',#620,1.);
#393=VECTOR('',#621,1.);
#394=VECTOR('',#622,1.);
#395=VECTOR('',#629,1.);
#396=VECTOR('',#630,1.);
#397=VECTOR('',#631,1.);
#398=VECTOR('',#632,1.);
#399=VECTOR('',#635,1.);
#400=VECTOR('',#638,1.);
#401=VECTOR('',#641,1.);
#402=VECTOR('',#644,1.);
#403=VECTOR('',#645,1.);
#404=VECTOR('',#652,1.);
#405=VECTOR('',#655,1.);
#406=VECTOR('',#656,1.);
#407=VECTOR('',#657,1.);
#408=VECTOR('',#662,1.);
#409=VECTOR('',#685,1.);
#410=VECTOR('',#688,1.);
#411=VECTOR('',#693,1.);
#412=VECTOR('',#696,1.);
#413=VECTOR('',#703,1.);
#414=VECTOR('',#710,1.);
#415=EDGE_LOOP('',(#83,#84,#85,#86));
#416=EDGE_LOOP('',(#87,#88,#89,#90));
#417=EDGE_LOOP('',(#91,#92,#93,#94,#95,#96,#97));
#418=EDGE_LOOP('',(#98,#99,#100,#101));
#419=EDGE_LOOP('',(#102,#103,#104,#105,#106,#107));
#420=EDGE_LOOP('',(#108,#109,#110,#111,#112,#113,#114));
#421=EDGE_LOOP('',(#115,#116,#117,#118));
#422=EDGE_LOOP('',(#119));
#423=EDGE_LOOP('',(#120,#121,#122,#123));
#424=EDGE_LOOP('',(#124,#125,#126,#127));
#425=EDGE_LOOP('',(#128,#129,#130,#131));
#426=EDGE_LOOP('',(#132,#133,#134,#135));
#427=EDGE_LOOP('',(#136,#137,#138,#139));
#428=EDGE_LOOP('',(#140,#141,#142,#143));
#429=EDGE_LOOP('',(#144,#145,#146,#147));
#430=EDGE_LOOP('',(#148,#149,#150,#151));
#431=EDGE_LOOP('',(#152,#153,#154,#155,#156,#157));
#432=EDGE_LOOP('',(#158,#159,#160,#161));
#433=EDGE_LOOP('',(#162,#163,#164,#165));
#434=EDGE_LOOP('',(#166,#167,#168));
#435=EDGE_LOOP('',(#169,#170,#171,#172,#173,#174));
#436=EDGE_LOOP('',(#175,#176,#177,#178));
#437=EDGE_LOOP('',(#179,#180,#181,#182,#183,#184));
#438=EDGE_LOOP('',(#185,#186,#187,#188,#189,#190));
#439=EDGE_LOOP('',(#191,#192,#193,#194,#195,#196,#197));
#440=EDGE_LOOP('',(#198,#199,#200,#201,#202,#203));
#441=EDGE_LOOP('',(#204,#205,#206,#207,#208,#209));
#442=EDGE_LOOP('',(#210,#211,#212,#213,#214,#215));
#443=EDGE_LOOP('',(#216,#217,#218,#219,#220,#221,#222));
#444=EDGE_LOOP('',(#223,#224,#225,#226,#227,#228));
#445=EDGE_LOOP('',(#229,#230,#231));
#446=EDGE_LOOP('',(#232));
#447=EDGE_LOOP('',(#233));
#448=EDGE_LOOP('',(#234));
#449=FACE_BOUND('',#415,.T.);
#450=FACE_BOUND('',#416,.T.);
#451=FACE_BOUND('',#417,.T.);
#452=FACE_BOUND('',#418,.T.);
#453=FACE_BOUND('',#419,.T.);
#454=FACE_BOUND('',#420,.T.);
#455=FACE_BOUND('',#421,.T.);
#456=FACE_BOUND('',#422,.T.);
#457=FACE_BOUND('',#423,.T.);
#458=FACE_BOUND('',#424,.T.);
#459=FACE_BOUND('',#425,.T.);
#460=FACE_BOUND('',#426,.T.);
#461=FACE_BOUND('',#427,.T.);
#462=FACE_BOUND('',#428,.T.);
#463=FACE_BOUND('',#429,.T.);
#464=FACE_BOUND('',#430,.T.);
#465=FACE_BOUND('',#431,.T.);
#466=FACE_BOUND('',#432,.T.);
#467=FACE_BOUND('',#433,.T.);
#468=FACE_BOUND('',#434,.T.);
#469=FACE_BOUND('',#435,.T.);
#470=FACE_BOUND('',#436,.T.);
#471=FACE_BOUND('',#437,.T.);
#472=FACE_BOUND('',#438,.T.);
#473=FACE_BOUND('',#439,.T.);
#474=FACE_BOUND('',#440,.T.);
#475=FACE_BOUND('',#441,.T.);
#476=FACE_BOUND('',#442,.T.);
#477=FACE_BOUND('',#443,.T.);
#478=FACE_BOUND('',#444,.T.);
#479=FACE_BOUND('',#445,.T.);
#480=FACE_BOUND('',#446,.T.);
#481=FACE_BOUND('',#447,.T.);
#482=FACE_BOUND('',#448,.T.);
#483=PLANE('',#537);
#484=PLANE('',#540);
#485=PLANE('',#543);
#486=PLANE('',#547);
#487=PLANE('',#548);
#488=PLANE('',#551);
#489=PLANE('',#555);
#490=PLANE('',#556);
#491=PLANE('',#596);
#492=ADVANCED_FACE('',(#449),#483,.F.);
#493=ADVANCED_FACE('',(#450),#484,.F.);
#494=ADVANCED_FACE('',(#451),#485,.F.);
#495=ADVANCED_FACE('',(#452),#486,.T.);
#496=ADVANCED_FACE('',(#453),#487,.F.);
#497=ADVANCED_FACE('',(#454),#488,.T.);
#498=ADVANCED_FACE('',(#455),#489,.T.);
#499=ADVANCED_FACE('',(#456,#457),#490,.F.);
#500=ADVANCED_FACE('',(#458),#42,.T.);
#501=ADVANCED_FACE('',(#459),#43,.T.);
#502=ADVANCED_FACE('',(#460),#44,.T.);
#503=ADVANCED_FACE('',(#461),#45,.T.);
#504=ADVANCED_FACE('',(#462),#46,.F.);
#505=ADVANCED_FACE('',(#463),#47,.F.);
#506=ADVANCED_FACE('',(#464),#48,.F.);
#507=ADVANCED_FACE('',(#465),#34,.T.);
#508=ADVANCED_FACE('',(#466),#49,.T.);
#509=ADVANCED_FACE('',(#467),#50,.T.);
#510=ADVANCED_FACE('',(#468),#12,.T.);
#511=ADVANCED_FACE('',(#469),#35,.T.);
#512=ADVANCED_FACE('',(#470),#51,.T.);
#513=ADVANCED_FACE('',(#471),#36,.T.);
#514=ADVANCED_FACE('',(#472),#52,.T.);
#515=ADVANCED_FACE('',(#473),#37,.T.);
#516=ADVANCED_FACE('',(#474),#53,.T.);
#517=ADVANCED_FACE('',(#475),#38,.T.);
#518=ADVANCED_FACE('',(#476),#54,.T.);
#519=ADVANCED_FACE('',(#477),#39,.T.);
#520=ADVANCED_FACE('',(#478),#55,.T.);
#521=ADVANCED_FACE('',(#479),#13,.T.);
#522=ADVANCED_FACE('',(#480,#481),#56,.T.);
#523=ADVANCED_FACE('',(#482),#491,.T.);
#524=CLOSED_SHELL('',(#492,#493,#494,#495,#496,#497,#498,#499,#500,#501,
#502,#503,#504,#505,#506,#507,#508,#509,#510,#511,#512,#513,#514,#515,#516,
#517,#518,#519,#520,#521,#522,#523));
#525=STYLED_ITEM('',(#526),#533);
#526=PRESENTATION_STYLE_ASSIGNMENT((#527));
#527=SURFACE_STYLE_USAGE(.BOTH.,#528);
#528=SURFACE_SIDE_STYLE('',(#529));
#529=SURFACE_STYLE_FILL_AREA(#530);
#530=FILL_AREA_STYLE('',(#531));
#531=FILL_AREA_STYLE_COLOUR('',#532);
#532=COLOUR_RGB('',0.231372549019608,0.380392156862745,0.705882352941177);
#533=MANIFOLD_SOLID_BREP('Part 3',#524);
#534=SHAPE_DEFINITION_REPRESENTATION(#992,#535);
#535=SHAPE_REPRESENTATION('Part 3',(#536),#987);
#536=AXIS2_PLACEMENT_3D('',#747,#597,#598);
#537=AXIS2_PLACEMENT_3D('',#748,#599,#600);
#538=AXIS2_PLACEMENT_3D('',#752,#602,#603);
#539=AXIS2_PLACEMENT_3D('',#756,#605,#606);
#540=AXIS2_PLACEMENT_3D('',#757,#607,#608);
#541=AXIS2_PLACEMENT_3D('',#761,#610,#611);
#542=AXIS2_PLACEMENT_3D('',#765,#613,#614);
#543=AXIS2_PLACEMENT_3D('',#766,#615,#616);
#544=AXIS2_PLACEMENT_3D('',#767,#617,#618);
#545=AXIS2_PLACEMENT_3D('',#778,#623,#624);
#546=AXIS2_PLACEMENT_3D('',#780,#625,#626);
#547=AXIS2_PLACEMENT_3D('',#781,#627,#628);
#548=AXIS2_PLACEMENT_3D('',#790,#633,#634);
#549=AXIS2_PLACEMENT_3D('',#794,#636,#637);
#550=AXIS2_PLACEMENT_3D('',#798,#639,#640);
#551=AXIS2_PLACEMENT_3D('',#800,#642,#643);
#552=AXIS2_PLACEMENT_3D('',#806,#646,#647);
#553=AXIS2_PLACEMENT_3D('',#808,#648,#649);
#554=AXIS2_PLACEMENT_3D('',#810,#650,#651);
#555=AXIS2_PLACEMENT_3D('',#812,#653,#654);
#556=AXIS2_PLACEMENT_3D('',#818,#658,#659);
#557=AXIS2_PLACEMENT_3D('',#819,#660,#661);
#558=AXIS2_PLACEMENT_3D('',#822,#663,#664);
#559=AXIS2_PLACEMENT_3D('',#823,#665,#666);
#560=AXIS2_PLACEMENT_3D('',#824,#667,#668);
#561=AXIS2_PLACEMENT_3D('',#825,#669,#670);
#562=AXIS2_PLACEMENT_3D('',#826,#671,#672);
#563=AXIS2_PLACEMENT_3D('',#827,#673,#674);
#564=AXIS2_PLACEMENT_3D('',#828,#675,#676);
#565=AXIS2_PLACEMENT_3D('',#829,#677,#678);
#566=AXIS2_PLACEMENT_3D('',#830,#679,#680);
#567=AXIS2_PLACEMENT_3D('',#831,#681,#682);
#568=AXIS2_PLACEMENT_3D('',#832,#683,#684);
#569=AXIS2_PLACEMENT_3D('',#836,#686,#687);
#570=AXIS2_PLACEMENT_3D('',#840,#689,#690);
#571=AXIS2_PLACEMENT_3D('',#841,#691,#692);
#572=AXIS2_PLACEMENT_3D('',#845,#694,#695);
#573=AXIS2_PLACEMENT_3D('',#849,#697,#698);
#574=AXIS2_PLACEMENT_3D('',#850,#699,#700);
#575=AXIS2_PLACEMENT_3D('',#851,#701,#702);
#576=AXIS2_PLACEMENT_3D('',#855,#704,#705);
#577=AXIS2_PLACEMENT_3D('',#856,#706,#707);
#578=AXIS2_PLACEMENT_3D('',#875,#708,#709);
#579=AXIS2_PLACEMENT_3D('',#884,#711,#712);
#580=AXIS2_PLACEMENT_3D('',#892,#713,#714);
#581=AXIS2_PLACEMENT_3D('',#893,#715,#716);
#582=AXIS2_PLACEMENT_3D('',#894,#717,#718);
#583=AXIS2_PLACEMENT_3D('',#912,#719,#720);
#584=AXIS2_PLACEMENT_3D('',#919,#721,#722);
#585=AXIS2_PLACEMENT_3D('',#924,#723,#724);
#586=AXIS2_PLACEMENT_3D('',#934,#725,#726);
#587=AXIS2_PLACEMENT_3D('',#944,#727,#728);
#588=AXIS2_PLACEMENT_3D('',#956,#729,#730);
#589=AXIS2_PLACEMENT_3D('',#961,#731,#732);
#590=AXIS2_PLACEMENT_3D('',#972,#733,#734);
#591=AXIS2_PLACEMENT_3D('',#979,#735,#736);
#592=AXIS2_PLACEMENT_3D('',#980,#737,#738);
#593=AXIS2_PLACEMENT_3D('',#981,#739,#740);
#594=AXIS2_PLACEMENT_3D('',#982,#741,#742);
#595=AXIS2_PLACEMENT_3D('',#983,#743,#744);
#596=AXIS2_PLACEMENT_3D('',#985,#745,#746);
#597=DIRECTION('',(0.,0.,1.));
#598=DIRECTION('',(1.,0.,0.));
#599=DIRECTION('',(0.,0.,1.));
#600=DIRECTION('',(1.,0.,0.));
#601=DIRECTION('',(-1.,0.,0.));
#602=DIRECTION('',(0.,0.,1.));
#603=DIRECTION('',(1.,0.,0.));
#604=DIRECTION('',(1.,0.,0.));
#605=DIRECTION('',(0.,0.,1.));
#606=DIRECTION('',(1.,0.,0.));
#607=DIRECTION('',(0.,0.,1.));
#608=DIRECTION('',(1.,0.,0.));
#609=DIRECTION('',(1.,0.,0.));
#610=DIRECTION('',(0.,0.,1.));
#611=DIRECTION('',(1.,0.,0.));
#612=DIRECTION('',(1.,0.,0.));
#613=DIRECTION('',(0.,0.,1.));
#614=DIRECTION('',(1.,0.,0.));
#615=DIRECTION('',(-1.,0.,0.));
#616=DIRECTION('',(0.,0.,1.));
#617=DIRECTION('',(-1.,0.,0.));
#618=DIRECTION('',(0.,0.,1.));
#619=DIRECTION('',(0.,0.,-1.));
#620=DIRECTION('',(0.,-1.,0.));
#621=DIRECTION('',(0.,0.,-1.));
#622=DIRECTION('',(0.,-1.,0.));
#623=DIRECTION('',(-1.,0.,0.));
#624=DIRECTION('',(0.,0.,1.));
#625=DIRECTION('',(-1.,0.,0.));
#626=DIRECTION('',(0.,0.,1.));
#627=DIRECTION('',(0.,0.,1.));
#628=DIRECTION('',(1.,0.,0.));
#629=DIRECTION('',(-1.,0.,0.));
#630=DIRECTION('',(0.,-1.,0.));
#631=DIRECTION('',(-1.,0.,0.));
#632=DIRECTION('',(0.,-1.,0.));
#633=DIRECTION('',(0.,0.,1.));
#634=DIRECTION('',(1.,0.,0.));
#635=DIRECTION('',(0.,-1.,0.));
#636=DIRECTION('',(0.,0.,1.));
#637=DIRECTION('',(1.,0.,0.));
#638=DIRECTION('',(1.,0.,0.));
#639=DIRECTION('',(0.,0.,1.));
#640=DIRECTION('',(1.,0.,0.));
#641=DIRECTION('',(-1.,0.,0.));
#642=DIRECTION('',(-1.,0.,0.));
#643=DIRECTION('',(0.,0.,1.));
#644=DIRECTION('',(0.,-1.,0.));
#645=DIRECTION('',(0.,0.,-1.));
#646=DIRECTION('',(-1.,0.,0.));
#647=DIRECTION('',(0.,0.,1.));
#648=DIRECTION('',(-1.,0.,0.));
#649=DIRECTION('',(0.,0.,1.));
#650=DIRECTION('',(-1.,0.,0.));
#651=DIRECTION('',(0.,0.,1.));
#652=DIRECTION('',(0.,0.,-1.));
#653=DIRECTION('',(0.,1.,0.));
#654=DIRECTION('',(-1.,0.,0.));
#655=DIRECTION('',(-1.,0.,0.));
#656=DIRECTION('',(0.,0.,-1.));
#657=DIRECTION('',(0.,0.,-1.));
#658=DIRECTION('',(0.,1.,0.));
#659=DIRECTION('',(-1.,0.,0.));
#660=DIRECTION('',(0.,-1.,0.));
#661=DIRECTION('',(0.,0.,-1.));
#662=DIRECTION('',(-1.,0.,0.));
#663=DIRECTION('',(1.,0.,0.));
#664=DIRECTION('',(0.,0.,-1.));
#665=DIRECTION('',(0.707106781186548,-0.707106781186548,0.));
#666=DIRECTION('',(-0.707106781186548,-0.707106781186548,0.));
#667=DIRECTION('',(0.707106781186548,0.707106781186548,0.));
#668=DIRECTION('',(-0.707106781186548,0.707106781186548,0.));
#669=DIRECTION('',(0.,1.,0.));
#670=DIRECTION('',(0.,0.,1.));
#671=DIRECTION('',(0.,1.,0.));
#672=DIRECTION('',(0.,0.,1.));
#673=DIRECTION('',(0.,-1.,0.));
#674=DIRECTION('',(0.,0.,-1.));
#675=DIRECTION('',(0.,-1.,0.));
#676=DIRECTION('',(0.,0.,-1.));
#677=DIRECTION('',(-1.,0.,0.));
#678=DIRECTION('',(0.,0.,1.));
#679=DIRECTION('',(-1.,0.,0.));
#680=DIRECTION('',(0.,0.,1.));
#681=DIRECTION('',(-1.,0.,0.));
#682=DIRECTION('',(0.,0.,1.));
#683=DIRECTION('',(1.,0.,0.));
#684=DIRECTION('',(0.,0.,-1.));
#685=DIRECTION('',(1.,0.,0.));
#686=DIRECTION('',(-1.,0.,0.));
#687=DIRECTION('',(0.,0.,1.));
#688=DIRECTION('',(1.,0.,0.));
#689=DIRECTION('',(-1.,0.,0.));
#690=DIRECTION('',(0.,0.,1.));
#691=DIRECTION('',(1.,0.,0.));
#692=DIRECTION('',(0.,0.,-1.));
#693=DIRECTION('',(1.,0.,0.));
#694=DIRECTION('',(-1.,0.,0.));
#695=DIRECTION('',(0.,0.,1.));
#696=DIRECTION('',(1.,0.,0.));
#697=DIRECTION('',(-1.,0.,0.));
#698=DIRECTION('',(0.,0.,1.));
#699=DIRECTION('',(1.,0.,0.));
#700=DIRECTION('',(0.,0.,-1.));
#701=DIRECTION('',(-1.,0.,0.));
#702=DIRECTION('',(0.,0.,1.));
#703=DIRECTION('',(1.,0.,0.));
#704=DIRECTION('',(-1.,0.,0.));
#705=DIRECTION('',(0.,0.,1.));
#706=DIRECTION('',(-1.,0.,0.));
#707=DIRECTION('',(0.,0.,1.));
#708=DIRECTION('',(1.,0.,0.));
#709=DIRECTION('',(0.,0.,-1.));
#710=DIRECTION('',(1.,0.,0.));
#711=DIRECTION('',(1.,0.,0.));
#712=DIRECTION('',(0.,0.,-1.));
#713=DIRECTION('',(0.,0.,1.));
#714=DIRECTION('',(1.,0.,0.));
#715=DIRECTION('',(0.,0.,-1.));
#716=DIRECTION('',(-1.,0.,0.));
#717=DIRECTION('',(-1.,0.,0.));
#718=DIRECTION('',(0.,0.,1.));
#719=DIRECTION('',(1.,0.,0.));
#720=DIRECTION('',(0.,0.,-1.));
#721=DIRECTION('',(-1.,0.,0.));
#722=DIRECTION('',(0.,0.,1.));
#723=DIRECTION('',(0.,0.,-1.));
#724=DIRECTION('',(-1.,0.,0.));
#725=DIRECTION('',(-1.,0.,0.));
#726=DIRECTION('',(0.,0.,1.));
#727=DIRECTION('',(1.,0.,0.));
#728=DIRECTION('',(0.,0.,-1.));
#729=DIRECTION('',(-1.,0.,0.));
#730=DIRECTION('',(0.,0.,1.));
#731=DIRECTION('',(1.,0.,0.));
#732=DIRECTION('',(0.,0.,-1.));
#733=DIRECTION('',(-1.,0.,0.));
#734=DIRECTION('',(0.,0.,1.));
#735=DIRECTION('',(0.,0.,1.));
#736=DIRECTION('',(1.,0.,0.));
#737=DIRECTION('',(0.,0.,1.));
#738=DIRECTION('',(1.,0.,0.));
#739=DIRECTION('',(0.,0.,1.));
#740=DIRECTION('',(1.,0.,0.));
#741=DIRECTION('',(0.,1.,0.));
#742=DIRECTION('',(0.,0.,1.));
#743=DIRECTION('',(0.,-1.,0.));
#744=DIRECTION('',(0.,0.,-1.));
#745=DIRECTION('',(0.,-1.,0.));
#746=DIRECTION('',(1.,0.,0.));
#747=CARTESIAN_POINT('',(0.,0.,0.));
#748=CARTESIAN_POINT('',(-0.00286638967692852,0.0581057357153743,0.0049861192703247));
#749=CARTESIAN_POINT('',(-0.00286638967692852,0.0581057357153743,0.0049861192703247));
#750=CARTESIAN_POINT('',(0.0121336103230715,0.0581057357153743,0.0049861192703247));
#751=CARTESIAN_POINT('',(-0.0178663896769285,0.0581057357153743,0.0049861192703247));
#752=CARTESIAN_POINT('',(0.0121336103230715,0.0531057357153743,0.0049861192703247));
#753=CARTESIAN_POINT('',(0.0140170207297597,0.0577374487073437,0.0049861192703247));
#754=CARTESIAN_POINT('',(-0.00286638967692852,0.0577374487073437,0.0049861192703247));
#755=CARTESIAN_POINT('',(-0.0197498000836168,0.0577374487073437,0.0049861192703247));
#756=CARTESIAN_POINT('',(-0.0178663896769285,0.0531057357153743,0.0049861192703247));
#757=CARTESIAN_POINT('',(-0.00286638967692852,0.0581057357153743,0.0049861192703247));
#758=CARTESIAN_POINT('',(-0.00286638967692852,0.0397374487073437,0.0049861192703247));
#759=CARTESIAN_POINT('',(0.0162774522114473,0.0397374487073437,0.0049861192703247));
#760=CARTESIAN_POINT('',(-0.0220102315653044,0.0397374487073437,0.0049861192703247));
#761=CARTESIAN_POINT('',(-0.0178663896769285,0.036939489736211,0.0049861192703247));
#762=CARTESIAN_POINT('',(-0.0178663896769285,0.041939489736211,0.0049861192703247));
#763=CARTESIAN_POINT('',(-0.0266663896769285,0.041939489736211,0.0049861192703247));
#764=CARTESIAN_POINT('',(0.0121336103230715,0.041939489736211,0.0049861192703247));
#765=CARTESIAN_POINT('',(0.0121336103230715,0.036939489736211,0.0049861192703247));
#766=CARTESIAN_POINT('',(0.0171336103230715,0.0581057357153743,0.0299861192703247));
#767=CARTESIAN_POINT('',(0.0171336103230715,0.047939489736211,0.0049861192703247));
#768=CARTESIAN_POINT('',(0.0171336103230715,0.038939489736211,0.0113106745906615));
#769=CARTESIAN_POINT('',(0.0171336103230715,0.0531057357153743,0.0146974478345727));
#770=CARTESIAN_POINT('',(0.0171336103230715,0.0531057357153743,0.0499861192703247));
#771=CARTESIAN_POINT('',(0.0171336103230715,0.0531057357153743,0.0499861192703247));
#772=CARTESIAN_POINT('',(0.0171336103230715,-0.00189426428462574,0.0499861192703247));
#773=CARTESIAN_POINT('',(0.0171336103230715,-0.00189426428462575,0.0499861192703247));
#774=CARTESIAN_POINT('',(0.0171336103230715,-0.00189426428462575,0.0299861192703247));
#775=CARTESIAN_POINT('',(0.0171336103230715,-0.00189426428462575,0.0049861192703247));
#776=CARTESIAN_POINT('',(0.0171336103230715,0.0581057357153743,0.0049861192703247));
#777=CARTESIAN_POINT('',(0.0171336103230715,0.000939489736210983,0.0049861192703247));
#778=CARTESIAN_POINT('',(0.0171336103230715,0.011939489736211,0.0049861192703247));
#779=CARTESIAN_POINT('',(0.0171336103230715,0.020939489736211,0.0113106745906615));
#780=CARTESIAN_POINT('',(0.0171336103230715,0.029939489736211,0.0049861192703247));
#781=CARTESIAN_POINT('',(-0.0128663896769285,0.0581057357153743,0.0549861192703247));
#782=CARTESIAN_POINT('',(0.0171336103230715,0.00310573571537425,0.0549861192703247));
#783=CARTESIAN_POINT('',(-0.0178663896769285,0.00310573571537425,0.0549861192703247));
#784=CARTESIAN_POINT('',(0.0121336103230715,0.00310573571537425,0.0549861192703247));
#785=CARTESIAN_POINT('',(0.0121336103230715,0.0581057357153743,0.0549861192703247));
#786=CARTESIAN_POINT('',(0.0121336103230715,0.0531057357153743,0.0549861192703247));
#787=CARTESIAN_POINT('',(-0.0128663896769285,0.0531057357153743,0.0549861192703247));
#788=CARTESIAN_POINT('',(-0.0178663896769285,0.0531057357153743,0.0549861192703247));
#789=CARTESIAN_POINT('',(-0.0178663896769285,0.0581057357153743,0.0549861192703247));
#790=CARTESIAN_POINT('',(-0.00286638967692852,0.0581057357153743,0.0049861192703247));
#791=CARTESIAN_POINT('',(-0.0228663896769285,0.0581057357153743,0.0049861192703247));
#792=CARTESIAN_POINT('',(-0.0228663896769285,0.000939489736210983,0.0049861192703247));
#793=CARTESIAN_POINT('',(-0.0228663896769285,-0.00189426428462575,0.0049861192703247));
#794=CARTESIAN_POINT('',(-0.0178663896769285,0.000939489736210979,0.0049861192703247));
#795=CARTESIAN_POINT('',(-0.0227197490665596,0.00214153076507827,0.0049861192703247));
#796=CARTESIAN_POINT('',(-0.00286638967692852,0.00214153076507827,0.0049861192703247));
#797=CARTESIAN_POINT('',(0.0169869697127025,0.00214153076507827,0.0049861192703247));
#798=CARTESIAN_POINT('',(0.0121336103230715,0.000939489736210979,0.0049861192703247));
#799=CARTESIAN_POINT('',(-0.00286638967692852,-0.00189426428462575,0.0049861192703247));
#800=CARTESIAN_POINT('',(-0.0228663896769285,0.0581057357153743,0.0299861192703247));
#801=CARTESIAN_POINT('',(-0.0228663896769285,0.0581057357153743,0.0499861192703247));
#802=CARTESIAN_POINT('',(-0.0228663896769285,-0.00189426428462575,0.0499861192703247));
#803=CARTESIAN_POINT('',(-0.0228663896769285,0.0531057357153743,0.0499861192703247));
#804=CARTESIAN_POINT('',(-0.0228663896769285,0.0531057357153743,0.0299861192703247));
#805=CARTESIAN_POINT('',(-0.0228663896769285,0.0531057357153743,0.0146974478345727));
#806=CARTESIAN_POINT('',(-0.0228663896769285,0.047939489736211,0.0049861192703247));
#807=CARTESIAN_POINT('',(-0.0228663896769285,0.038939489736211,0.0113106745906615));
#808=CARTESIAN_POINT('',(-0.0228663896769285,0.029939489736211,0.0049861192703247));
#809=CARTESIAN_POINT('',(-0.0228663896769285,0.020939489736211,0.0113106745906615));
#810=CARTESIAN_POINT('',(-0.0228663896769285,0.011939489736211,0.0049861192703247));
#811=CARTESIAN_POINT('',(-0.0228663896769285,-0.00189426428462575,0.0299861192703247));
#812=CARTESIAN_POINT('',(-0.00288045033812523,0.0581057357153743,-0.0050200000000263));
#813=CARTESIAN_POINT('',(-0.00288045033812523,0.0581057357153743,0.0499861192703247));
#814=CARTESIAN_POINT('',(-0.0178663896769285,0.0581057357153743,0.0499861192703247));
#815=CARTESIAN_POINT('',(0.0121336103230715,0.0581057357153743,0.0499861192703247));
#816=CARTESIAN_POINT('',(0.0121336103230715,0.0581057357153743,0.0049861192703247));
#817=CARTESIAN_POINT('',(-0.0178663896769285,0.0581057357153743,-0.0050200000000263));
#818=CARTESIAN_POINT('',(-0.00288045033812523,-0.00189426428462575,-0.0050200000000263));
#819=CARTESIAN_POINT('',(-0.00286638967692852,-0.00189426428462575,0.0249861192703247));
#820=CARTESIAN_POINT('',(-0.00286638967692852,-0.00189426428462575,0.0099861192703247));
#821=CARTESIAN_POINT('',(-0.0228663896769285,-0.00189426428462575,0.0499861192703247));
#822=CARTESIAN_POINT('',(-0.00288045033812523,0.00310573571537425,0.0499861192703247));
#823=CARTESIAN_POINT('',(-0.0178663896769285,0.00310573571537425,0.0499861192703247));
#824=CARTESIAN_POINT('',(0.0121336103230715,0.00310573571537425,0.0499861192703247));
#825=CARTESIAN_POINT('',(0.0121336103230715,0.0581057357153743,0.0499861192703247));
#826=CARTESIAN_POINT('',(0.0121336103230715,0.0531057357153743,0.0499861192703247));
#827=CARTESIAN_POINT('',(-0.0178663896769285,0.0581057357153743,0.0499861192703247));
#828=CARTESIAN_POINT('',(-0.0178663896769285,0.0531057357153743,0.0499861192703247));
#829=CARTESIAN_POINT('',(-0.0128663896769285,0.0531057357153743,0.0499861192703247));
#830=CARTESIAN_POINT('',(0.0121336103230715,0.0531057357153743,0.0499861192703247));
#831=CARTESIAN_POINT('',(-0.0178663896769285,0.0531057357153743,0.0499861192703247));
#832=CARTESIAN_POINT('',(-0.0266663896769285,0.011939489736211,0.0049861192703247));
#833=CARTESIAN_POINT('',(-0.0266663896769285,0.0065951484792295,0.00771339199759743));
#834=CARTESIAN_POINT('',(0.0121336103230715,0.0065951484792295,0.00771339199759743));
#835=CARTESIAN_POINT('',(-0.0178663896769285,0.0065951484792295,0.00771339199759743));
#836=CARTESIAN_POINT('',(-0.0178663896769285,0.011939489736211,0.0049861192703247));
#837=CARTESIAN_POINT('',(-0.0178663896769285,0.0172838309931924,0.00771339199759743));
#838=CARTESIAN_POINT('',(-0.0266663896769285,0.0172838309931924,0.00771339199759743));
#839=CARTESIAN_POINT('',(0.0121336103230715,0.0172838309931924,0.00771339199759743));
#840=CARTESIAN_POINT('',(0.0121336103230715,0.011939489736211,0.0049861192703247));
#841=CARTESIAN_POINT('',(-0.0266663896769285,0.029939489736211,0.0049861192703247));
#842=CARTESIAN_POINT('',(-0.0266663896769285,0.0245951484792295,0.00771339199759743));
#843=CARTESIAN_POINT('',(0.0121336103230715,0.0245951484792295,0.00771339199759743));
#844=CARTESIAN_POINT('',(-0.0178663896769285,0.0245951484792295,0.00771339199759743));
#845=CARTESIAN_POINT('',(-0.0178663896769285,0.029939489736211,0.0049861192703247));
#846=CARTESIAN_POINT('',(-0.0178663896769285,0.0352838309931924,0.00771339199759743));
#847=CARTESIAN_POINT('',(-0.0266663896769285,0.0352838309931924,0.00771339199759743));
#848=CARTESIAN_POINT('',(0.0121336103230715,0.0352838309931924,0.00771339199759743));
#849=CARTESIAN_POINT('',(0.0121336103230715,0.029939489736211,0.0049861192703247));
#850=CARTESIAN_POINT('',(-0.0266663896769285,0.047939489736211,0.0049861192703247));
#851=CARTESIAN_POINT('',(-0.0178663896769285,0.047939489736211,0.0049861192703247));
#852=CARTESIAN_POINT('',(-0.0178663896769285,0.0532838309931925,0.00771339199759743));
#853=CARTESIAN_POINT('',(-0.0266663896769285,0.0532838309931925,0.00771339199759743));
#854=CARTESIAN_POINT('',(0.0121336103230715,0.0532838309931925,0.00771339199759743));
#855=CARTESIAN_POINT('',(0.0121336103230715,0.047939489736211,0.0049861192703247));
#856=CARTESIAN_POINT('',(-0.0178663896769285,0.011939489736211,0.0049861192703247));
#857=CARTESIAN_POINT('',(-0.0224490649397695,0.0209394897361918,0.00505020380504796));
#858=CARTESIAN_POINT('',(-0.0222316746873711,0.0204407316770515,0.00513083494035105));
#859=CARTESIAN_POINT('',(-0.0216352427057424,0.0195290484836865,0.0054362505538819));
#860=CARTESIAN_POINT('',(-0.0200981972835561,0.0181913101568105,0.00632410570306847));
#861=CARTESIAN_POINT('',(-0.018750881419398,0.0175807587152077,0.00713153487005788));
#862=CARTESIAN_POINT('',(-0.0178663896769285,0.0172838309931924,0.00771339199759743));
#863=CARTESIAN_POINT('',(-0.0224490649397904,0.0209394897361821,0.00505020380504019));
#864=CARTESIAN_POINT('',(-0.0227197490665596,0.00214153076507827,0.0049861192703247));
#865=CARTESIAN_POINT('',(-0.0225678552283514,0.00275481714066005,0.0049861192703247));
#866=CARTESIAN_POINT('',(-0.0220365120833007,0.00388479733769084,0.00521241912439855));
#867=CARTESIAN_POINT('',(-0.0207945032112823,0.00514400280370785,0.00591823664057932));
#868=CARTESIAN_POINT('',(-0.0193783391863798,0.00601463648646561,0.00675554011143868));
#869=CARTESIAN_POINT('',(-0.0183650984300597,0.00642772978338096,0.00738531969501251));
#870=CARTESIAN_POINT('',(-0.0178663896769285,0.0065951484792295,0.00771339199759743));
#871=CARTESIAN_POINT('',(-0.0228663896769285,0.020939489736211,0.0113106745906615));
#872=CARTESIAN_POINT('',(-0.0228663896769285,0.020939489736211,0.00921883567717969));
#873=CARTESIAN_POINT('',(-0.0224555673475899,0.020939489736211,0.00714293342234998));
#874=CARTESIAN_POINT('',(-0.0224490649397779,0.020939489736211,0.00505020380504057));
#875=CARTESIAN_POINT('',(-0.0266663896769285,0.0217374487073437,0.00998611927032471));
#876=CARTESIAN_POINT('',(-0.00286638967692851,0.020939489736211,0.00505020380504485));
#877=CARTESIAN_POINT('',(0.0167162855859209,0.020939489736211,0.00505020380504485));
#878=CARTESIAN_POINT('',(0.0167162855859209,0.020939489736211,0.00505020380504486));
#879=CARTESIAN_POINT('',(0.0164988953335237,0.0204407316770681,0.00513083494034638));
#880=CARTESIAN_POINT('',(0.0159024633518958,0.0195290484836975,0.00543625055387593));
#881=CARTESIAN_POINT('',(0.0143654179297063,0.0181913101568138,0.0063241057030643));
#882=CARTESIAN_POINT('',(0.0130181020655435,0.0175807587152089,0.0071315348700556));
#883=CARTESIAN_POINT('',(0.0121336103230715,0.0172838309931924,0.00771339199759743));
#884=CARTESIAN_POINT('',(-0.0266663896769285,0.00214153076507827,0.00998611927032471));
#885=CARTESIAN_POINT('',(0.0169869697127025,0.00214153076507827,0.0049861192703247));
#886=CARTESIAN_POINT('',(0.0168350758744944,0.00275481714066004,0.0049861192703247));
#887=CARTESIAN_POINT('',(0.0163037327294439,0.00388479733769099,0.00521241912439882));
#888=CARTESIAN_POINT('',(0.0150617238574244,0.00514400280370736,0.00591823664057836));
#889=CARTESIAN_POINT('',(0.0136455598325258,0.00601463648646744,0.00675554011144227));
#890=CARTESIAN_POINT('',(0.0126323190761963,0.00642772978337701,0.00738531969500478));
#891=CARTESIAN_POINT('',(0.0121336103230715,0.0065951484792295,0.00771339199759743));
#892=CARTESIAN_POINT('',(-0.0178663896769285,0.0531057357153743,0.0499861192703247));
#893=CARTESIAN_POINT('',(-0.0178663896769285,0.0531057357153743,0.0499861192703247));
#894=CARTESIAN_POINT('',(-0.0178663896769285,0.029939489736211,0.0049861192703247));
#895=CARTESIAN_POINT('',(-0.0224490649397779,0.038939489736211,0.00505020380504485));
#896=CARTESIAN_POINT('',(-0.0222316746873807,0.0384407316770681,0.00513083494034637));
#897=CARTESIAN_POINT('',(-0.0216352427057546,0.0375290484836964,0.00543625055387799));
#898=CARTESIAN_POINT('',(-0.0200981972835547,0.036191310156819,0.00632410570305398));
#899=CARTESIAN_POINT('',(-0.0187508814194381,0.0355807587151858,0.00713153487010091));
#900=CARTESIAN_POINT('',(-0.0178663896769285,0.0352838309931924,0.00771339199759743));
#901=CARTESIAN_POINT('',(-0.0224490649397779,0.038939489736211,0.00505020380504485));
#902=CARTESIAN_POINT('',(-0.0224490649397905,0.0209394897361821,0.00505020380504019));
#903=CARTESIAN_POINT('',(-0.0222316746873953,0.0214382477953291,0.00513083494033937));
#904=CARTESIAN_POINT('',(-0.021635242705769,0.0223499309887083,0.00543625055386752));
#905=CARTESIAN_POINT('',(-0.0200981972835719,0.023687669315602,0.00632410570305543));
#906=CARTESIAN_POINT('',(-0.0187508814194139,0.0242982207572172,0.00713153487006377));
#907=CARTESIAN_POINT('',(-0.0178663896769285,0.0245951484792295,0.00771339199759743));
#908=CARTESIAN_POINT('',(-0.0228663896769285,0.038939489736211,0.0113106745906615));
#909=CARTESIAN_POINT('',(-0.0228663896769285,0.038939489736211,0.00921883567718112));
#910=CARTESIAN_POINT('',(-0.0224555673475903,0.038939489736211,0.00714293342235282));
#911=CARTESIAN_POINT('',(-0.0224490649397779,0.038939489736211,0.00505020380504485));
#912=CARTESIAN_POINT('',(-0.0266663896769285,0.0201415307650783,0.00998611927032471));
#913=CARTESIAN_POINT('',(0.0167162855859208,0.020939489736211,0.00505020380504486));
#914=CARTESIAN_POINT('',(0.0164988953335237,0.0214382477953539,0.00513083494034639));
#915=CARTESIAN_POINT('',(0.0159024633518956,0.0223499309887244,0.00543625055387567));
#916=CARTESIAN_POINT('',(0.0143654179297074,0.023687669315609,0.00632410570306575));
#917=CARTESIAN_POINT('',(0.0130181020655383,0.0242982207572099,0.00713153487004937));
#918=CARTESIAN_POINT('',(0.0121336103230715,0.0245951484792295,0.00771339199759743));
#919=CARTESIAN_POINT('',(0.0121336103230715,0.011939489736211,0.0049861192703247));
#920=CARTESIAN_POINT('',(0.0171336103230715,0.020939489736211,0.0113106745906615));
#921=CARTESIAN_POINT('',(0.0171336103230715,0.020939489736211,0.00921883567718112));
#922=CARTESIAN_POINT('',(0.0167227879937333,0.020939489736211,0.00714293342235281));
#923=CARTESIAN_POINT('',(0.0167162855859208,0.020939489736211,0.00505020380504485));
#924=CARTESIAN_POINT('',(-0.0178663896769285,0.0531057357153743,0.0299861192703247));
#925=CARTESIAN_POINT('',(-0.0219294585827196,0.0560197485957165,0.00529042908393882));
#926=CARTESIAN_POINT('',(-0.0219748029056092,0.0559565240610448,0.00864918826190236));
#927=CARTESIAN_POINT('',(-0.0228663896769285,0.0548178601190955,0.0118454153083196));
#928=CARTESIAN_POINT('',(-0.0228663896769285,0.0531057357153743,0.0146974478345727));
#929=CARTESIAN_POINT('',(-0.0219294585827188,0.0560197485957162,0.00529042908393884));
#930=CARTESIAN_POINT('',(-0.0197498000836168,0.0577374487073437,0.00498611927032471));
#931=CARTESIAN_POINT('',(-0.0206348281515881,0.0573775665047292,0.00498611927032471));
#932=CARTESIAN_POINT('',(-0.021399601142709,0.0567585398699517,0.00502017661756018));
#933=CARTESIAN_POINT('',(-0.0219294585827189,0.0560197485957164,0.00529042908393939));
#934=CARTESIAN_POINT('',(-0.0178663896769285,0.047939489736211,0.0049861192703247));
#935=CARTESIAN_POINT('',(-0.0224490649397779,0.038939489736211,0.00505020380504486));
#936=CARTESIAN_POINT('',(-0.0223288154517426,0.0392147434822066,0.00500570523178118));
#937=CARTESIAN_POINT('',(-0.0221803190426331,0.0394855452232272,0.00498611927032471));
#938=CARTESIAN_POINT('',(-0.0220102315653043,0.0397374487073437,0.00498611927032471));
#939=CARTESIAN_POINT('',(-0.0219294585827188,0.0560197485957162,0.00529042908393884));
#940=CARTESIAN_POINT('',(-0.0214170778850403,0.055294832235305,0.00555560605766872));
#941=CARTESIAN_POINT('',(-0.0201062724865966,0.0541870444078262,0.00631866167014427));
#942=CARTESIAN_POINT('',(-0.0186064854263891,0.0535322843527615,0.00722652483293805));
#943=CARTESIAN_POINT('',(-0.0178663896769285,0.0532838309931925,0.00771339199759743));
#944=CARTESIAN_POINT('',(-0.0266663896769285,0.0397374487073437,0.00998611927032471));
#945=CARTESIAN_POINT('',(0.0167162855859208,0.038939489736211,0.00505020380504486));
#946=CARTESIAN_POINT('',(0.0164988953335237,0.0384407316770681,0.00513083494034638));
#947=CARTESIAN_POINT('',(0.0159024633518969,0.0375290484836968,0.00543625055387721));
#948=CARTESIAN_POINT('',(0.0143654179297009,0.036191310156817,0.0063241057030579));
#949=CARTESIAN_POINT('',(0.0130181020655668,0.0355807587151946,0.00713153487008369));
#950=CARTESIAN_POINT('',(0.0121336103230715,0.0352838309931925,0.00771339199759743));
#951=CARTESIAN_POINT('',(0.0167162855859209,0.038939489736211,0.00505020380504485));
#952=CARTESIAN_POINT('',(0.0162774522114473,0.0397374487073437,0.00498611927032471));
#953=CARTESIAN_POINT('',(0.0164473422702095,0.0394858376046861,0.00498611927032471));
#954=CARTESIAN_POINT('',(0.0165952314596342,0.0392165853170156,0.005005407473722));
#955=CARTESIAN_POINT('',(0.0167162855859208,0.038939489736211,0.00505020380504485));
#956=CARTESIAN_POINT('',(0.0121336103230715,0.029939489736211,0.0049861192703247));
#957=CARTESIAN_POINT('',(0.0171336103230715,0.038939489736211,0.0113106745906615));
#958=CARTESIAN_POINT('',(0.0171336103230715,0.038939489736211,0.00921883567718112));
#959=CARTESIAN_POINT('',(0.0167227879937333,0.038939489736211,0.00714293342235281));
#960=CARTESIAN_POINT('',(0.0167162855859208,0.038939489736211,0.00505020380504485));
#961=CARTESIAN_POINT('',(-0.0266663896769285,0.0577374487073437,0.00998611927032471));
#962=CARTESIAN_POINT('',(0.0161966792288617,0.0560197485957161,0.00529042908393888));
#963=CARTESIAN_POINT('',(0.0156842985311832,0.055294832235305,0.00555560605766876));
#964=CARTESIAN_POINT('',(0.0143734931327562,0.054187044407816,0.0063186616701644));
#965=CARTESIAN_POINT('',(0.0128737060724987,0.053532284352782,0.00722652483289788));
#966=CARTESIAN_POINT('',(0.0121336103230715,0.0532838309931925,0.00771339199759743));
#967=CARTESIAN_POINT('',(0.0161966792288619,0.0560197485957162,0.00529042908393943));
#968=CARTESIAN_POINT('',(0.0161966792288619,0.0560197485957162,0.00529042908393944));
#969=CARTESIAN_POINT('',(0.0156708887423011,0.0567528692319761,0.00502225095702827));
#970=CARTESIAN_POINT('',(0.0148985409497862,0.0573789929137782,0.00498611927032471));
#971=CARTESIAN_POINT('',(0.0140170207297597,0.0577374487073437,0.00498611927032471));
#972=CARTESIAN_POINT('',(0.0121336103230715,0.047939489736211,0.0049861192703247));
#973=CARTESIAN_POINT('',(0.0171336103230715,0.0531057357153743,0.0146974478345727));
#974=CARTESIAN_POINT('',(0.0171336103230715,0.053532962527679,0.0139857794401405));
#975=CARTESIAN_POINT('',(0.0170229641688874,0.0543271179279221,0.0125037389078223));
#976=CARTESIAN_POINT('',(0.016568145010668,0.0555382097396007,0.00944888011095929));
#977=CARTESIAN_POINT('',(0.0162193503628632,0.0559881377609669,0.00696973256776328));
#978=CARTESIAN_POINT('',(0.0161966792288623,0.0560197485957163,0.00529042908393941));
#979=CARTESIAN_POINT('',(0.0121336103230715,0.0531057357153743,-0.0050200000000263));
#980=CARTESIAN_POINT('',(0.0121336103230715,0.0531057357153743,0.0499861192703247));
#981=CARTESIAN_POINT('',(0.0121336103230715,0.0531057357153743,0.0499861192703247));
#982=CARTESIAN_POINT('',(-0.00286638967692852,-0.00989426428462575,0.0249861192703247));
#983=CARTESIAN_POINT('',(-0.00286638967692852,-0.00989426428462575,0.0249861192703247));
#984=CARTESIAN_POINT('',(-0.00286638967692852,-0.00989426428462575,0.0099861192703247));
#985=CARTESIAN_POINT('',(-0.00286638967692852,-0.00989426428462575,0.0274861192703247));
#986=MECHANICAL_DESIGN_GEOMETRIC_PRESENTATION_REPRESENTATION('',(#525),
#987);
#987=(
GEOMETRIC_REPRESENTATION_CONTEXT(3)
GLOBAL_UNCERTAINTY_ASSIGNED_CONTEXT((#988))
GLOBAL_UNIT_ASSIGNED_CONTEXT((#991,#990,#989))
REPRESENTATION_CONTEXT('Part 3','TOP_LEVEL_ASSEMBLY_PART')
);
#988=UNCERTAINTY_MEASURE_WITH_UNIT(LENGTH_MEASURE(2.E-5),#991,
'DISTANCE_ACCURACY_VALUE','Maximum Tolerance applied to model');
#989=(
NAMED_UNIT(*)
SI_UNIT($,.STERADIAN.)
SOLID_ANGLE_UNIT()
);
#990=(
NAMED_UNIT(*)
PLANE_ANGLE_UNIT()
SI_UNIT($,.RADIAN.)
);
#991=(
LENGTH_UNIT()
NAMED_UNIT(*)
SI_UNIT($,.METRE.)
);
#992=PRODUCT_DEFINITION_SHAPE('','',#993);
#993=PRODUCT_DEFINITION('','',#995,#994);
#994=PRODUCT_DEFINITION_CONTEXT('',#1001,'design');
#995=PRODUCT_DEFINITION_FORMATION_WITH_SPECIFIED_SOURCE('','',#997,
 .NOT_KNOWN.);
#996=PRODUCT_RELATED_PRODUCT_CATEGORY('','',(#997));
#997=PRODUCT('Part 3','Part 3','Part 3',(#999));
#998=PRODUCT_CATEGORY('','');
#999=PRODUCT_CONTEXT('',#1001,'mechanical');
#1000=APPLICATION_PROTOCOL_DEFINITION('international standard',
'ap242_managed_model_based_3d_engineering',2020,#1001);
#1001=APPLICATION_CONTEXT('managed model based 3d engineering');
ENDSEC;
END-ISO-10303-21;
